<?xml version="1.0" standalone="no"?>
<!DOCTYPE svg PUBLIC "-//W3C//DTD SVG 20010904//EN"
 "http://www.w3.org/TR/2001/REC-SVG-20010904/DTD/svg10.dtd">
<svg version="1.0" xmlns="http://www.w3.org/2000/svg"
 width="4000.000000pt" height="3000.000000pt" viewBox="0 0 4000.000000 3000.000000"
 preserveAspectRatio="xMidYMid meet">
<metadata>
Created by potrace 1.13, written by Peter Selinger 2001-2015
</metadata>
<g transform="translate(0.000000,3000.000000) scale(0.100000,-0.100000)"
fill="#000000" stroke="none">
<path d="M20955 25450 c-4 -6 -10 -8 -15 -5 -5 3 -11 1 -15 -5 -3 -5 -13 -10
-21 -10 -18 0 -110 -43 -177 -82 -67 -39 -185 -68 -279 -68 -45 0 -78 4 -78
10 0 12 -67 13 -74 1 -3 -4 -27 -11 -53 -14 -79 -10 -119 -26 -189 -72 -37
-25 -69 -45 -71 -45 -9 0 -108 -86 -138 -119 -16 -18 -42 -46 -58 -62 -15 -15
-43 -58 -63 -96 -20 -37 -54 -92 -76 -121 -62 -83 -86 -147 -93 -248 -4 -49
-11 -116 -17 -149 -14 -82 -18 -199 -7 -206 13 -8 13 -34 -1 -234 -11 -158
-11 -192 3 -279 9 -54 14 -103 11 -107 -3 -5 -1 -9 4 -9 5 0 13 -26 17 -57 4
-31 11 -68 17 -82 5 -14 11 -50 13 -78 3 -29 11 -63 20 -76 8 -13 12 -27 8
-30 -3 -4 -1 -7 6 -7 8 0 11 -7 7 -15 -3 -8 -1 -15 5 -15 6 0 7 -4 4 -10 -3
-5 -2 -10 3 -10 5 0 17 -28 27 -62 9 -35 28 -84 42 -110 13 -27 21 -48 16 -48
-4 0 -3 -4 2 -8 16 -11 55 -114 55 -144 0 -15 8 -49 18 -75 15 -42 17 -84 16
-323 -1 -238 -4 -289 -22 -379 -24 -116 -39 -140 -102 -161 -56 -18 -112 -69
-139 -126 -56 -118 -69 -138 -118 -180 -28 -24 -56 -44 -62 -44 -6 0 -11 -4
-11 -10 0 -5 -6 -10 -14 -10 -8 0 -54 -16 -103 -36 -48 -20 -106 -43 -128 -51
-22 -9 -72 -31 -111 -49 -39 -19 -77 -34 -84 -34 -8 0 -21 -7 -30 -15 -9 -8
-25 -16 -36 -18 -10 -1 -23 -5 -29 -8 -5 -4 -28 -12 -50 -18 -41 -13 -253 -87
-290 -101 -11 -5 -54 -18 -95 -30 -41 -13 -88 -28 -105 -36 -16 -7 -57 -22
-90 -34 -33 -12 -79 -31 -102 -41 -24 -11 -45 -19 -48 -19 -9 0 -180 -77 -235
-106 -71 -37 -119 -57 -153 -65 -49 -12 -86 -51 -168 -176 -35 -54 -66 -100
-69 -103 -16 -15 -43 -68 -76 -147 -52 -127 -75 -178 -132 -303 -17 -36 -42
-91 -56 -122 -15 -32 -31 -58 -36 -58 -6 0 -10 -10 -10 -23 0 -31 -88 -217
-102 -217 -5 0 -8 -10 -8 -23 0 -13 -7 -32 -15 -43 -8 -10 -15 -27 -15 -37 0
-9 -11 -40 -25 -69 -14 -28 -25 -60 -25 -69 0 -10 -4 -20 -9 -23 -4 -3 -14
-27 -21 -53 -7 -27 -16 -52 -20 -58 -3 -5 -25 -71 -49 -145 -23 -74 -46 -142
-51 -151 -4 -8 -18 -56 -30 -105 -12 -49 -26 -98 -31 -109 -20 -45 -39 -109
-39 -135 0 -26 -26 -89 -40 -100 -13 -9 -58 -115 -75 -175 -10 -33 -21 -64
-26 -69 -5 -6 -9 -19 -9 -29 0 -11 -13 -41 -28 -66 -16 -25 -31 -65 -34 -89
-4 -24 -29 -89 -56 -145 -27 -56 -58 -124 -68 -152 -9 -27 -26 -58 -36 -68
-10 -10 -18 -28 -18 -40 0 -23 -69 -169 -82 -175 -5 -2 -8 -10 -8 -18 0 -8 -9
-33 -21 -55 -46 -90 -57 -187 -52 -455 3 -236 7 -274 34 -404 19 -91 101 -242
151 -278 10 -7 18 -19 18 -27 0 -8 6 -18 13 -22 11 -8 24 -27 47 -73 14 -27
29 -56 62 -115 15 -27 33 -62 39 -77 6 -16 15 -28 20 -28 5 0 9 -6 9 -14 0 -7
7 -20 16 -27 24 -20 104 -146 104 -163 0 -9 4 -16 9 -16 4 0 20 -26 35 -57 49
-108 186 -344 216 -373 3 -3 18 -24 34 -47 16 -24 33 -43 37 -43 5 0 9 -5 9
-10 0 -6 5 -16 10 -23 6 -7 34 -43 63 -82 28 -38 55 -71 59 -73 4 -2 8 -9 8
-15 0 -7 26 -36 58 -66 156 -147 352 -345 352 -357 0 -8 11 -16 24 -20 13 -3
41 -23 62 -45 21 -21 42 -39 47 -39 5 0 25 -15 45 -34 21 -19 51 -47 69 -63
l31 -28 10 -190 c6 -115 16 -208 25 -235 8 -25 20 -72 26 -105 26 -127 49
-201 79 -259 8 -17 15 -49 15 -74 0 -33 7 -50 27 -72 15 -16 35 -53 44 -84 10
-30 26 -65 37 -77 10 -12 19 -29 19 -38 1 -9 1 -117 2 -241 1 -170 5 -230 15
-245 7 -11 13 -30 13 -42 0 -12 9 -38 20 -58 11 -20 20 -42 20 -50 0 -8 9 -15
20 -15 11 0 20 -5 20 -11 0 -6 -9 -13 -20 -16 -11 -3 -20 -9 -20 -13 0 -20 13
-40 26 -40 8 0 14 -10 14 -25 0 -14 -5 -25 -10 -25 -7 0 -7 -6 0 -20 6 -11 17
-20 25 -20 11 0 15 -12 15 -40 0 -22 4 -40 9 -40 6 0 8 -73 6 -182 -2 -101 -4
-245 -4 -320 -1 -112 -5 -147 -21 -190 -24 -63 -24 -85 -5 -157 12 -47 12 -61
-1 -110 -19 -73 -27 -388 -13 -537 9 -101 8 -115 -10 -165 -11 -30 -25 -85
-30 -123 -10 -72 -4 -263 9 -281 4 -5 13 -33 20 -61 10 -39 11 -59 2 -80 -21
-56 -30 -263 -16 -397 5 -49 3 -83 -9 -125 -9 -31 -19 -74 -22 -96 -4 -26 -12
-40 -26 -43 -16 -5 -18 -11 -13 -44 4 -26 3 -39 -5 -39 -6 0 -11 -9 -11 -20 0
-12 -9 -31 -21 -43 -17 -19 -18 -23 -5 -25 18 -4 23 -67 6 -77 -5 -3 -10 -14
-10 -23 0 -10 -9 -35 -20 -56 -11 -23 -17 -49 -14 -65 3 -14 -2 -48 -10 -75
-14 -45 -14 -53 1 -83 16 -35 16 -37 -9 -203 -10 -63 -20 -247 -20 -341 0 -33
8 -60 28 -90 15 -24 31 -45 35 -47 26 -10 -18 -118 -83 -201 -10 -13 -18 -32
-18 -42 0 -9 -5 -19 -11 -21 -13 -4 -14 -89 -4 -193 6 -53 3 -66 -19 -105 -14
-25 -31 -56 -37 -70 -6 -14 -15 -33 -20 -42 -5 -10 -5 -19 1 -23 14 -9 12 -54
-5 -122 -8 -32 -16 -99 -19 -149 -2 -59 -9 -100 -19 -115 -11 -16 -17 -60 -21
-133 -3 -60 -10 -112 -15 -116 -18 -11 -39 -132 -28 -164 8 -24 6 -32 -9 -43
-12 -8 -13 -13 -4 -13 10 0 12 -22 6 -116 -3 -63 -11 -136 -17 -162 -6 -26
-11 -111 -10 -189 1 -99 -2 -143 -9 -143 -8 0 -11 -25 -9 -73 1 -39 1 -251 0
-470 -1 -218 1 -402 4 -407 3 -6 8 -99 11 -208 3 -108 10 -212 16 -231 15 -48
2 -157 -22 -183 -10 -11 -22 -33 -25 -49 -3 -15 -12 -30 -20 -32 -7 -3 -18
-37 -26 -79 -13 -73 -30 -100 -70 -113 -11 -4 -19 -13 -19 -21 0 -8 -4 -14 -8
-14 -5 0 -9 -24 -9 -52 0 -29 -3 -79 -8 -111 -7 -52 -6 -59 11 -63 32 -8 43
-47 34 -120 -8 -67 0 -94 29 -94 6 0 11 -9 11 -20 0 -11 -4 -20 -10 -20 -5 0
-10 -9 -10 -20 0 -13 -7 -20 -20 -20 -33 0 -62 -40 -54 -75 9 -39 54 -139 65
-143 5 -2 9 -12 9 -21 0 -15 8 -17 44 -16 51 3 54 1 85 -43 18 -26 19 -32 7
-32 -9 0 -16 -4 -16 -10 0 -5 5 -10 10 -10 7 0 7 -7 0 -21 -7 -11 -9 -27 -6
-35 3 -9 -8 -21 -34 -34 -22 -11 -40 -25 -40 -30 0 -6 -11 -10 -24 -10 -17 0
-35 -16 -67 -57 -24 -32 -62 -78 -85 -103 l-42 -45 12 -70 c22 -128 -5 -420
-50 -548 -8 -21 -16 -80 -19 -130 -4 -50 -11 -99 -16 -110 -6 -10 -8 -21 -5
-24 3 -3 -1 -18 -8 -32 -42 -80 -59 -124 -63 -163 -7 -72 -3 -139 11 -167 9
-18 11 -42 7 -78 -10 -71 -3 -144 14 -163 8 -9 15 -28 15 -43 0 -14 5 -29 10
-32 6 -3 10 -24 10 -46 0 -28 4 -39 15 -39 9 0 15 -9 15 -23 0 -13 12 -34 26
-48 15 -13 48 -56 74 -94 26 -39 55 -77 64 -84 9 -7 16 -18 16 -24 0 -15 77
-83 130 -114 25 -15 48 -33 53 -40 4 -7 13 -10 20 -7 7 2 21 -4 31 -15 10 -11
23 -18 28 -14 6 3 14 0 18 -6 5 -9 54 -13 166 -13 243 -2 330 15 398 75 20 18
36 35 36 39 0 4 -15 4 -34 1 -53 -8 -51 12 7 70 30 29 60 66 69 83 8 16 26 50
40 75 14 25 28 57 32 70 26 86 52 210 62 294 4 33 12 76 19 95 7 19 11 44 9
55 -5 27 -5 62 1 320 6 254 6 268 6 354 -1 35 4 70 9 76 6 7 10 17 9 21 -1 5
-1 21 0 36 1 23 7 27 44 34 23 4 46 7 50 6 4 -1 15 12 25 28 14 26 21 30 45
26 16 -3 42 -15 58 -27 30 -21 49 -18 49 8 0 9 -3 14 -6 10 -6 -6 -19 2 -60
41 -14 12 -28 22 -33 22 -4 0 -26 17 -49 37 -23 21 -53 46 -67 56 -22 16 -25
25 -25 80 0 34 9 107 19 161 11 55 18 121 15 148 -2 26 -6 71 -9 98 -4 50 -4
51 58 118 82 88 94 111 79 159 -7 24 -8 41 -1 49 5 6 16 36 25 65 9 30 21 57
26 60 6 4 12 27 13 52 2 24 8 53 13 63 31 59 37 82 36 129 -1 34 -10 67 -28
101 -32 60 -32 70 -1 116 14 21 24 41 23 45 -2 10 12 64 21 78 3 6 7 15 8 20
11 47 38 105 48 105 14 0 29 -28 26 -47 -1 -7 3 -13 9 -13 5 0 10 -5 10 -11 0
-43 341 -239 417 -239 13 0 23 -5 23 -11 0 -5 4 -8 9 -5 5 3 25 -1 45 -9 20
-8 59 -20 88 -26 29 -6 62 -17 73 -24 28 -17 138 -46 210 -55 61 -7 126 -35
181 -76 17 -13 35 -24 39 -24 4 0 31 -17 59 -38 28 -22 69 -49 91 -62 68 -40
146 -107 206 -177 20 -24 63 -57 95 -74 160 -86 188 -99 205 -99 10 0 33 -9
51 -20 18 -11 42 -20 54 -20 11 0 24 -4 30 -9 9 -8 92 -31 114 -31 6 0 8 5 5
10 -3 6 -13 10 -22 10 -9 0 -24 7 -33 15 -10 9 -41 18 -69 22 -36 4 -58 13
-74 29 -12 13 -26 24 -30 24 -16 0 -101 42 -116 57 -8 9 -27 21 -42 27 -44 18
-106 82 -119 121 -7 20 -9 39 -6 42 3 3 21 -2 40 -11 19 -9 37 -16 41 -16 4 0
58 -24 119 -54 61 -30 145 -66 186 -80 41 -15 100 -39 130 -53 88 -41 177 -64
289 -73 64 -6 107 -14 112 -22 10 -15 1 -30 -13 -22 -6 4 -14 1 -18 -7 -5 -7
-14 -14 -22 -16 -55 -13 -117 -20 -139 -16 -15 3 -36 0 -47 -6 -11 -6 -22 -7
-24 -2 -4 11 -98 23 -98 12 0 -9 37 -19 70 -20 8 0 38 -5 65 -10 52 -11 222
-10 264 2 14 4 29 11 35 17 5 5 17 10 25 10 9 0 30 12 46 26 17 14 43 37 59
50 34 30 67 90 59 110 -3 8 0 14 6 14 6 0 11 5 11 10 0 6 -6 10 -14 10 -9 0
-14 11 -14 33 0 17 -1 37 -3 42 -1 6 1 18 6 28 11 25 1 177 -13 186 -10 6 -35
61 -32 70 1 2 -2 7 -8 10 -5 3 -15 18 -23 32 -50 95 -186 249 -219 249 -10 0
-20 7 -24 15 -3 8 -12 15 -21 15 -8 0 -15 4 -15 9 0 5 -9 12 -19 16 -12 3 -17
12 -14 23 3 11 -16 35 -56 72 -34 30 -91 83 -128 117 -37 35 -71 63 -75 63 -4
0 -8 7 -8 15 0 16 -34 55 -48 55 -14 0 -72 59 -72 73 0 8 -20 31 -44 51 -24
21 -51 54 -61 76 -9 21 -25 40 -35 43 -12 3 -19 19 -24 48 -6 38 -15 53 -71
103 -71 65 -85 97 -61 145 9 16 17 38 19 48 1 10 5 23 9 28 3 6 0 28 -8 50 -7
22 -14 50 -14 62 0 12 -4 25 -10 28 -22 14 -2 99 40 165 31 48 41 88 36 134
-3 26 -11 54 -17 62 -15 19 -21 101 -8 110 6 3 8 22 4 45 -5 29 -3 40 8 45 9
3 16 26 20 64 4 33 10 68 15 77 5 10 16 33 25 50 9 18 12 35 8 38 -8 4 37 154
50 165 4 4 23 45 49 105 4 11 22 49 38 85 17 36 33 76 37 90 4 14 11 27 15 30
4 3 19 37 35 75 38 98 68 159 77 163 4 2 8 10 8 18 0 7 12 39 26 71 14 32 33
74 42 93 9 19 25 51 37 70 12 19 30 63 41 97 10 35 22 63 27 63 4 0 7 8 7 18
0 10 13 38 29 63 26 42 41 91 55 179 4 25 20 50 51 80 25 24 45 51 45 60 0 8
14 57 30 109 17 51 30 100 30 107 0 7 24 31 53 52 58 44 176 167 215 225 l25
38 -21 63 c-25 72 -21 95 36 198 150 271 221 475 267 763 28 184 51 284 94
425 55 184 100 413 141 730 10 78 48 351 55 400 24 163 80 426 132 625 62 239
72 296 83 500 9 156 8 192 -6 265 -10 47 -19 121 -20 165 -4 89 -11 209 -19
300 -3 33 -8 89 -11 124 -2 35 -6 67 -9 70 -10 17 -18 194 -16 346 2 130 -1
180 -13 212 -8 22 -12 44 -9 47 4 3 2 6 -4 6 -8 0 -11 50 -11 149 0 136 2 150
19 154 19 5 45 -18 48 -43 1 -8 3 -41 5 -72 2 -32 9 -64 15 -72 16 -19 49 -16
54 5 2 9 18 19 34 22 64 13 80 64 43 138 -12 22 -18 44 -15 49 3 6 1 10 -5 10
-7 0 -9 8 -5 19 3 11 1 22 -5 26 -11 7 27 82 59 116 31 34 35 72 29 281 -1 15
-4 26 -7 23 -4 -2 -7 4 -8 13 0 9 -8 53 -16 97 -8 44 -12 82 -8 85 12 8 23 60
13 60 -5 0 -14 11 -20 25 -15 32 -15 38 -2 30 6 -3 7 1 4 9 -4 9 0 18 9 22 9
3 13 12 10 20 -3 8 1 14 8 14 7 0 10 3 6 6 -3 4 1 13 9 21 8 8 12 19 9 24 -4
5 -2 9 3 9 9 0 34 69 37 102 1 10 9 26 18 36 9 10 17 25 16 33 0 8 -4 6 -9 -6
-7 -16 -9 -17 -9 -3 -1 9 6 21 14 25 8 5 17 26 20 48 4 22 8 49 11 60 9 44 16
93 19 145 2 30 6 89 9 130 4 41 8 180 10 308 3 165 7 236 16 247 7 8 16 13 20
10 4 -2 17 6 29 19 29 31 9 46 -22 17 -12 -11 -45 -43 -73 -69 -29 -27 -54
-58 -56 -68 -2 -10 -10 -20 -18 -20 -8 -1 -18 -3 -22 -4 -5 -1 -12 -3 -17 -4
-5 0 -24 -18 -42 -38 -17 -21 -37 -38 -44 -38 -7 0 -20 -11 -28 -24 -23 -35
-48 -57 -57 -51 -4 3 -30 -16 -57 -42 -26 -26 -51 -47 -54 -46 -4 1 -15 -7
-25 -19 -11 -12 -13 -18 -6 -14 12 7 12 4 2 -14 -6 -12 -18 -19 -25 -16 -7 2
-42 -22 -77 -54 -35 -33 -66 -60 -70 -60 -4 0 -5 -7 -2 -15 4 -10 0 -15 -11
-15 -28 0 -145 -96 -145 -119 0 -6 -15 -17 -32 -24 -42 -18 -108 -75 -119
-104 -5 -13 -16 -23 -26 -23 -10 0 -30 -10 -44 -23 -15 -12 -42 -35 -60 -50
-28 -23 -31 -30 -19 -38 12 -9 11 -10 -6 -6 -13 3 -33 -5 -52 -22 -16 -14 -49
-42 -71 -61 -23 -19 -41 -40 -41 -47 0 -18 47 -16 54 2 3 8 18 15 33 15 22 0
25 -2 13 -10 -13 -8 -13 -13 3 -41 9 -17 14 -35 11 -41 -3 -5 1 -17 10 -27 9
-10 20 -36 23 -57 4 -21 12 -45 20 -52 7 -7 13 -21 13 -31 0 -10 14 -35 30
-57 17 -21 38 -54 47 -73 9 -20 23 -44 31 -53 8 -10 11 -18 6 -18 -5 0 1 -7
14 -15 30 -22 114 -11 131 17 7 11 8 18 3 14 -15 -9 -91 34 -112 64 -38 54
-39 53 120 50 102 -2 244 15 236 29 -7 11 108 1 133 -12 32 -15 77 -57 63 -57
-6 0 -9 -7 -6 -15 4 -9 11 -15 18 -14 23 4 47 -14 60 -46 25 -59 -8 -166 -69
-229 -31 -32 -38 -35 -56 -25 -16 8 -18 13 -9 19 9 6 7 10 -9 15 -11 3 -24 17
-27 29 -3 13 -18 30 -32 37 -15 8 -29 16 -32 20 -3 3 -13 -3 -22 -13 -10 -10
-13 -20 -8 -23 6 -4 10 -1 10 4 0 6 5 11 11 11 6 0 9 -6 6 -14 -3 -7 4 -21 14
-30 11 -9 17 -21 14 -26 -12 -20 15 -50 45 -50 30 0 36 -6 22 -26 -15 -22
-121 -73 -166 -79 -35 -6 -46 -11 -42 -22 3 -8 0 -13 -7 -12 -6 1 -25 -3 -41
-10 -16 -6 -61 -16 -100 -23 -39 -6 -102 -19 -139 -30 -38 -11 -83 -22 -100
-24 -18 -3 -47 -7 -65 -10 -28 -6 -34 -3 -39 15 -3 11 -9 21 -13 21 -14 0 -21
-33 -9 -41 13 -8 -39 -39 -66 -39 -8 0 -15 -3 -15 -8 0 -4 -17 -15 -39 -24
-21 -9 -46 -24 -55 -33 -9 -9 -16 -12 -16 -6 0 6 -12 11 -26 11 -19 0 -25 4
-21 14 3 8 -1 20 -9 27 -13 11 -15 7 -12 -27 2 -28 7 -39 20 -39 9 0 20 -4 24
-8 4 -4 2 -7 -4 -7 -7 0 -12 -9 -12 -20 0 -20 -14 -27 -23 -12 -2 4 -2 1 -1
-6 2 -6 -8 -28 -21 -48 -14 -20 -25 -42 -25 -49 0 -7 -11 -24 -25 -39 -13 -14
-24 -30 -24 -34 2 -23 -13 -102 -20 -102 -5 0 -7 -12 -5 -27 1 -15 -6 -45 -17
-67 -11 -23 -23 -68 -26 -101 -3 -33 -9 -62 -13 -65 -4 -3 -10 -21 -13 -40 -3
-19 -10 -55 -16 -79 -7 -24 -13 -55 -16 -70 -14 -96 -26 -146 -40 -161 -8 -9
-15 -21 -15 -27 0 -6 -7 -16 -15 -23 -9 -8 -15 -30 -15 -57 0 -62 -28 -143
-62 -177 -15 -15 -28 -36 -28 -45 0 -25 -38 -81 -56 -81 -11 0 -14 6 -9 20 5
14 2 20 -9 20 -9 0 -16 5 -16 11 0 8 -6 7 -17 -2 -15 -13 -16 -11 -10 12 5 19
3 26 -8 26 -8 0 -15 -5 -16 -11 -9 -99 -7 -142 7 -164 13 -20 14 -26 3 -33 -8
-5 -20 -9 -26 -9 -7 0 -13 -4 -13 -9 0 -20 -32 -42 -53 -35 -16 5 -19 3 -14
-10 4 -9 3 -16 -2 -16 -5 0 -11 19 -15 42 -4 23 -16 49 -27 59 -27 23 -22 63
9 67 33 5 30 51 -6 85 -16 15 -31 24 -35 21 -4 -4 -13 -2 -20 4 -15 13 -27 6
-27 -15 0 -7 8 -13 17 -13 14 0 13 -3 -5 -20 -12 -12 -22 -27 -22 -35 0 -8 -3
-15 -7 -15 -5 0 -9 -29 -10 -65 -2 -56 0 -67 17 -77 11 -7 20 -18 20 -24 0 -6
7 -17 15 -24 8 -7 15 -21 15 -31 0 -11 5 -19 10 -19 8 0 7 -4 0 -12 -5 -7 -20
-25 -31 -41 -22 -29 -44 -27 -36 4 9 32 -22 116 -49 134 -14 9 -31 14 -37 11
-7 -2 -4 -5 6 -5 21 -1 13 -21 -9 -21 -28 0 -27 30 1 54 30 26 26 44 -18 81
l-24 20 19 34 c30 53 65 82 38 30 -8 -13 -7 -19 0 -19 12 0 13 4 28 83 19 100
-19 160 -109 172 -39 6 -54 3 -68 -9 -10 -9 -24 -16 -32 -16 -14 0 -59 74 -59
98 0 6 -4 12 -10 12 -5 0 -10 20 -10 45 0 45 -5 51 -28 37 -8 -6 -10 -21 -6
-48 3 -21 6 -54 6 -71 0 -18 3 -33 7 -33 6 0 17 -23 42 -85 10 -24 14 -84 10
-137 -2 -20 -37 -4 -72 31 -38 38 -82 51 -95 29 -4 -6 -10 -5 -15 3 -14 24 -8
-82 7 -110 8 -14 14 -33 14 -42 0 -21 31 -34 40 -18 11 16 -11 66 -33 76 -17
8 -17 10 9 23 21 12 28 12 31 3 3 -7 11 -13 19 -13 8 0 14 -10 14 -22 0 -29 9
-42 38 -57 14 -7 21 -18 18 -26 -3 -9 7 -21 24 -31 29 -18 47 -54 27 -54 -7 0
-5 -5 3 -10 13 -8 12 -10 -4 -10 -10 0 -25 -8 -32 -17 -16 -21 -18 -37 -4 -28
5 3 3 -9 -5 -28 -18 -43 -24 -219 -7 -225 18 -6 15 -32 -4 -32 -8 0 -12 4 -9
10 3 5 -5 22 -19 37 -14 15 -23 30 -20 35 3 4 -2 11 -10 14 -19 7 -39 68 -31
94 4 11 2 20 -4 20 -6 0 -11 -8 -11 -18 0 -10 -3 -22 -7 -26 -5 -4 -13 -24
-18 -44 -6 -20 -15 -37 -20 -37 -6 0 -15 -3 -21 -7 -7 -5 -16 9 -24 35 -8 23
-20 49 -27 58 -7 8 -13 24 -13 34 0 25 49 107 60 100 12 -7 18 95 8 125 -16
46 -58 80 -97 80 -53 0 -111 -19 -111 -35 0 -8 -3 -15 -8 -15 -13 0 -36 -64
-37 -102 0 -30 -2 -34 -14 -25 -12 10 -13 9 -4 -8 11 -23 5 -105 -8 -105 -5 0
-9 -8 -9 -17 0 -14 -3 -13 -16 5 -8 12 -24 22 -35 22 -12 0 -19 7 -19 20 0 11
-4 20 -8 20 -13 0 -32 -69 -21 -76 12 -7 11 -44 -1 -44 -5 0 -10 -7 -10 -15 0
-8 4 -15 8 -15 5 0 22 -11 38 -25 16 -14 34 -26 39 -26 6 -1 19 -3 30 -4 11
-1 34 -4 50 -6 27 -4 30 -1 30 24 -1 15 5 27 12 27 7 0 17 9 23 20 20 38 46
24 58 -31 7 -28 12 -61 12 -74 0 -13 4 -25 10 -27 6 -2 6 -8 0 -18 -8 -13 -10
-12 -10 3 0 20 -13 22 -28 5 -11 -14 -110 -16 -132 -3 -8 5 -18 1 -27 -10 -7
-11 -13 -14 -13 -9 0 6 -10 10 -21 10 -12 -1 -24 5 -27 13 -3 9 0 11 8 6 9 -6
11 -4 6 4 -5 7 -10 10 -14 7 -3 -3 -10 2 -17 11 -6 8 -26 16 -43 17 -21 1 -31
5 -28 13 3 7 -1 10 -9 7 -8 -3 -17 -14 -20 -24 -5 -15 -13 -18 -43 -13 -50 7
-85 33 -98 73 -14 41 -33 50 -41 20 -3 -13 -11 -19 -19 -16 -8 3 -14 1 -14 -5
0 -6 -6 -7 -17 0 -10 5 -26 5 -40 0 -13 -5 -23 -5 -23 0 0 5 13 12 30 16 32 7
51 26 32 33 -28 9 -9 17 33 14 36 -3 45 -1 45 12 0 9 -6 16 -14 16 -16 0 -49
52 -60 93 -4 18 -11 25 -18 21 -7 -4 -1 7 11 25 13 18 34 37 47 43 13 6 24 17
24 24 0 11 9 10 47 -1 25 -8 50 -12 54 -10 9 6 -1 45 -11 45 -24 0 -40 35 -40
85 0 43 -5 59 -26 85 -32 38 -85 61 -123 54 -42 -9 -101 -67 -101 -101 -1 -24
-2 -25 -11 -10 -5 9 -7 22 -3 29 4 6 3 8 -3 5 -6 -4 -10 -18 -10 -33 0 -15 -9
-32 -22 -40 -11 -8 -21 -24 -21 -35 0 -24 9 -24 26 -1 12 15 13 13 14 -19 0
-23 -7 -42 -17 -50 -9 -8 -14 -9 -10 -2 9 14 -2 45 -13 38 -19 -12 8 -135 29
-135 6 0 7 -7 4 -17 -4 -10 -2 -14 4 -10 7 4 14 -4 17 -21 4 -15 17 -32 29
-37 12 -6 20 -14 19 -19 -2 -5 2 -13 10 -17 8 -6 1 -9 -23 -9 -19 0 -40 -5
-47 -12 -9 -9 -12 -9 -12 0 0 7 -11 12 -24 12 -14 0 -31 7 -40 15 -8 8 -18 15
-23 15 -4 0 -21 11 -37 25 -16 14 -33 25 -39 25 -5 0 -7 7 -3 15 3 9 0 15 -8
15 -8 0 -16 -5 -18 -12 -5 -14 -50 27 -61 55 -5 15 -4 16 13 7 26 -14 26 -14
26 25 0 27 -3 34 -15 30 -8 -3 -18 0 -23 7 -6 9 -7 5 -3 -9 9 -34 -11 -28 -27
7 -7 16 -19 30 -25 30 -7 0 -13 5 -13 10 0 6 -11 10 -25 10 -26 0 -33 14 -14
25 21 13 83 7 95 -9 6 -9 21 -16 33 -16 11 0 21 -5 21 -11 0 -6 6 -9 13 -6 6
2 18 -3 25 -12 8 -9 11 -11 8 -4 -4 6 -2 14 4 18 19 12 -26 47 -58 44 -17 -2
-36 3 -45 13 -22 22 -21 27 6 52 13 12 24 33 23 46 -1 20 4 23 44 26 25 3 64
9 88 14 24 6 47 8 53 5 5 -4 9 0 9 7 0 16 57 62 89 73 17 5 20 9 11 15 -10 6
-7 14 12 32 14 12 27 32 31 43 3 11 17 52 31 90 16 44 26 91 26 127 l0 58 48
24 c27 13 54 32 61 40 8 9 20 16 27 16 8 0 13 9 11 22 -1 16 6 25 27 32 22 8
30 8 33 -1 7 -19 31 7 26 27 -2 8 12 30 31 49 28 27 40 32 60 27 14 -3 26 -12
26 -19 0 -34 118 -75 135 -47 3 6 18 8 33 4 26 -5 26 -5 8 10 -11 9 -18 17
-15 19 2 1 23 19 47 40 34 30 50 37 85 37 71 0 152 68 163 137 5 37 9 43 31
43 18 0 24 4 19 15 -3 8 -1 15 4 15 6 0 10 7 10 15 0 8 3 15 8 15 4 0 16 15
26 34 10 19 25 37 32 40 27 10 16 61 -21 97 -19 19 -35 39 -35 45 0 5 27 32
61 60 33 27 69 57 81 66 19 17 22 17 49 1 16 -9 32 -13 36 -9 4 4 0 12 -10 17
-20 11 -23 55 -4 62 7 2 8 8 3 13 -5 5 -11 4 -13 -3 -3 -7 -10 -13 -17 -13 -7
0 -37 -25 -65 -55 -29 -30 -56 -55 -60 -55 -5 0 -15 -7 -22 -17 -8 -9 -33 -28
-56 -42 -23 -14 -127 -100 -233 -190 -180 -155 -190 -166 -185 -193 5 -21 3
-28 -9 -28 -8 0 -18 5 -21 10 -12 19 -26 10 -108 -70 -91 -88 -108 -104 -193
-175 -32 -27 -68 -59 -80 -71 -11 -12 -30 -25 -42 -28 -35 -11 -47 -33 -33
-62 16 -35 6 -61 -30 -80 -32 -16 -49 -12 -49 12 0 16 -21 19 -35 5 -6 -5 -32
-21 -60 -36 -27 -15 -55 -34 -62 -42 -12 -16 -38 -9 -28 8 4 5 34 28 68 51 61
41 77 55 77 71 0 21 -42 0 -100 -49 -36 -31 -100 -83 -142 -116 -76 -59 -91
-77 -65 -78 19 -1 92 -97 92 -122 0 -41 -88 -37 -98 5 -4 12 -25 45 -49 74
-24 28 -56 68 -73 88 -16 21 -65 80 -107 131 -56 66 -76 98 -72 111 5 14 4 15
-4 4 -8 -12 -16 -8 -39 19 -15 18 -34 43 -42 54 -8 12 -18 23 -21 26 -3 3 -19
23 -36 45 -16 22 -38 48 -49 57 -16 13 -18 19 -7 29 8 9 12 10 12 1 0 -6 12
-23 26 -37 25 -25 25 -25 19 -3 -4 13 -14 29 -23 36 -14 11 -14 12 2 12 9 0
39 -20 65 -45 47 -44 71 -56 71 -35 0 6 3 9 8 8 15 -3 63 15 55 21 -6 3 -15
21 -21 39 -10 28 -9 35 9 53 18 18 21 18 49 4 26 -13 29 -20 23 -43 -7 -30
-10 -32 70 32 26 21 51 35 55 32 8 -8 -64 -77 -143 -138 -57 -43 -114 -97
-104 -99 2 0 12 -2 23 -4 10 -2 36 -21 57 -41 l39 -38 36 17 c29 14 35 22 31
38 -8 29 8 66 31 73 21 7 86 -17 75 -27 -3 -4 0 -7 8 -7 8 0 39 17 70 38 52
35 55 40 38 50 -11 7 -19 19 -19 27 0 9 -10 15 -25 15 -18 0 -25 5 -25 20 0
11 -2 20 -5 20 -13 0 -73 -36 -123 -72 -29 -22 -60 -38 -69 -36 -10 2 21 30
81 75 71 52 93 74 83 80 -18 11 -37 47 -37 72 0 11 -8 21 -17 23 -11 2 -14 6
-7 10 5 4 34 -11 62 -33 60 -44 68 -46 96 -20 12 10 35 27 51 36 24 15 20 8
-19 -32 -47 -50 -48 -51 -25 -58 13 -4 26 -10 29 -14 26 -31 141 -53 156 -29
3 4 12 8 20 8 9 0 12 -5 8 -11 -11 -19 39 11 73 44 18 16 29 35 26 41 -3 6 -2
8 2 3 10 -9 37 8 134 85 40 33 76 56 79 53 6 -6 -128 -132 -197 -185 -25 -19
-63 -50 -83 -69 -21 -18 -47 -40 -58 -48 -24 -17 -26 -43 -3 -43 9 0 25 -8 36
-17 18 -17 20 -17 41 10 35 43 58 33 80 -35 3 -10 -5 -30 -20 -48 -30 -35 -17
-40 21 -7 34 29 37 65 13 150 -26 96 -21 111 21 69 30 -30 37 -32 57 -22 12 7
25 23 28 36 4 13 13 24 20 24 12 0 72 24 119 48 4 2 7 -3 7 -12 0 -30 51 -18
107 24 29 23 53 46 53 52 0 7 -10 22 -21 34 -12 13 -19 30 -16 38 9 24 24 19
44 -14 9 -17 20 -30 23 -30 4 0 62 48 131 107 68 58 148 127 178 152 29 25 67
58 84 72 l31 27 -20 27 c-10 15 -24 37 -31 49 -10 16 -23 21 -60 22 -71 2 -73
3 -73 18 0 15 -80 26 -186 26 -35 0 -64 4 -64 10 0 5 -7 7 -16 3 -8 -3 -25 4
-39 17 -13 12 -28 19 -34 15 -6 -3 -11 -2 -11 3 0 5 -20 10 -45 10 -24 1 -57
7 -72 14 -15 6 -35 13 -43 13 -8 1 -22 3 -30 4 -8 0 -30 14 -49 30 -19 17 -37
29 -40 29 -19 -2 -70 16 -65 23 3 5 -3 9 -12 9 -10 0 -25 6 -33 14 -32 29
-308 87 -344 73 -10 -4 -12 -17 -8 -48 9 -63 57 -93 174 -108 94 -11 174 -45
252 -106 73 -58 213 -118 374 -161 73 -20 111 -48 111 -84 0 -72 -88 -102
-134 -46 -19 24 -28 28 -59 24 -20 -2 -37 0 -37 5 0 5 -9 7 -20 4 -11 -3 -23
-1 -26 4 -3 5 -23 9 -45 9 -21 0 -39 5 -39 10 0 6 -9 10 -21 10 -11 0 -17 4
-14 10 4 6 -1 7 -11 3 -13 -5 -15 -2 -10 13 4 15 -2 24 -24 37 -17 10 -30 22
-30 26 0 5 -17 12 -37 16 -21 4 -42 10 -48 13 -5 4 -14 7 -20 7 -24 1 -115 30
-115 36 0 4 -13 15 -30 23 -16 9 -43 23 -60 32 -16 8 -30 20 -30 25 0 5 -7 9
-15 9 -8 0 -19 8 -24 18 -5 9 -36 30 -68 45 -32 16 -70 35 -85 43 -14 8 -33
14 -42 14 -9 0 -16 7 -16 15 0 22 -18 18 -25 -5 -4 -11 -11 -18 -16 -15 -5 4
-9 1 -9 -4 0 -6 -9 -11 -20 -11 -18 0 -100 90 -100 111 0 5 -6 9 -14 9 -9 0
-12 7 -9 20 3 12 -1 22 -11 26 -9 3 -16 12 -16 20 0 8 -4 14 -9 14 -5 0 -7 10
-5 23 2 12 1 16 -2 8 -5 -9 -11 -3 -21 20 -13 30 -12 35 3 46 28 21 38 16 97
-42 57 -56 79 -65 110 -41 16 13 13 17 -38 50 -63 42 -122 69 -138 63 -7 -2
-18 2 -25 10 -8 7 -18 11 -23 8 -5 -4 -6 1 -3 9 4 10 1 16 -9 16 -19 0 -67 60
-67 83 0 28 49 57 99 57 42 1 44 2 27 15 -10 8 -23 12 -28 9 -4 -3 -11 2 -14
10 -8 20 171 213 311 337 97 86 202 153 275 174 38 12 150 -1 150 -16 0 -5 8
-9 18 -9 14 -1 57 -23 135 -70 11 -7 17 -7 17 0 0 5 8 10 18 10 38 0 54 39 27
66 -21 21 -19 31 10 50 14 9 25 25 25 35 0 10 10 25 22 33 17 12 19 16 6 21
-8 3 -15 18 -16 33 -1 15 -5 52 -9 82 -9 57 1 95 32 120 11 9 18 7 34 -9 20
-20 20 -20 26 0 4 11 2 25 -3 32 -13 16 -43 109 -34 103 5 -3 27 -7 50 -9 50
-6 56 10 17 41 -14 11 -25 24 -25 30 0 17 56 34 113 35 22 0 26 3 22 18 -8 23
8 25 28 4 12 -11 17 -12 20 -2 3 7 6 5 6 -5 1 -10 6 -18 12 -18 5 0 8 -4 5 -9
-9 -13 23 -36 34 -25 7 7 0 24 -18 50 -35 47 -44 71 -32 79 14 9 12 97 -3 115
-7 8 -25 23 -40 33 -15 10 -25 22 -22 26 3 5 -2 11 -10 15 -8 3 -15 13 -15 23
1 17 1 17 14 1 7 -10 18 -18 24 -18 6 0 12 -5 14 -12 2 -6 15 -12 29 -13 20
-1 26 -9 33 -43 7 -28 15 -42 26 -42 9 0 21 -5 28 -12 14 -14 16 -42 2 -33 -6
3 -15 -6 -20 -20 -13 -34 -13 -38 2 -29 8 5 9 2 5 -9 -5 -12 2 -18 28 -23 19
-3 35 -10 35 -14 0 -14 82 -29 102 -19 10 5 18 11 18 13 0 8 -37 43 -52 49
-27 10 -22 30 5 22 12 -4 30 -9 39 -11 40 -11 40 9 1 50 -22 23 -61 63 -87 90
-34 35 -51 47 -66 43 -11 -3 -20 -1 -20 4 0 5 5 9 11 9 5 0 7 5 4 10 -4 6 -11
8 -16 4 -6 -3 -13 4 -16 16 -4 15 -11 20 -23 17 -19 -5 -84 46 -73 57 4 3 -3
6 -15 6 -29 0 -66 -31 -49 -42 8 -5 7 -8 -5 -8 -9 0 -20 4 -23 10 -4 6 -40 8
-91 4 -59 -3 -84 -2 -79 5 7 12 -9 14 -52 5 -25 -5 -29 -10 -25 -29 3 -17 -2
-25 -17 -30 -23 -7 -29 -24 -8 -26 6 -1 1 -4 -12 -8 -18 -5 -31 -1 -49 16 -14
13 -31 23 -39 23 -21 0 -74 -40 -68 -51 4 -5 -4 -9 -17 -9 -14 0 -33 -7 -44
-15 -20 -15 -84 -21 -84 -7 0 5 -9 19 -20 32 -11 13 -20 29 -20 37 0 7 -9 13
-20 13 -17 0 -18 -3 -9 -27 6 -16 10 -30 9 -33 -1 -2 6 -7 16 -10 12 -5 14 -9
6 -14 -6 -4 -21 -2 -32 4 -16 9 -19 8 -13 -6 4 -10 2 -15 -3 -12 -5 4 -43 2
-84 -3 -113 -14 -125 -15 -128 -5 -2 5 9 16 25 25 15 9 31 20 34 24 3 4 13 5
22 1 10 -3 17 -1 17 5 0 6 14 11 32 11 17 0 29 3 25 6 -11 11 17 30 65 43 25
7 52 11 60 9 7 -3 22 4 32 14 11 10 27 18 36 17 8 -1 31 1 50 5 19 3 53 8 75
10 22 3 58 10 80 16 22 6 68 11 102 10 36 -1 74 5 90 13 15 8 39 18 53 22 24
7 24 7 5 -9 -11 -8 -15 -16 -9 -16 6 0 17 6 23 14 7 8 26 14 44 14 17 -1 32 3
34 8 2 5 36 8 76 6 46 -2 67 0 59 6 -11 7 -7 11 13 16 14 4 30 4 36 1 5 -4 12
1 15 9 3 9 10 16 16 16 5 0 7 -4 3 -9 -3 -5 -1 -12 4 -15 5 -3 11 0 14 8 3 7
18 14 33 14 16 0 30 5 32 11 2 6 12 11 23 11 10 0 19 5 19 10 0 6 7 10 15 10
28 0 180 54 188 67 4 7 14 13 21 13 8 0 16 7 20 15 3 8 12 15 20 15 8 0 22 9
30 21 8 12 19 18 24 15 6 -3 17 1 26 10 9 8 20 13 25 10 16 -10 40 5 34 20 -3
8 -2 14 3 12 5 -1 20 4 33 11 14 8 21 9 17 2 -12 -18 -1 -13 35 20 21 19 33
38 31 50 -2 14 3 19 18 19 11 0 23 7 26 15 6 14 8 13 19 -2 8 -10 10 -24 5
-33 -11 -23 4 -130 21 -141 8 -5 23 -9 34 -10 11 0 14 -3 7 -6 -8 -3 1 -18 27
-45 22 -22 43 -48 46 -59 7 -20 25 -27 25 -9 0 6 -4 10 -10 10 -5 0 -7 17 -4
39 4 30 2 40 -11 45 -9 3 -13 10 -10 16 3 5 0 10 -8 10 -7 0 -14 7 -14 15 0 8
7 15 16 15 11 0 11 3 -4 14 -42 30 -7 126 50 137 17 4 20 12 20 54 0 46 2 50
25 53 49 6 54 11 36 31 -21 23 -68 34 -78 18 -5 -8 -9 -5 -14 7 -8 22 9 40 58
60 l37 16 17 -35 c9 -19 23 -35 30 -35 8 0 14 -9 14 -20 0 -11 7 -20 15 -20 8
0 15 8 15 18 0 14 2 14 9 3 15 -23 1 -41 -30 -41 -35 0 -35 -1 -7 -44 24 -36
28 -37 156 -27 7 1 1 11 -14 25 -27 23 -28 23 -47 5 -11 -10 -23 -16 -27 -14
-10 6 -19 53 -11 61 3 3 6 9 7 12 0 4 4 14 8 23 10 22 5 39 -23 78 -17 24 -20
33 -9 29 11 -5 7 9 -13 50 -23 48 -26 59 -14 71 7 7 18 10 25 6 8 -5 6 -11 -7
-21 -16 -12 -14 -13 25 -14 23 0 42 -4 42 -10 0 -5 6 -10 14 -10 8 0 18 -9 21
-20 3 -11 13 -20 21 -20 8 0 13 -4 10 -9 -4 -5 7 -15 24 -23 16 -7 30 -16 30
-20 0 -5 7 -8 15 -8 22 0 18 13 -10 40 -16 15 -22 27 -16 33 12 12 31 0 25
-16 -2 -7 4 -13 16 -14 24 -2 25 1 4 32 -9 14 -25 25 -36 25 -15 0 -19 6 -16
26 2 15 11 32 20 38 14 8 28 0 76 -44 64 -59 77 -82 87 -147 4 -24 11 -45 16
-49 5 -3 7 -9 4 -14 -3 -4 3 -7 13 -6 13 1 16 -6 14 -31 -2 -17 1 -34 7 -38 6
-3 11 0 11 7 0 9 3 9 10 -2 6 -9 6 -18 0 -24 -17 -17 -11 -36 11 -36 18 0 20
5 16 56 -2 31 -9 59 -14 63 -6 3 -19 43 -29 89 -10 45 -22 82 -26 82 -4 0 -8
5 -8 10 0 6 18 10 40 10 22 0 40 5 40 10 0 6 -9 10 -20 10 -11 0 -20 7 -20 15
0 8 -8 15 -18 15 -26 0 -34 -11 -21 -27 9 -10 7 -13 -6 -13 -10 0 -35 18 -57
40 -25 24 -50 40 -64 40 -15 0 -24 6 -24 15 0 8 -6 15 -14 15 -8 0 -17 7 -20
15 -3 9 -14 15 -23 13 -13 -2 -19 5 -21 22 -2 13 -11 34 -19 45 -12 16 -14 16
-10 3 4 -12 1 -18 -8 -18 -7 0 -17 -9 -20 -20 -7 -22 -10 -23 -40 -10 -11 5
-14 9 -7 9 6 1 12 7 12 14 0 8 9 22 20 32 11 10 20 22 20 28 0 5 9 22 21 38
19 27 22 28 42 14 13 -8 29 -32 36 -52 8 -21 19 -41 25 -45 16 -11 56 -10 56
2 0 6 -5 10 -10 10 -7 0 -7 6 0 19 7 14 6 21 -3 25 -8 4 -9 8 -1 11 14 7 9 71
-6 91 -10 11 -10 14 1 14 10 0 10 3 1 12 -21 21 -13 28 33 28 54 0 57 11 10
39 -33 19 -48 51 -24 51 6 0 9 9 6 20 -4 15 0 20 14 20 13 0 19 7 20 23 0 21
1 21 9 2 13 -30 12 -35 -7 -35 -12 -1 -9 -6 12 -17 16 -9 43 -32 60 -51 16
-19 38 -44 48 -54 9 -10 17 -25 17 -33 0 -26 39 -18 46 10 3 14 10 25 14 25 5
0 15 3 23 6 10 4 16 -4 21 -25 3 -17 9 -44 12 -61 5 -25 11 -30 36 -30 25 0
29 4 26 22 -2 15 2 23 12 23 8 0 16 10 18 23 4 25 15 28 34 9 7 -8 20 -16 28
-20 9 -3 10 -6 3 -6 -17 -1 -17 -31 0 -31 9 0 14 -17 15 -56 1 -36 8 -64 20
-82 11 -15 22 -34 26 -42 3 -8 4 -2 2 14 -2 16 3 51 10 77 8 27 12 60 10 73
-3 14 0 28 5 32 6 3 -3 17 -18 31 -15 14 -41 37 -56 52 -23 21 -30 23 -37 11
-7 -12 -17 -10 -59 10 -28 13 -51 27 -51 32 0 4 -7 8 -15 8 -38 0 -78 84 -45
95 21 7 86 -28 118 -64 28 -31 67 -34 67 -6 0 34 46 31 80 -5 16 -16 33 -30
38 -30 15 0 57 -37 50 -44 -3 -3 1 -6 10 -6 10 0 17 -8 17 -20 0 -15 7 -20 25
-20 18 0 23 -4 19 -15 -4 -8 -1 -15 5 -15 6 0 11 -8 11 -17 0 -14 -2 -15 -9
-4 -5 8 -14 10 -22 5 -7 -4 -30 -7 -51 -5 -40 2 -48 -8 -23 -29 11 -9 14 -23
10 -44 -6 -29 -5 -30 10 -12 15 19 15 19 15 -2 0 -13 -7 -25 -15 -28 -10 -4
-13 -13 -10 -25 5 -13 1 -19 -10 -19 -11 0 -15 -5 -11 -15 7 -20 -37 -68 -51
-54 -5 5 -20 11 -32 12 -11 1 -21 5 -21 9 0 4 -11 8 -24 8 -14 0 -28 5 -32 11
-3 6 -21 17 -38 25 -76 35 -165 99 -166 120 0 7 -17 15 -37 19 -21 4 -43 15
-51 26 -7 11 -18 17 -23 14 -5 -3 -21 5 -36 19 -32 30 -43 32 -43 10 0 -8 -4
-13 -9 -10 -5 4 -5 -9 1 -26 20 -61 38 -98 48 -98 5 0 10 -7 10 -15 0 -8 5
-15 12 -15 6 0 8 -3 5 -7 -11 -10 14 -33 35 -33 11 0 22 -9 25 -20 3 -11 10
-20 16 -20 6 0 24 -12 39 -27 22 -21 28 -23 28 -10 0 9 -8 17 -17 17 -12 0
-14 3 -7 10 13 13 5 70 -10 71 -6 0 -2 4 9 8 29 11 51 3 64 -25 6 -13 15 -24
21 -24 21 0 2 -46 -24 -59 -21 -10 -25 -16 -16 -25 8 -8 16 -5 30 14 17 21 21
23 30 10 5 -8 10 -10 10 -5 1 6 6 -1 11 -15 8 -19 7 -27 -5 -36 -18 -13 -11
-24 16 -24 11 0 18 -7 18 -19 0 -11 5 -23 10 -26 6 -4 8 -10 5 -15 -3 -5 4
-11 15 -15 11 -3 20 -11 20 -16 0 -5 7 -9 15 -9 8 0 15 -6 15 -13 0 -8 11 -19
25 -25 32 -15 38 -15 30 -2 -8 12 13 52 24 45 5 -2 7 -31 5 -64 -2 -33 0 -62
5 -65 14 -9 -10 -51 -35 -63 -18 -8 -21 -7 -17 7 7 26 -85 103 -113 96 -13 -4
-26 -2 -29 4 -3 5 1 10 9 10 21 0 20 20 -1 36 -21 16 -53 18 -53 4 0 -5 -6
-10 -14 -10 -10 0 -14 9 -13 27 2 22 -3 29 -19 31 -35 5 -29 -45 7 -63 15 -8
34 -15 41 -15 7 -1 22 -13 33 -27 11 -14 30 -36 43 -48 12 -12 22 -28 22 -34
0 -6 14 -14 30 -17 17 -4 30 -11 30 -16 0 -6 -10 -7 -22 -4 -13 4 -41 9 -62
11 -62 7 -74 14 -81 45 -5 23 -12 30 -30 30 -46 0 -48 -24 -5 -69 22 -22 40
-45 40 -50 0 -5 8 -11 17 -13 10 -2 18 -12 18 -25 0 -13 5 -22 10 -20 6 1 9 8
9 15 -3 19 57 13 91 -9 17 -10 35 -20 40 -22 73 -27 129 -35 139 -18 7 11 -70
75 -101 85 -33 11 -28 26 8 26 32 0 79 -40 79 -68 0 -7 8 -16 18 -19 21 -8 36
-23 44 -44 8 -19 67 -14 75 7 3 8 9 14 14 14 4 0 28 14 52 30 54 36 71 39 31
5 -16 -14 -23 -25 -16 -25 18 0 63 36 55 43 -3 4 3 10 13 14 21 7 161 111 190
140 9 10 28 25 40 33 32 21 171 128 197 152 12 11 46 37 75 59 52 39 52 40 52
95 0 73 18 240 31 284 10 33 38 158 60 265 13 61 24 75 58 75 14 0 32 4 39 9
22 13 16 86 -14 169 -26 74 -28 112 -4 112 5 0 31 -28 58 -62 81 -106 104
-129 212 -215 77 -62 124 -91 182 -113 l78 -30 82 63 c46 35 97 76 113 91 17
16 50 42 75 59 25 17 72 53 104 81 33 28 69 58 82 66 27 18 283 217 338 263
21 17 67 52 101 77 83 60 269 211 273 221 6 14 -69 22 -108 10 -53 -16 -68
-14 -75 10 -6 19 -24 29 -103 61 l-33 13 6 58 c5 36 3 68 -4 86 -14 34 -64 65
-91 56 -26 -8 -74 38 -67 65 5 20 -44 75 -162 180 -28 25 -53 53 -57 63 -3 10
-15 17 -29 17 -15 0 -32 11 -45 30 -12 17 -28 30 -37 30 -11 0 -14 7 -11 25 4
16 -2 33 -14 47 -11 13 -22 35 -25 50 -3 16 -9 28 -14 28 -5 0 -9 5 -9 10 0
12 -57 70 -69 70 -11 0 -58 99 -66 138 -2 12 -7 28 -12 35 -4 6 -8 18 -10 26
-1 8 -8 28 -17 45 -8 17 -26 57 -41 88 -38 84 -99 142 -163 158 -39 9 -64 23
-99 58 -50 49 -115 127 -122 146 -2 6 -10 15 -17 19 -8 4 -14 14 -14 22 0 7
-4 15 -8 17 -10 4 -102 137 -102 147 0 5 -9 20 -20 33 -10 14 -16 28 -13 32 3
3 1 6 -5 6 -7 0 -12 6 -12 14 0 8 -7 21 -15 30 -9 8 -15 18 -15 21 0 3 -9 27
-21 53 -12 26 -23 49 -24 52 -1 3 -7 18 -13 33 -7 16 -12 35 -12 43 0 8 -3 14
-7 14 -5 0 -17 18 -27 40 -11 22 -53 73 -94 113 -96 94 -94 92 -114 103 -9 5
-43 34 -75 65 -65 63 -114 91 -211 121 -37 11 -69 23 -72 27 -4 6 -76 31 -107
37 -7 1 -34 9 -60 18 -79 26 -193 47 -276 51 -76 4 -183 29 -201 46 -6 5 -17
9 -26 9 -22 0 -59 37 -131 134 -58 78 -78 107 -85 129 -4 9 -10 17 -15 17 -5
0 -9 5 -9 11 0 6 -10 25 -23 42 -23 31 -35 83 -16 72 5 -4 9 1 9 10 0 9 5 13
10 10 6 -3 10 -2 10 3 0 5 12 17 26 27 18 12 24 13 20 4 -4 -8 13 9 39 36 25
28 50 49 55 48 5 -2 7 4 4 12 -5 11 -2 13 10 9 12 -5 15 -2 9 12 -4 11 -3 15
4 11 6 -4 19 6 29 21 9 15 25 33 33 40 13 11 13 12 1 7 -8 -4 -6 1 5 10 11 9
19 23 17 31 -2 8 6 27 17 43 22 30 51 128 51 171 0 14 8 38 19 53 10 15 16 38
14 51 -3 13 2 30 12 40 9 9 14 23 11 31 -3 8 -1 17 4 20 5 3 7 12 4 20 -3 7 3
22 13 33 10 10 19 25 21 33 2 8 7 15 12 17 4 2 6 22 3 45 -3 31 -2 38 6 27 7
-9 11 -10 11 -3 0 6 -4 15 -10 18 -5 3 -10 12 -10 18 0 8 3 8 9 -1 6 -10 10
-9 14 7 3 12 1 19 -4 15 -5 -3 -9 4 -9 15 0 12 5 21 11 21 5 0 8 4 5 8 -3 5
-6 29 -7 54 -2 35 -6 45 -17 41 -10 -4 -11 -8 -2 -13 9 -5 6 -10 -9 -15 -29
-9 -44 3 -38 31 2 13 0 21 -4 18 -12 -7 -59 45 -59 67 0 13 -25 71 -47 108 -1
1 -12 -4 -25 -13 -26 -18 -38 -20 -38 -6 0 6 9 10 20 10 11 0 26 12 34 28 8
16 22 34 30 41 28 23 20 44 -14 38 -34 -7 -92 2 -85 13 2 4 -9 21 -26 38 -31
32 -53 33 -76 4 -7 -9 -13 -13 -13 -9 0 3 -16 -1 -35 -9 -44 -18 -65 -18 -65
1 0 8 -4 15 -10 15 -5 0 -10 9 -10 21 0 13 -4 18 -12 13 -8 -5 -9 5 -5 35 5
41 5 42 -14 25 -10 -9 -16 -20 -14 -24 3 -4 -2 -13 -10 -20 -20 -17 -19 -85 2
-121 12 -20 28 -31 53 -35 79 -12 98 -34 61 -68 -18 -16 -21 -16 -51 -1 -30
16 -76 12 -65 -5 3 -5 -4 -24 -15 -42 l-19 -32 -11 29 c-9 27 -15 30 -60 32
-34 2 -49 -1 -44 -8 4 -7 -14 -10 -57 -8 -39 1 -76 -3 -94 -11 -34 -16 -121
-98 -117 -111 1 -5 -8 -9 -20 -9 -14 0 -18 -3 -12 -8 7 -4 -17 -8 -52 -9 -35
-2 -64 1 -64 5 0 4 -12 9 -27 10 -37 2 -103 32 -129 57 -11 11 -31 38 -44 60
-13 22 -27 42 -30 45 -3 3 -7 21 -9 41 -1 25 2 38 13 42 12 5 13 11 4 35 -10
25 -9 33 5 47 19 19 21 31 7 40 -5 3 -6 15 -1 28 6 15 2 32 -11 55 -11 20 -16
42 -12 54 4 14 0 21 -14 25 -20 5 -42 41 -42 68 0 21 -18 19 -23 -2 -3 -10 -5
-4 -6 13 0 18 -7 34 -16 38 -8 3 -15 11 -15 18 0 16 -38 52 -65 62 -17 6 -18
8 -4 16 13 8 18 39 8 60 -2 4 -3 20 -8 71 0 9 -9 16 -18 15 -27 -2 -23 92 5
114 15 13 19 26 16 57 -2 26 4 54 16 79 11 21 20 46 20 56 0 10 5 18 10 18 6
0 3 14 -6 31 -14 28 -14 33 -1 46 8 9 27 16 42 16 19 0 23 2 14 8 -8 5 -9 9
-4 10 6 1 15 3 20 4 6 2 15 3 20 4 6 1 3 6 -5 11 -11 7 -6 8 18 5 24 -3 39 3
59 21 14 13 35 24 46 24 14 0 17 3 9 13 -7 9 0 20 28 42 20 17 52 50 71 74 19
24 48 60 66 80 63 72 109 128 133 164 14 20 29 37 33 37 5 0 6 8 2 19 -5 15 2
20 37 26 75 14 92 13 125 -12 30 -22 31 -24 17 -51 -7 -15 -14 -33 -14 -39 0
-7 -3 -13 -7 -13 -10 0 -10 -91 0 -107 5 -8 4 -13 -3 -13 -6 0 -8 -10 -5 -22
3 -13 7 -34 9 -48 8 -45 41 -106 74 -136 61 -56 202 -113 283 -114 14 0 39 12
57 28 17 16 44 35 59 43 31 16 62 48 63 65 0 7 -13 14 -29 16 -24 3 -29 1 -26
-14 3 -15 -3 -18 -44 -18 -26 0 -53 6 -60 13 -11 10 -13 9 -7 -3 6 -12 5 -12
-6 1 -7 9 -19 14 -27 11 -9 -3 -11 0 -6 8 5 9 4 11 -3 6 -15 -9 -54 12 -47 25
4 5 1 8 -6 7 -7 -2 -13 2 -14 9 0 6 -4 15 -9 20 -5 5 -6 3 -2 -4 4 -8 2 -13
-5 -13 -8 0 -9 11 -5 33 4 20 3 27 -3 18 -12 -18 -48 -6 -66 23 -12 18 -14 42
-10 102 3 43 10 81 15 82 6 2 10 12 10 22 0 9 7 23 15 30 8 7 15 18 15 24 0
15 89 116 102 116 9 0 -16 -33 -53 -67 -9 -9 -14 -25 -11 -39 4 -20 10 -24 43
-24 33 0 40 4 45 25 3 14 12 25 20 25 16 0 19 -17 3 -22 -5 -2 -7 -11 -3 -21
4 -12 10 -15 19 -7 6 5 14 7 18 4 3 -3 3 2 1 13 -6 22 32 67 48 57 7 -4 8 -2
4 5 -4 6 -11 9 -15 6 -5 -2 -6 7 -3 20 2 14 11 25 18 25 17 0 18 -38 3 -77
-21 -51 -16 -76 17 -85 16 -4 35 -6 43 -3 9 4 11 0 7 -10 -4 -12 0 -14 22 -9
15 4 31 11 37 15 13 13 133 11 140 -2 4 -5 18 -15 32 -20 17 -6 23 -14 19 -25
-4 -10 -2 -13 6 -8 7 5 9 2 5 -8 -3 -9 1 -24 9 -35 14 -17 14 -16 4 7 -11 24
-10 24 5 5 8 -11 13 -25 11 -32 -3 -7 -2 -13 2 -13 4 0 19 -33 32 -72 13 -40
28 -77 33 -83 12 -14 -3 122 -18 171 -12 35 -11 47 1 80 8 21 17 47 21 57 3 9
9 17 13 17 13 0 17 33 8 59 -7 19 -5 22 7 17 10 -3 15 0 15 11 0 22 69 105 84
100 6 -2 19 0 29 5 12 6 17 5 17 -7 0 -8 5 -15 10 -15 14 0 3 -67 -16 -97 -17
-26 -17 -33 -4 -33 10 0 42 55 46 80 14 78 28 129 39 146 13 20 12 21 -4 17
-10 -3 -22 0 -25 6 -7 11 6 15 33 12 7 -2 10 2 6 8 -3 6 -23 11 -44 11 -38 0
-61 14 -61 38 0 8 -9 27 -20 42 -16 22 -21 49 -25 120 -4 86 -7 95 -45 156
-22 35 -40 68 -40 73 0 5 -7 11 -15 14 -8 4 -12 15 -10 27 2 11 1 19 -3 16 -4
-2 -15 12 -25 32 -18 37 -54 62 -89 62 -10 0 -39 20 -66 45 -26 25 -51 45 -57
45 -5 0 -10 -21 -10 -47 0 -41 -3 -48 -21 -51 -12 -2 -38 6 -58 17 -20 12 -48
21 -61 21 -14 0 -25 5 -25 11 0 5 -4 7 -10 4 -5 -3 -10 -1 -10 6 0 6 -8 9 -19
6 -13 -3 -21 1 -24 14 -3 13 -14 19 -31 19 -14 0 -26 5 -26 10 0 6 -11 10 -24
10 -32 0 -86 20 -86 32 0 5 -26 7 -67 3 -52 -5 -75 -3 -98 9 -16 9 -45 19 -62
22 -18 3 -33 10 -33 15 0 12 -77 11 -85 -1z m-1087 -1686 c13 -9 30 -31 38
-50 8 -19 19 -32 24 -29 5 3 12 -7 15 -22 4 -15 10 -37 15 -48 9 -22 30 -108
30 -124 0 -6 -10 -11 -21 -11 -18 0 -19 -2 -9 -15 7 -9 10 -18 6 -22 -10 -10
-18 4 -20 36 -1 16 -5 33 -9 37 -4 4 -7 20 -7 36 0 49 -22 119 -45 144 -25 27
-72 48 -100 45 -19 -3 -19 -2 -2 17 14 15 15 21 5 26 -7 3 3 4 21 1 19 -3 46
-12 59 -21z m-171 -106 c12 -46 9 -123 -7 -173 -5 -16 -11 -41 -14 -55 -7 -42
-18 -70 -27 -70 -9 0 -15 120 -12 211 2 44 31 129 43 129 3 0 11 -19 17 -42z
m130 -34 c9 4 17 -1 20 -14 3 -11 9 -20 14 -20 5 0 9 -11 9 -24 0 -14 5 -28
10 -31 19 -12 10 -33 -20 -45 -34 -14 -36 -19 -15 -46 8 -10 15 -26 15 -35 0
-9 7 -23 16 -30 14 -11 16 -27 11 -90 -6 -72 -5 -79 18 -103 13 -14 28 -26 34
-26 14 0 19 31 8 60 -10 29 0 137 14 146 5 3 18 2 29 -1 17 -6 20 -15 20 -74
0 -78 -9 -133 -20 -126 -4 3 -7 -2 -6 -11 1 -18 -12 -28 -59 -45 -16 -6 -24
-13 -17 -16 6 -3 12 -11 12 -19 0 -9 5 -12 10 -9 6 3 10 -1 10 -10 0 -9 -4
-14 -9 -10 -6 3 -7 -6 -2 -22 4 -16 5 -36 3 -46 -3 -17 -5 -17 -20 -3 -136
126 -140 133 -65 124 35 -4 35 -4 15 13 -12 9 -18 19 -15 23 4 3 -5 6 -18 6
-19 0 -21 2 -9 10 8 5 11 10 5 11 -5 1 -14 2 -20 4 -5 1 -29 3 -53 3 -41 2
-42 3 -35 30 10 36 7 92 -6 105 -22 22 -3 162 25 198 7 8 15 29 19 48 4 18 16
42 26 52 10 10 20 27 20 37 1 15 2 15 6 -1 3 -12 10 -16 20 -13z m1403 -1169
c16 -20 37 -19 48 1 6 11 14 14 23 8 8 -4 27 -7 44 -6 16 2 47 -4 67 -12 44
-19 51 -20 43 -6 -9 15 18 12 40 -4 11 -8 24 -13 30 -12 5 2 7 1 4 -1 -4 -2
-5 -12 -2 -22 4 -17 -1 -18 -51 -16 -35 3 -56 0 -56 -7 0 -7 -4 -7 -13 1 -8 6
-17 8 -20 4 -12 -12 -7 -21 14 -26 17 -5 20 -11 15 -31 -4 -15 -1 -27 7 -30 6
-3 1 -3 -12 0 -13 3 -30 7 -37 8 -7 1 -17 5 -20 9 -13 13 -62 7 -78 -8 -18
-19 -40 -20 -33 -1 9 22 -36 41 -63 26 -12 -7 -36 -9 -52 -6 -27 5 -30 4 -25
-14 3 -11 1 -20 -3 -20 -5 0 -15 -3 -24 -6 -12 -4 -16 0 -16 16 0 12 -13 34
-30 49 l-30 26 19 32 c23 37 92 57 144 42 34 -10 72 -11 50 -2 -15 5 -18 23
-4 23 5 0 14 -7 21 -15z m400 -85 c18 -11 17 -118 -2 -161 -14 -32 -13 -31
-48 -31 -57 -1 -63 1 -50 17 10 12 10 15 -4 15 -9 0 -16 7 -16 16 0 13 -3 14
-14 5 -11 -9 -13 -6 -13 15 0 15 -8 31 -17 36 -23 13 -3 38 30 38 13 0 24 4
24 9 0 5 13 12 29 16 16 3 35 13 42 21 13 16 19 17 39 4z m-1420 -815 c0 -8
11 -17 25 -21 14 -3 22 -11 19 -16 -3 -5 2 -9 12 -8 34 4 44 0 44 -15 0 -8 3
-14 8 -14 26 4 44 -4 54 -26 6 -14 17 -25 25 -25 7 0 13 -7 13 -16 0 -8 4 -13
9 -10 5 4 16 3 25 0 15 -6 15 -8 -1 -19 -15 -12 -15 -13 5 -19 13 -5 22 -16
23 -29 0 -12 3 -16 6 -10 3 10 8 10 19 -1 8 -8 14 -19 14 -25 0 -6 9 -11 19
-11 13 0 21 -8 23 -22 2 -15 9 -22 19 -20 9 1 24 -9 33 -23 12 -18 13 -25 4
-25 -7 0 -1 -8 12 -17 14 -10 28 -18 32 -18 3 0 21 -11 40 -25 18 -14 36 -24
41 -22 4 1 7 -2 7 -8 0 -5 7 -10 15 -10 7 0 18 -6 22 -13 4 -7 25 -18 46 -24
35 -11 37 -10 32 7 -6 18 -4 18 23 4 31 -15 62 -10 62 10 0 7 6 13 13 13 15 1
80 26 87 34 9 11 45 22 75 24 27 2 125 58 133 77 7 16 23 7 34 -19 19 -47 60
-205 65 -250 4 -36 1 -44 -27 -69 -41 -37 -119 -70 -216 -90 -113 -23 -297
-14 -474 24 -330 71 -502 129 -628 209 -29 18 -55 33 -58 33 -34 0 -304 245
-304 276 0 21 28 54 47 54 7 0 16 7 19 15 4 9 11 15 18 14 29 -4 46 2 46 16 0
9 8 19 18 22 9 4 20 11 23 16 10 15 100 22 108 8 5 -7 12 -3 21 14 8 14 20 23
27 21 7 -3 19 4 27 16 14 19 16 20 22 4 5 -13 9 -14 21 -5 9 8 17 9 24 2 11
-11 89 2 99 16 7 11 33 19 43 14 4 -2 7 -11 7 -18z m678 -1903 c10 -7 9 -14
-2 -38 -8 -16 -19 -74 -25 -129 -7 -55 -19 -142 -27 -192 -21 -121 -38 -124
-81 -15 -75 188 -147 341 -165 345 -29 8 -21 25 15 29 80 8 273 8 285 0z m294
-3 c33 -18 3 -29 -79 -29 -68 0 -73 -1 -93 -30 -20 -27 -21 -39 -15 -100 4
-39 11 -70 16 -70 23 0 58 27 92 71 39 51 69 69 113 69 37 0 28 -25 -13 -36
-28 -7 -47 -22 -78 -63 -23 -29 -57 -62 -76 -72 l-36 -18 8 -53 c4 -29 8 -61
8 -70 1 -16 13 -18 117 -18 88 0 115 -3 112 -12 -3 -9 -41 -14 -130 -16 l-126
-3 -11 83 c-10 65 -17 87 -34 100 -19 15 -20 17 -5 23 14 6 16 18 11 93 -5 80
-3 89 17 115 13 16 32 33 44 37 31 13 134 12 158 -1z m354 -26 c4 -21 16 -44
26 -51 15 -11 17 -17 7 -28 -9 -11 -9 -27 -1 -67 25 -119 26 -164 2 -202 -12
-19 -30 -40 -40 -45 -28 -15 -78 -12 -116 6 -41 20 -46 39 -6 29 80 -20 98
-18 125 15 21 24 26 40 25 75 -1 25 -6 45 -9 45 -4 0 -10 29 -14 64 -6 56 -9
63 -26 59 -10 -3 -29 -25 -41 -50 -27 -54 -71 -83 -127 -83 -45 0 -47 1 -29
30 10 15 9 37 -5 108 -21 107 -21 122 -4 122 15 0 32 -66 43 -162 6 -48 10
-58 25 -58 23 0 52 28 73 69 9 16 28 39 42 50 24 19 26 26 21 66 -5 35 -4 45
8 45 8 0 17 -15 21 -37z m-1086 2 c14 -7 38 -27 54 -44 17 -17 36 -31 43 -31
16 0 17 -27 1 -32 -9 -3 -5 -50 16 -184 16 -98 31 -203 34 -233 l5 -54 356 6
c363 6 547 18 701 43 73 12 72 11 66 67 -3 29 -14 96 -25 150 -25 119 -28 176
-5 107 8 -25 17 -56 19 -70 2 -14 13 -58 24 -98 24 -87 45 -276 67 -607 28
-420 34 -518 38 -595 4 -68 9 -116 21 -192 4 -24 1 -28 -19 -28 -23 0 -25 4
-30 73 -3 39 -8 131 -11 202 -10 251 -17 307 -42 354 -27 52 -29 68 -6 73 18
3 20 61 7 217 l-7 73 -71 -7 c-39 -3 -75 -10 -79 -14 -4 -4 10 -64 31 -132 40
-124 66 -233 78 -321 6 -43 4 -48 -13 -48 -30 0 -43 21 -43 71 0 47 -54 277
-68 291 -5 5 -21 2 -36 -6 -32 -16 -66 -10 -66 12 0 12 -4 11 -16 -6 -8 -12
-26 -22 -38 -22 -48 0 -97 -59 -111 -133 -7 -34 -41 -74 -54 -62 -8 8 -1 115
10 143 31 83 96 132 174 132 30 0 37 5 50 33 l14 32 -6 -30 c-3 -16 -11 -33
-17 -37 -15 -10 -7 -14 43 -22 l43 -7 -7 28 c-12 51 -33 73 -68 73 -17 0 -122
-7 -232 -15 -110 -8 -212 -15 -228 -15 -20 0 -30 -7 -37 -25 -11 -29 -35 -25
-43 7 -6 20 -10 20 -128 14 -67 -4 -125 -9 -129 -11 -6 -3 1 -103 15 -237 5
-48 3 -58 -9 -58 -9 0 -18 10 -20 23 -6 28 -19 191 -19 234 -1 32 -15 47 -35
34 -7 -4 -8 -30 -2 -81 7 -64 18 -172 24 -231 1 -9 34 -52 74 -95 172 -190
254 -309 353 -514 106 -216 145 -311 170 -407 7 -30 18 -53 26 -53 19 0 16
-18 -4 -25 -10 -3 -36 -28 -58 -55 -64 -79 -89 -62 -35 23 17 26 30 56 30 67
0 49 -101 310 -119 310 -6 0 -11 10 -11 23 0 29 -42 118 -64 136 -16 13 -17
12 -12 -10 16 -71 12 -89 -23 -111 l-34 -22 5 28 c5 24 3 27 -16 22 -11 -3
-27 -6 -33 -6 -9 0 -13 -16 -13 -45 0 -43 -16 -89 -50 -141 -15 -24 -7 -58 12
-52 7 3 19 26 27 51 8 26 18 47 23 47 10 0 -2 -64 -14 -68 -22 -9 -3 -34 42
-57 28 -14 50 -32 50 -40 0 -19 -3 -19 -47 5 -40 21 -73 26 -73 10 0 -9 7 -26
51 -130 16 -36 48 -78 97 -127 97 -98 98 -115 4 -62 -54 30 -89 31 -42 0 30
-20 70 -61 70 -72 0 -12 -27 -11 -34 0 -6 9 -175 102 -210 114 -18 7 -19 3
-10 -120 4 -71 8 -195 9 -278 0 -129 -2 -150 -16 -153 -14 -2 -17 20 -22 185
-6 174 -21 405 -47 698 -6 66 -13 149 -15 185 -3 36 -10 97 -15 135 -12 89
-18 142 -30 288 -5 65 -12 134 -15 155 -8 60 -19 183 -51 542 -18 205 -58 498
-90 663 -8 38 -28 34 -65 -13 l-33 -40 -35 34 c-36 34 -81 55 -81 38 0 -6 7
-43 14 -83 8 -41 18 -94 21 -119 4 -25 10 -70 15 -100 21 -142 42 -289 46
-330 2 -25 8 -88 14 -140 6 -52 15 -147 20 -210 5 -63 14 -155 19 -205 6 -49
15 -148 21 -220 5 -71 17 -206 25 -300 8 -93 17 -215 20 -270 4 -55 8 -111 9
-125 2 -14 7 -86 11 -160 4 -74 10 -191 15 -260 4 -69 6 -141 4 -160 -6 -62
16 -395 26 -398 16 -6 1 -22 -20 -22 -30 0 -28 -18 -45 465 -3 88 -12 252 -20
365 -8 113 -17 252 -20 310 -11 196 -39 558 -60 770 -15 152 -27 274 -32 335
-7 87 -16 105 -51 105 -82 0 -252 88 -252 130 0 15 11 12 45 -11 82 -56 210
-98 232 -76 9 10 5 100 -9 165 -10 48 -14 53 -48 63 -40 12 -87 49 -113 89 -9
14 -26 74 -37 134 -12 60 -28 118 -35 130 -15 22 -17 186 -3 186 26 0 35 -94
14 -142 -7 -15 -3 -18 28 -18 38 0 48 -18 23 -39 -11 -9 -11 -22 -1 -73 6 -35
15 -79 18 -98 3 -20 20 -52 37 -73 31 -37 86 -73 96 -63 6 6 -20 211 -46 358
-12 72 -22 102 -36 113 -20 15 -20 15 1 32 12 10 27 28 33 41 21 39 70 63 116
56 22 -3 51 -12 65 -19z m554 -1155 c118 -65 135 -78 117 -90 -12 -7 -12 -12
2 -33 15 -23 15 -25 -9 -36 -29 -13 -66 -15 -47 -3 20 12 -32 62 -64 62 -26 0
-26 -1 -7 -16 18 -15 18 -15 -9 -11 -22 3 -25 2 -16 -9 9 -11 8 -14 -6 -14
-15 0 -17 -9 -14 -65 3 -37 0 -66 -6 -67 -17 -5 -36 73 -40 164 -2 48 -6 92
-9 97 -7 10 4 71 12 71 2 0 46 -23 96 -50z m330 -177 c3 -21 6 -59 6 -85 0
-38 -3 -46 -15 -42 -10 4 -7 -8 11 -41 l26 -46 -36 -34 c-35 -32 -46 -55 -26
-55 17 0 65 -54 78 -86 14 -35 52 -270 52 -320 0 -35 1 -36 30 -30 41 8 38 0
-11 -23 -31 -15 -46 -17 -62 -10 -20 9 -22 19 -25 97 -5 148 -20 253 -38 273
-21 23 -37 24 -54 4 -10 -13 -9 -19 5 -35 23 -25 15 -33 -19 -21 -24 10 -37
31 -18 31 4 0 5 21 3 46 -2 25 2 56 9 69 10 18 9 39 -5 107 -9 46 -15 106 -13
133 3 46 4 48 20 32 24 -24 28 -21 28 16 0 62 44 78 54 20z m372 -21 c18 -12
22 -36 29 -178 4 -77 12 -148 18 -159 16 -28 17 -75 3 -75 -7 0 -32 12 -56 28
-29 18 -44 35 -46 52 -2 14 -6 60 -10 103 -4 42 -11 77 -17 77 -5 0 -3 8 6 18
12 13 17 37 17 80 0 58 2 62 23 62 12 0 27 -4 33 -8z m-526 -87 c0 -8 3 -15 8
-15 4 0 8 -28 8 -63 1 -34 3 -98 5 -142 4 -76 3 -80 -17 -83 -19 -3 -23 3 -28
45 -3 26 -5 66 -5 88 0 22 -4 70 -9 108 -5 37 -6 69 -4 72 12 11 42 4 42 -10z
m1236 -316 c46 -9 94 -38 94 -57 0 -4 -21 -8 -46 -9 -54 -2 -62 -8 -46 -33 10
-16 8 -20 -10 -26 -14 -4 -25 -1 -33 10 -7 9 -17 16 -24 16 -6 0 -14 7 -17 15
-4 8 -13 15 -21 15 -8 0 -11 5 -8 10 10 17 -81 12 -95 -5 -10 -12 -9 -16 4
-21 9 -3 37 -26 63 -50 27 -24 51 -44 56 -44 4 0 7 -6 7 -14 0 -7 10 -17 23
-21 21 -6 21 -7 -7 -19 -19 -9 -25 -16 -17 -21 9 -5 7 -13 -9 -27 -17 -16 -19
-22 -8 -35 24 -29 57 -34 78 -13 11 11 17 26 14 34 -3 8 -1 17 5 21 6 3 11 1
11 -4 0 -6 5 -11 11 -11 11 0 39 -24 39 -34 0 -3 -6 -6 -13 -6 -8 0 -18 -10
-24 -23 -15 -33 -57 -53 -85 -40 -13 5 -48 9 -78 8 -50 -2 -55 -4 -52 -23 2
-15 -2 -22 -12 -22 -10 0 -16 -9 -16 -25 0 -17 4 -23 14 -19 8 3 17 1 20 -5 4
-6 13 -8 21 -5 12 5 12 1 3 -24 -17 -45 -70 -58 -95 -24 -7 9 -13 13 -13 9 0
-9 -83 24 -91 36 -4 5 -15 5 -27 -2 -25 -13 -35 -14 -28 -2 4 5 -7 21 -24 34
-17 14 -26 28 -21 32 5 3 -6 20 -24 38 -26 26 -32 36 -23 45 15 15 48 16 48 2
0 -5 5 -10 11 -10 8 0 10 14 6 40 -4 30 -1 43 11 53 10 6 23 20 31 30 12 15
11 20 -4 37 -12 14 -25 18 -39 14 -21 -6 -21 -6 0 10 12 8 24 25 27 37 4 16 3
19 -6 10 -6 -6 -19 -11 -30 -11 -11 0 -15 -4 -11 -12 4 -7 3 -8 -5 -4 -6 4
-33 -5 -59 -20 -26 -15 -64 -35 -84 -46 -21 -10 -38 -23 -38 -28 0 -6 -7 -10
-16 -10 -9 0 -28 -8 -42 -19 -15 -10 -43 -22 -62 -26 l-35 -8 60 57 c33 31 61
56 63 56 5 0 120 68 154 92 15 10 34 18 43 18 9 0 18 6 21 14 3 8 19 19 35 25
22 7 28 7 23 -1 -5 -8 -1 -9 12 -3 10 4 30 10 42 13 14 3 19 7 13 12 -7 3 3 7
21 8 53 2 118 14 114 21 -6 9 140 3 200 -10z m109 -78 c-3 -5 4 -12 15 -16 11
-3 20 -11 20 -16 0 -6 5 -7 10 -4 6 3 10 -1 10 -9 0 -8 7 -22 16 -30 14 -15
14 -16 -1 -16 -9 0 -15 -6 -13 -12 7 -37 -28 -86 -74 -106 -25 -10 -31 -8 -55
15 -16 14 -21 21 -13 15 9 -6 24 -6 38 -1 18 7 22 17 24 56 2 59 1 62 -5 95
-3 16 -1 29 6 32 20 8 28 6 22 -3z m-4695 -478 c7 -32 15 -62 19 -68 4 -5 18
-48 31 -95 13 -47 26 -89 30 -95 4 -5 11 -26 15 -45 4 -19 20 -80 35 -135 15
-55 30 -138 34 -184 3 -45 8 -86 10 -90 3 -4 7 -29 11 -57 3 -27 10 -64 16
-82 6 -18 9 -36 6 -39 -3 -3 3 -22 14 -41 10 -20 19 -42 19 -48 0 -11 21 -69
60 -164 11 -25 33 -83 51 -130 18 -47 38 -88 43 -92 14 -9 13 -112 -1 -158 -6
-19 -11 -29 -12 -22 -1 6 -8 12 -17 12 -21 0 -53 40 -54 67 0 12 -8 27 -19 32
-18 10 -56 89 -47 98 2 3 -2 22 -9 43 -7 21 -11 40 -9 43 3 2 -16 27 -41 55
-25 27 -45 55 -45 60 0 6 -12 20 -26 31 -15 11 -35 37 -46 57 -10 20 -25 43
-31 50 -27 32 -73 74 -82 74 -5 1 -22 11 -36 23 -23 19 -27 32 -31 87 -3 58
-8 70 -45 118 -23 29 -45 61 -48 72 -4 11 -11 20 -16 20 -5 0 -9 9 -9 20 0 11
-7 20 -15 20 -14 0 -20 12 -16 34 1 5 -6 6 -15 2 -13 -5 -14 -3 -7 6 6 7 11
51 12 98 2 68 6 89 22 106 10 11 19 24 19 30 1 5 19 27 40 49 22 22 40 45 40
53 0 7 17 39 37 70 49 74 58 93 73 136 6 20 15 36 20 36 5 0 14 -26 20 -57z
m970 -1603 c-8 -15 -5 -24 15 -44 13 -13 27 -36 31 -50 3 -14 12 -30 20 -37 8
-6 14 -18 14 -26 0 -7 7 -16 15 -19 8 -4 15 -12 15 -20 0 -8 5 -14 10 -14 6 0
10 -6 9 -12 -5 -31 58 -107 106 -128 18 -8 17 -9 -7 -9 -16 -1 -28 -5 -28 -11
0 -5 -7 -10 -15 -10 -8 0 -15 4 -15 9 0 5 -14 12 -30 16 -25 6 -29 9 -19 21 8
10 8 14 0 14 -6 0 -11 7 -11 15 0 8 -6 15 -14 15 -8 0 -16 7 -20 15 -3 8 -10
15 -16 15 -12 0 -9 -22 5 -32 6 -4 -10 -8 -34 -8 -24 0 -42 3 -38 6 7 8 -6 25
-63 80 -24 23 -41 46 -38 49 10 11 29 -5 22 -17 -4 -6 -2 -8 3 -5 6 4 24 0 39
-8 16 -8 25 -15 21 -15 -4 0 -2 -6 5 -14 7 -7 19 -12 25 -10 46 14 45 12 28
44 -8 16 -20 30 -25 30 -6 0 -10 9 -10 21 0 11 -7 27 -15 35 -8 9 -15 24 -15
35 0 10 -5 19 -11 19 -6 0 -9 7 -5 15 5 14 2 13 -24 0 -17 -9 -30 -19 -30 -24
0 -14 -40 -20 -63 -11 -20 8 -9 15 16 11 4 -1 10 6 13 14 4 8 17 15 30 15 13
0 24 5 24 12 0 7 12 22 26 35 21 17 31 20 45 12 15 -8 17 -14 9 -29z m269 -30
c18 -22 29 -45 26 -50 -3 -6 1 -10 9 -10 9 0 21 -9 28 -20 7 -11 21 -20 30
-20 10 0 18 -6 18 -14 0 -22 26 -37 53 -31 22 6 26 13 29 56 1 28 -1 54 -5 58
-12 12 -4 54 11 59 6 2 12 -3 12 -10 0 -11 11 -14 40 -11 27 2 51 -4 76 -19
25 -15 50 -21 76 -19 30 2 38 -1 38 -14 0 -9 5 -13 10 -10 6 3 10 1 10 -4 0
-15 87 -14 92 0 2 7 10 -7 18 -30 7 -22 10 -44 6 -48 -3 -4 -22 1 -41 10 -38
18 -59 23 -35 7 8 -5 11 -12 7 -16 -4 -4 -17 2 -30 14 l-23 22 -12 -32 c-8
-23 -9 -35 -1 -45 12 -14 -4 -43 -23 -43 -5 0 -19 -9 -31 -21 -39 -37 -79 -52
-136 -50 -83 2 -120 11 -146 37 l-23 23 26 9 27 9 -23 12 c-12 6 -22 18 -22
25 0 22 -40 51 -66 48 -13 -2 -24 1 -24 7 0 6 -7 11 -15 11 -8 0 -15 9 -15 21
0 13 -4 18 -12 13 -8 -5 -9 -2 -5 10 9 23 -2 43 -14 25 -4 -7 -11 -10 -15 -6
-4 4 -2 13 4 19 7 7 12 21 12 33 -1 20 -1 20 -18 0 -25 -28 -36 -28 -63 1
l-24 26 25 -4 c14 -2 24 -9 22 -16 -2 -10 2 -10 18 0 11 7 20 16 20 20 0 5 10
8 23 8 16 0 35 -14 56 -40z m532 -327 l21 -44 -23 -25 c-16 -17 -31 -24 -46
-21 -24 4 -23 2 10 -47 16 -23 17 -30 6 -37 -20 -12 -79 -11 -79 1 0 6 -9 20
-20 32 -27 29 -25 45 6 61 17 9 23 17 16 21 -12 7 15 65 44 94 8 8 12 22 9 30
-13 34 35 -21 56 -65z m-541 -65 c0 -4 4 -8 10 -8 16 0 60 -42 60 -57 0 -7 11
-18 24 -24 15 -7 22 -17 19 -29 -7 -26 38 -66 73 -64 58 2 63 9 50 67 -7 29
-22 71 -34 95 -13 23 -20 42 -16 42 3 0 25 -19 48 -42 46 -48 74 -71 129 -108
20 -14 37 -29 37 -33 0 -8 47 -54 67 -65 6 -4 13 -25 15 -47 3 -22 10 -50 16
-62 16 -29 -1 -40 -36 -22 -30 16 -62 45 -62 57 0 19 -81 78 -101 74 -4 -1
-14 7 -23 17 -13 15 -27 17 -64 13 -26 -2 -52 -8 -58 -13 -14 -11 -74 12 -74
28 0 7 -7 10 -15 7 -10 -4 -15 0 -15 15 0 12 -6 21 -15 21 -8 0 -15 5 -15 10
0 6 -9 10 -21 10 -11 0 -17 5 -14 10 3 6 0 10 -7 10 -8 0 -29 11 -48 25 -24
18 -29 25 -16 25 9 0 15 4 12 9 -3 5 1 12 10 15 14 5 14 7 0 22 -9 8 -14 19
-11 24 6 10 75 -10 75 -22z m-269 -1368 c10 0 19 -4 19 -10 0 -5 6 -10 14 -10
19 0 48 -29 43 -43 -2 -6 7 -21 19 -34 17 -18 32 -23 74 -23 42 0 63 -7 109
-34 31 -19 69 -48 85 -65 17 -17 35 -31 42 -31 6 0 14 -7 17 -15 9 -21 77 -62
127 -75 23 -6 54 -16 69 -22 14 -6 29 -12 33 -12 15 -2 48 -36 48 -50 0 -18
-44 -26 -142 -26 -61 0 -86 4 -106 18 -15 10 -45 24 -68 30 -22 6 -51 23 -64
37 -13 14 -29 25 -37 25 -7 0 -13 5 -13 11 0 5 -4 8 -9 5 -18 -11 -292 279
-284 300 3 8 0 14 -6 14 -6 0 -7 7 -4 17 4 11 8 12 11 5 2 -7 12 -12 23 -12z
m1559 -3107 c6 -32 14 -65 18 -73 3 -8 7 -19 7 -25 1 -5 5 -18 10 -28 4 -9 8
-48 9 -85 1 -52 -4 -77 -22 -112 -13 -25 -35 -81 -49 -125 -40 -126 -24 -198
86 -370 49 -79 51 -131 7 -234 -61 -140 -83 -297 -52 -372 7 -19 17 -74 20
-122 7 -83 5 -92 -18 -138 -20 -36 -26 -64 -26 -109 0 -77 -22 -130 -69 -168
-32 -26 -39 -39 -45 -81 -5 -35 -17 -64 -41 -95 -47 -62 -65 -100 -65 -138 0
-18 -11 -53 -25 -77 -14 -23 -25 -59 -25 -78 0 -22 -16 -64 -45 -117 -25 -46
-45 -94 -45 -107 -1 -37 -36 -132 -55 -145 -8 -6 -15 -16 -14 -20 3 -13 -10
-66 -22 -86 -5 -10 -9 -25 -9 -33 0 -8 -4 -15 -9 -15 -5 0 -12 -11 -15 -25 -4
-14 -14 -33 -24 -43 -10 -10 -26 -40 -36 -67 -10 -28 -31 -68 -45 -90 -27 -42
-40 -66 -65 -125 -71 -165 -140 -221 -132 -108 5 66 14 88 35 88 14 1 14 2 -2
15 -13 9 -19 26 -19 57 0 53 28 164 49 197 8 12 12 32 9 43 -9 36 13 182 34
223 11 21 20 50 20 62 0 13 4 31 9 41 40 73 186 432 195 477 1 6 5 15 9 21 4
7 16 56 27 110 33 166 50 245 72 329 11 44 36 166 54 270 18 105 35 204 39
220 4 17 8 41 10 55 2 14 5 27 6 30 1 3 3 10 4 15 11 67 21 117 42 205 14 58
33 159 43 225 10 66 23 149 28 185 6 36 16 106 23 155 7 50 25 130 41 179 32
101 38 130 43 206 5 82 9 82 25 3z m-1200 -6325 c0 -47 234 -189 350 -213 19
-4 41 -12 48 -18 7 -5 29 -12 50 -14 20 -2 49 -8 63 -14 15 -6 37 -12 50 -14
53 -9 172 -44 178 -53 3 -5 17 -13 31 -17 28 -9 70 -35 55 -35 -5 0 1 -7 14
-16 46 -33 6 -34 -226 -8 -35 4 -63 11 -63 16 0 6 -11 8 -24 4 -13 -3 -39 2
-63 14 -23 11 -60 22 -84 26 -46 6 -50 7 -194 74 -127 59 -156 85 -183 162
-23 67 -29 118 -12 118 6 0 10 -6 10 -12z"/>
<path d="M20668 19623 c-25 -6 -23 -16 16 -98 19 -39 48 -106 66 -148 17 -42
35 -77 40 -77 9 0 14 25 36 189 14 104 14 125 3 132 -14 9 -130 10 -161 2z"/>
<path d="M21610 19058 c-105 -17 -406 -35 -630 -37 -124 0 -258 -4 -297 -7
l-73 -7 1 -36 c0 -20 6 -70 12 -111 l12 -75 225 3 c240 4 809 48 872 67 19 7
21 18 19 110 -3 94 -8 105 -49 104 -20 -1 -62 -6 -92 -11z"/>
<path d="M20692 18223 l3 -68 52 3 c28 1 54 -2 58 -8 4 -6 -5 -10 -20 -10 -34
0 -41 -21 -26 -83 6 -27 9 -52 6 -55 -2 -3 -16 3 -29 12 -14 9 -27 16 -29 16
-4 0 10 -147 17 -175 3 -12 24 -30 51 -43 40 -19 49 -20 71 -9 l25 13 -26 24
c-39 37 -33 54 13 31 57 -29 97 -35 112 -16 7 8 19 15 26 15 8 0 14 6 14 13 0
20 -37 75 -59 87 -11 5 -25 28 -31 50 -6 22 -28 58 -50 82 -22 23 -40 45 -40
49 0 14 -115 139 -128 139 -10 0 -12 -17 -10 -67z"/>
<path d="M20824 23695 c-4 -8 -10 -12 -15 -9 -5 3 -9 -1 -9 -10 0 -8 -6 -16
-12 -19 -10 -4 -10 -7 0 -18 11 -11 14 -10 18 8 7 27 33 38 41 17 3 -8 11 -13
17 -11 7 3 20 -1 31 -9 18 -14 18 -14 -1 -15 -17 0 -17 -1 3 -9 13 -5 55 -10
95 -11 40 -1 100 -7 133 -13 60 -13 145 -57 145 -77 0 -5 5 -7 10 -4 13 8 24
-20 15 -35 -4 -7 -11 -8 -18 -1 -58 46 -396 41 -448 -8 -12 -11 -31 -23 -41
-27 -49 -15 -5 -23 126 -21 106 1 147 -2 159 -11 18 -16 56 -7 73 16 10 13 16
12 46 -11 41 -32 55 -34 60 -9 3 18 7 18 68 6 60 -13 66 -12 78 4 7 9 10 27 7
40 -3 12 -1 22 4 22 16 0 21 44 6 60 -8 9 -15 20 -15 23 0 15 -45 57 -61 57
-9 0 -20 7 -23 16 -3 8 -11 12 -16 9 -6 -4 -19 -3 -28 1 -34 15 -59 18 -139
18 -46 0 -83 4 -83 8 0 5 -17 8 -37 8 -28 0 -34 3 -23 10 8 5 11 12 7 16 -3 4
-13 1 -21 -5 -10 -8 -16 -9 -21 -1 -10 17 -125 13 -131 -5z"/>
<path d="M21925 23633 c-11 -2 -40 -13 -64 -24 -24 -11 -52 -21 -62 -22 -10
-1 -15 -5 -13 -9 3 -4 -2 -8 -10 -8 -9 0 -16 -4 -16 -9 0 -10 -71 -56 -82 -53
-5 1 -8 -2 -8 -7 0 -19 18 -20 49 -5 18 9 39 13 47 10 8 -3 12 -2 9 4 -6 9 10
14 42 13 7 -1 11 3 8 7 -3 5 21 7 52 5 50 -3 53 -3 18 4 l-40 8 43 2 c31 1 47
-4 59 -19 10 -11 22 -20 28 -20 5 0 3 5 -5 10 -13 8 -13 10 1 10 12 0 16 9 15
38 0 20 -7 41 -14 45 -7 5 -10 12 -7 18 6 9 -14 10 -50 2z"/>
<path d="M21725 23440 c-10 -3 -34 -5 -54 -4 -20 1 -30 0 -23 -3 6 -2 10 -9 6
-14 -4 -8 23 -13 63 -12 6 0 10 -8 8 -18 -2 -10 1 -18 8 -16 7 1 12 -6 12 -15
0 -10 6 -23 13 -30 9 -9 12 -9 12 0 0 8 7 9 26 2 33 -13 47 -13 39 0 -3 6 1
10 10 10 9 0 13 -4 10 -10 -3 -5 1 -10 9 -10 8 0 18 5 22 12 5 7 3 8 -5 3 -10
-5 -9 -2 0 13 7 12 16 19 20 16 4 -2 10 4 13 13 4 9 2 20 -5 23 -8 6 -7 9 2
13 11 4 11 6 -1 7 -8 1 -24 4 -35 6 -60 12 -135 19 -150 14z"/>
<path d="M28765 22154 c-25 -6 -47 -51 -39 -81 5 -18 1 -22 -23 -25 -26 -3
-28 -7 -29 -46 -1 -23 -4 -49 -8 -57 -3 -8 -1 -15 5 -15 6 0 8 -7 5 -16 -9
-23 76 -59 105 -43 17 9 23 8 30 -2 8 -13 13 -5 10 15 -5 24 79 50 93 28 11
-18 -7 -52 -28 -53 -20 -1 -20 -2 -1 -6 11 -3 25 -10 30 -15 7 -7 2 -8 -14 -3
-23 7 -24 5 -17 -25 3 -18 6 -36 6 -41 0 -15 19 -10 39 10 15 15 19 28 14 55
-8 48 3 98 27 124 23 25 39 87 30 121 -9 38 -50 62 -111 66 -30 2 -65 5 -79 8
-14 3 -34 3 -45 1z"/>
<path d="M28268 21885 c-10 -13 -18 -33 -18 -45 0 -11 -6 -23 -14 -26 -21 -8
-41 -61 -29 -77 6 -6 13 -29 17 -49 4 -21 8 -38 9 -38 21 0 113 -45 124 -60 8
-11 18 -20 23 -20 12 0 6 48 -8 62 -8 8 -7 14 5 23 25 19 53 6 60 -27 9 -45
20 -42 28 9 4 26 13 56 21 67 17 24 18 79 3 109 -27 52 -61 77 -105 77 -24 0
-46 5 -49 10 -11 18 -50 10 -67 -15z"/>
<path d="M27609 20993 c-1 -5 -1 -11 0 -15 0 -5 -2 -8 -7 -8 -4 0 -7 -47 -7
-104 0 -57 3 -102 6 -100 4 2 10 -13 14 -33 6 -32 3 -39 -19 -56 -14 -10 -26
-24 -26 -30 0 -6 7 -2 16 9 14 18 15 18 4 -3 -6 -13 -15 -23 -21 -23 -6 0 -8
-8 -5 -17 6 -20 -6 -46 -20 -43 -5 0 -10 -6 -12 -14 -2 -9 1 -16 7 -16 6 0 8
6 5 14 -4 10 2 12 20 9 14 -3 26 -9 26 -14 0 -15 29 -10 48 9 41 38 64 53 93
59 16 3 29 2 29 -1 0 -13 -96 -96 -110 -96 -6 0 -9 -3 -9 -7 3 -20 -2 -34 -10
-28 -5 3 -13 0 -16 -5 -10 -16 24 -50 43 -43 11 5 13 3 7 -7 -5 -9 -4 -11 4
-6 6 4 8 12 5 18 -5 7 -2 9 8 6 8 -4 20 2 27 13 6 11 16 17 21 14 5 -3 14 4
20 15 6 11 15 20 21 20 6 0 18 8 27 17 16 16 17 15 21 -2 2 -12 -16 -37 -52
-71 -30 -29 -52 -55 -49 -58 3 -3 -2 -6 -11 -6 -9 0 -17 -4 -17 -10 0 -5 0
-13 0 -17 -1 -5 15 -11 34 -14 19 -3 33 -2 31 2 -5 7 24 23 38 21 4 -1 6 1 5
5 -2 5 1 9 5 10 4 1 14 8 22 15 27 25 45 38 47 38 9 -3 38 14 38 22 0 5 -5 6
-11 2 -8 -4 -9 0 -4 15 4 14 3 21 -5 19 -7 -2 -14 5 -15 15 -2 11 -7 22 -11
25 -4 4 -4 -1 -1 -10 4 -10 2 -18 -3 -18 -6 0 -10 6 -10 14 0 8 -7 16 -15 20
-8 3 -15 11 -15 18 0 9 3 9 11 -2 8 -12 9 -11 6 5 -2 11 -8 19 -15 18 -6 -2
-9 4 -6 12 4 9 0 15 -9 15 -8 0 -20 7 -27 15 -7 8 -16 12 -21 9 -5 -3 -9 -2
-8 3 6 32 -3 43 -32 43 -21 0 -40 9 -55 25 -13 14 -20 25 -17 25 4 0 -1 6 -11
13 -14 10 -16 19 -8 54 6 26 6 61 0 94 -5 29 -7 60 -5 71 3 10 0 18 -6 18 -7
0 -5 5 3 10 10 6 11 10 3 10 -7 0 -14 -3 -14 -7z"/>
<path d="M27880 20401 c-24 -28 -47 -48 -52 -45 -4 3 -5 -3 -1 -12 5 -12 2
-16 -8 -13 -20 7 -72 -48 -52 -55 8 -3 11 -11 7 -18 -4 -7 -4 -10 1 -6 4 4 14
3 21 -3 10 -8 19 -4 37 15 13 14 29 26 35 26 6 0 16 9 22 20 6 11 17 20 25 20
8 0 15 4 15 8 0 4 9 8 20 9 11 1 20 0 20 -3 0 -11 -63 -73 -70 -69 -4 3 -15
-4 -25 -15 -20 -22 -29 -96 -13 -106 7 -5 8 -2 3 6 -6 10 -3 12 13 8 12 -4 20
-2 17 2 -3 4 9 13 26 19 20 7 28 15 23 23 -4 7 -4 10 1 6 4 -4 16 2 26 14 11
11 19 18 19 13 0 -4 6 -2 14 4 19 16 28 0 10 -17 -8 -7 -14 -9 -14 -5 0 4 -6
-3 -13 -17 -8 -14 -19 -24 -25 -22 -7 1 -12 -5 -12 -13 0 -8 -3 -14 -7 -12 -5
1 -8 -2 -8 -8 0 -5 7 -9 15 -8 8 2 30 4 48 4 17 1 32 6 32 11 0 5 12 5 26 2
24 -6 25 -5 15 15 -7 11 -8 21 -3 21 4 0 8 9 9 20 1 11 -3 20 -8 20 -6 0 -8 4
-4 10 3 5 -6 17 -20 26 -25 16 -25 17 -8 37 10 11 13 18 7 14 -15 -9 -76 31
-68 45 4 6 -4 20 -17 30 -13 11 -18 16 -10 12 10 -5 12 -3 6 5 -4 7 -16 10
-27 8 -16 -4 -17 -3 -7 9 6 8 9 14 7 14 -3 0 -25 -22 -48 -49z"/>
<path d="M27500 20390 c-14 -16 -30 -29 -36 -29 -6 -1 -10 -11 -9 -23 2 -18
-3 -23 -22 -24 -24 -2 -24 -2 -6 20 l18 21 -22 -19 c-13 -10 -20 -22 -18 -27
7 -11 -36 -40 -48 -32 -6 3 -7 1 -4 -4 8 -13 -18 -37 -31 -29 -6 3 -15 -1 -22
-9 -7 -8 -9 -15 -5 -15 5 0 0 -9 -9 -19 -17 -19 -17 -19 3 -14 26 7 28 -16 4
-38 -10 -9 -25 -26 -33 -37 -8 -12 -21 -22 -30 -23 -10 0 -11 -2 -2 -6 7 -3
33 12 58 32 39 32 45 42 39 64 -4 18 -3 22 4 12 7 -11 12 -10 27 8 20 23 40
29 28 9 -4 -8 -3 -10 2 -5 5 5 9 12 9 15 0 13 16 32 27 32 6 0 5 -7 -3 -17
-11 -15 -10 -15 8 1 13 10 20 22 18 27 -3 4 -1 10 5 14 6 4 8 11 5 16 -4 5 -1
9 6 9 7 0 9 -8 6 -21 -5 -17 -3 -18 11 -7 56 42 100 99 50 64 -31 -22 -35 -20
-34 14 1 32 21 40 45 18 11 -10 13 -10 7 0 -11 18 5 15 21 -5 8 -10 6 -3 -4
16 -24 44 -33 46 -63 11z"/>
<path d="M27600 20295 c-11 -13 -11 -16 0 -13 8 2 16 -5 18 -16 2 -10 0 -16
-5 -13 -5 3 -22 -6 -37 -20 -21 -20 -30 -23 -36 -13 -5 7 -6 20 -3 28 5 12 3
12 -15 1 -15 -10 -18 -16 -9 -21 7 -4 10 -8 7 -9 -3 0 -14 -2 -24 -4 -23 -4
-36 -23 -29 -42 3 -7 0 -13 -7 -13 -6 0 -9 4 -5 9 10 17 -12 21 -25 6 -7 -8
-9 -15 -5 -15 4 0 2 -7 -5 -15 -7 -8 -18 -15 -24 -15 -6 0 -4 5 4 10 8 5 11
10 5 10 -14 -1 -65 -47 -65 -60 0 -8 6 -7 21 0 26 14 36 6 19 -15 -11 -13 -10
-15 6 -9 14 4 13 1 -6 -14 -14 -12 -22 -23 -20 -26 3 -2 26 14 51 37 25 23 36
34 24 25 -24 -20 -35 -23 -35 -9 0 12 95 73 108 69 5 -2 10 0 11 5 3 20 0 25
-16 22 -10 -1 -12 0 -5 2 7 3 10 9 7 14 -4 5 -1 9 5 9 6 0 13 -7 17 -15 5 -13
8 -13 20 5 8 11 18 18 23 15 13 -8 57 33 62 60 7 32 -14 51 -32 30z"/>
<path d="M27637 20188 c-10 -5 -15 -13 -12 -17 2 -5 -5 -17 -16 -27 -19 -17
-20 -17 -13 2 7 19 7 19 -14 0 -12 -10 -19 -23 -15 -29 4 -6 0 -8 -9 -5 -12 5
-14 0 -10 -20 5 -23 6 -24 12 -7 4 12 9 15 13 8 8 -13 -8 -26 -37 -29 -37 -3
-64 -12 -90 -29 -30 -20 -34 -27 -9 -18 11 4 14 3 9 -5 -4 -7 -16 -12 -27 -12
-11 0 -18 -4 -15 -9 3 -4 -6 -19 -19 -31 -14 -13 -25 -18 -25 -12 0 7 5 12 12
12 6 0 8 3 5 6 -9 9 -38 -16 -31 -27 3 -5 -1 -9 -8 -9 -7 -1 -35 -21 -63 -45
-35 -32 -45 -45 -32 -45 10 0 28 5 40 11 20 9 20 9 5 -4 -10 -8 -15 -17 -11
-20 9 -10 35 -9 29 1 -2 4 3 16 11 27 15 20 15 19 8 -3 l-7 -23 25 23 c13 13
37 33 51 45 19 16 26 29 21 42 -3 11 -1 22 4 26 7 3 8 0 5 -9 -5 -13 -1 -14
25 -5 17 6 37 20 45 30 7 10 15 17 17 14 3 -2 10 4 17 15 10 16 9 18 -8 15
-11 -2 -20 0 -20 6 0 8 35 13 43 7 1 -2 18 8 37 22 80 56 113 87 101 94 -6 4
-8 13 -5 20 7 18 -18 26 -39 14z"/>
<path d="M27740 20117 c0 -9 -3 -16 -7 -16 -5 1 -17 1 -28 0 -15 -1 -17 -4 -7
-10 10 -6 5 -11 -17 -21 -17 -7 -29 -16 -26 -20 2 -4 -5 -16 -17 -26 -12 -11
-18 -13 -14 -6 11 18 -9 15 -25 -5 -8 -9 -9 -14 -4 -11 6 3 10 -5 10 -18 0
-21 -2 -22 -12 -8 -10 14 -14 14 -31 3 -40 -29 -92 -79 -92 -89 0 -5 -8 -10
-17 -10 -10 -1 -47 -28 -83 -61 -36 -33 -59 -58 -52 -54 7 4 20 -3 31 -16 22
-27 56 -20 48 11 -3 11 -1 23 4 26 5 3 9 0 9 -6 0 -8 6 -8 21 0 12 7 18 18 15
26 -3 9 4 16 20 20 16 4 23 12 20 20 -7 17 6 18 22 2 12 -12 13 -11 16 31 1 8
8 16 16 18 13 4 13 3 0 -6 -8 -6 -11 -11 -6 -11 5 0 25 12 45 27 42 32 102 89
82 78 -9 -6 -12 -4 -7 4 4 6 12 8 18 5 12 -7 58 42 58 63 0 7 4 13 9 13 13 0
22 43 11 54 -7 7 -10 4 -10 -7z"/>
<path d="M27263 19728 c-4 -7 -8 -16 -8 -20 0 -13 -15 -21 -15 -8 0 7 -3 10
-7 6 -5 -4 -8 -13 -8 -19 0 -7 -9 -13 -20 -15 -26 -5 -65 -41 -76 -69 -5 -13
-14 -23 -20 -23 -8 0 -7 6 2 18 13 15 12 16 -2 4 -11 -8 -15 -21 -11 -35 5
-20 4 -21 -12 -8 -15 13 -20 11 -47 -15 -25 -26 -27 -30 -10 -30 10 0 17 5 14
11 -2 7 3 12 11 12 11 0 13 -5 5 -19 -5 -10 -17 -18 -25 -18 -15 0 -84 -68
-84 -82 0 -5 -9 -8 -19 -8 -11 0 -23 -4 -26 -10 -10 -16 -28 -11 -21 6 3 8 2
12 -4 9 -20 -12 -10 -35 16 -35 14 0 23 4 19 9 -3 6 12 11 32 13 22 2 37 8 36
15 -1 6 4 14 12 17 8 3 15 0 15 -6 0 -7 13 1 29 16 17 16 27 34 24 43 -4 10 0
13 12 11 11 -2 19 4 20 14 2 10 10 25 19 34 9 8 16 20 16 26 0 5 7 7 15 4 11
-4 19 3 25 19 5 14 14 25 19 25 5 0 8 6 7 13 0 6 2 12 6 12 4 0 14 9 22 20 12
15 16 16 16 5 1 -9 5 -6 10 8 11 26 30 29 31 5 0 -10 3 -13 5 -6 3 7 12 9 21
6 14 -5 13 -2 -3 25 -20 35 -29 39 -41 20z"/>
<path d="M26461 19203 c6 -7 55 -40 108 -74 89 -56 99 -60 139 -54 38 6 42 4
42 -14 0 -30 13 -26 29 10 15 35 12 42 -26 41 -30 0 -161 57 -184 81 -8 8 -38
16 -67 19 -43 4 -50 3 -41 -9z"/>
<path d="M26079 19133 c-12 -14 -12 -16 0 -8 10 6 12 4 7 -4 -5 -7 -14 -10
-22 -7 -8 3 -13 2 -13 -2 4 -25 -6 -44 -41 -82 -43 -46 -42 -62 6 -74 14 -4
23 -10 20 -15 -3 -4 1 -8 9 -8 8 0 15 4 15 9 0 5 4 7 9 4 5 -4 11 0 14 6 2 7
7 10 11 7 8 -7 -22 -69 -34 -69 -5 0 -12 -9 -15 -20 -4 -11 -11 -17 -17 -14
-7 5 -8 2 -3 -6 7 -11 10 -10 19 1 6 8 29 15 51 16 34 2 36 1 15 -7 -14 -4
-19 -8 -12 -9 9 -1 11 -8 7 -21 -6 -20 -6 -20 29 -3 20 9 36 21 36 25 0 5 4 7
9 3 6 -3 6 -17 -1 -35 -5 -17 -14 -28 -19 -25 -4 3 -11 -6 -15 -20 -5 -20 -12
-25 -25 -22 -10 3 -17 1 -16 -3 1 -5 -7 -16 -18 -24 -11 -9 -15 -16 -10 -15 6
1 12 1 15 -1 21 -8 50 -8 55 0 4 6 -1 7 -11 3 -12 -4 -15 -3 -10 5 4 7 16 12
27 12 11 0 34 7 52 17 28 14 31 14 19 0 -12 -14 -11 -15 12 -4 16 8 21 14 13
19 -8 5 -4 8 10 8 20 0 20 -2 10 -30 -6 -17 -19 -32 -28 -35 -10 -3 -20 -12
-23 -20 -3 -10 0 -12 11 -8 17 7 22 11 87 68 21 19 44 35 50 35 7 0 43 -20 80
-45 38 -25 72 -45 76 -45 13 0 22 -32 27 -90 5 -62 20 -80 69 -80 24 0 39 8
58 31 14 17 26 35 26 40 0 6 5 7 12 3 8 -5 9 6 4 42 -3 26 -13 52 -20 56 -8 5
-17 20 -21 36 -3 15 -27 46 -53 70 -80 72 -246 202 -259 202 -11 0 -70 40
-126 86 -9 8 -20 14 -23 14 -3 0 -20 12 -37 26 -18 15 -33 22 -35 15 -2 -6
-15 -11 -28 -11 -14 0 -22 4 -19 10 10 16 -1 11 -16 -7z"/>
<path d="M25838 18699 c-10 -5 -18 -21 -18 -35 0 -14 -4 -22 -10 -19 -5 3 -10
2 -10 -4 0 -5 -3 -17 -7 -27 -5 -13 -3 -15 8 -9 12 8 12 6 0 -9 -9 -11 -22
-15 -36 -12 -12 3 -31 -2 -44 -10 -12 -9 -24 -14 -27 -12 -2 3 15 15 38 28 22
13 38 18 34 11 -4 -6 -1 -11 8 -11 9 0 13 6 10 14 -7 19 -64 13 -80 -9 -7 -9
-16 -17 -21 -18 -4 -1 -7 -7 -5 -13 1 -6 -9 -19 -23 -28 -14 -9 -25 -23 -25
-31 0 -18 16 -20 26 -3 4 7 3 8 -4 4 -7 -4 -12 -2 -12 3 0 14 17 14 25 1 3 -5
18 4 33 20 27 28 82 48 82 30 0 -14 -20 -22 -20 -8 -1 7 -7 2 -15 -12 -19 -34
-19 -48 1 -24 8 10 13 14 10 8 -3 -7 1 -17 9 -24 12 -10 15 -10 15 0 0 8 3 10
7 7 3 -4 -15 -28 -41 -54 -37 -38 -43 -49 -29 -51 35 -6 44 -12 37 -23 -4 -7
-9 -7 -13 -1 -3 5 -21 11 -38 14 -18 2 -31 2 -28 0 3 -3 -5 -10 -18 -17 -12
-6 -21 -19 -19 -28 2 -14 -26 -38 -50 -43 -5 -1 -10 -2 -13 -3 -3 0 1 -11 10
-24 8 -13 12 -27 8 -32 -5 -4 -2 -5 5 -1 7 5 11 14 8 22 -3 8 -1 14 5 14 6 0
7 5 3 12 -4 7 -3 8 5 4 7 -5 22 3 37 19 29 32 31 45 4 40 -12 -2 -18 0 -15 6
4 5 10 7 15 4 5 -3 11 -1 15 5 8 13 55 13 55 1 0 -16 73 0 96 20 11 11 28 19
38 19 18 0 16 -3 -22 -45 -7 -8 -10 -20 -7 -25 4 -7 15 -1 29 14 12 15 25 26
30 26 7 0 25 14 85 70 15 14 65 40 77 40 3 0 2 -4 -1 -10 -4 -6 1 -7 12 -3 14
6 12 9 -14 20 -17 7 -34 17 -38 23 -3 5 -17 10 -31 10 -13 0 -24 5 -24 10 0 6
-7 10 -15 10 -31 0 -62 23 -74 57 -10 26 -15 32 -22 22 -5 -8 -9 -9 -10 -4 -1
6 -2 17 -3 25 -1 8 4 25 11 38 15 25 15 25 -9 11z"/>
<path d="M26390 18327 c0 -18 -30 -27 -88 -27 -44 0 -109 -26 -97 -38 3 -4 48
-15 98 -24 51 -9 125 -26 166 -37 73 -21 214 -34 205 -19 -3 4 -11 8 -18 8 -7
0 -21 8 -32 18 -10 9 -54 34 -96 55 -43 21 -81 44 -85 51 -12 21 -53 31 -53
13z"/>
<path d="M25550 18282 c0 -7 -4 -10 -10 -7 -6 3 -7 -1 -4 -9 5 -14 -9 -21 -37
-18 -4 1 -15 -8 -24 -18 -10 -11 -15 -20 -10 -20 4 0 2 -6 -5 -14 -6 -8 -18
-12 -26 -9 -8 3 -17 -3 -21 -13 -9 -23 -35 -54 -46 -54 -4 0 -5 6 -1 13 5 8 3
8 -9 -2 -9 -7 -15 -17 -12 -21 3 -5 -1 -11 -7 -14 -7 -3 -1 -3 15 -1 15 2 27
-1 27 -7 0 -6 9 -8 23 -3 12 3 27 7 34 7 7 1 10 5 7 10 -3 5 13 28 36 51 32
32 39 36 30 17 l-11 -25 23 26 c42 47 58 69 58 77 0 15 -29 48 -30 34z"/>
<path d="M25725 18255 c-14 -13 -25 -21 -25 -18 0 4 -13 -9 -30 -27 -16 -18
-30 -38 -30 -43 0 -5 -5 -7 -11 -5 -7 2 -26 -11 -44 -29 -18 -18 -35 -33 -40
-33 -4 0 -16 -12 -27 -26 -12 -14 -32 -30 -45 -35 -13 -5 -22 -13 -19 -18 3
-5 -4 -11 -15 -14 -11 -3 -23 -15 -26 -26 -3 -12 -13 -21 -22 -21 -9 0 -22 -9
-29 -20 -7 -11 -18 -20 -26 -20 -8 0 -21 -11 -30 -25 -9 -14 -23 -25 -30 -25
-8 0 -26 -16 -40 -35 -15 -19 -30 -34 -34 -32 -5 1 -19 -9 -33 -23 -13 -14
-33 -30 -44 -36 -11 -6 -25 -21 -31 -32 -6 -12 -28 -33 -49 -48 -22 -14 -51
-37 -65 -50 -25 -23 -37 -33 -105 -89 -70 -56 -114 -104 -102 -108 7 -3 4 -8
-8 -12 -45 -16 -72 -32 -109 -65 -43 -40 -67 -60 -125 -109 -23 -19 -43 -42
-46 -52 -3 -9 -20 -23 -38 -30 -18 -7 -45 -27 -60 -46 -16 -18 -35 -33 -43
-33 -8 0 -14 -5 -14 -10 0 -6 -22 -26 -49 -45 -27 -19 -51 -44 -54 -56 -5 -17
-3 -18 9 -8 11 9 46 10 142 3 70 -5 235 -9 367 -8 219 1 251 3 370 28 177 36
178 36 194 23 18 -15 168 -13 231 2 52 13 97 22 125 25 11 2 29 6 40 9 25 8
184 19 250 18 39 -1 47 1 35 10 -11 8 -5 9 28 5 28 -4 42 -2 42 5 0 7 10 9 25
7 14 -3 25 -1 25 4 0 6 16 8 35 6 19 -2 35 0 35 5 0 5 9 7 20 4 11 -3 36 -1
57 3 21 5 67 11 103 14 36 3 92 10 125 15 131 20 172 25 225 27 177 8 250 25
250 60 0 15 38 34 55 28 10 -4 15 0 15 15 0 24 28 29 36 6 11 -28 41 -15 71
33 21 32 30 56 27 77 -1 17 4 72 12 124 20 125 16 289 -8 313 -10 10 -20 14
-22 9 -9 -13 -56 0 -56 15 0 8 5 14 10 14 6 0 10 5 10 11 0 11 -31 8 -139 -13
-32 -6 -49 -13 -42 -18 9 -5 5 -9 -10 -13 -13 -4 -25 -4 -28 -2 -2 3 1 5 7 5
7 0 12 5 12 11 0 5 -5 7 -10 4 -17 -10 -50 5 -50 24 0 9 -5 22 -11 28 -7 7 -5
15 7 27 18 19 12 34 -8 19 -14 -10 -93 -10 -120 0 -10 4 -26 10 -35 14 -10 4
-25 8 -33 9 -35 7 -68 14 -110 24 -25 6 -67 15 -94 20 -27 5 -54 14 -59 19 -5
5 -16 7 -23 4 -8 -3 -20 0 -28 6 -7 6 -15 8 -18 5 -3 -3 -30 8 -60 25 -30 17
-64 31 -75 31 -11 0 -47 11 -81 25 -33 14 -68 22 -77 19 -8 -3 -15 -2 -15 4 0
6 -8 8 -18 5 -12 -3 -25 4 -36 22 -9 14 -21 23 -27 19 -6 -3 -29 7 -52 22 -26
17 -52 27 -69 25 -15 -1 -37 1 -49 4 -19 6 -20 8 -3 26 26 29 -2 24 -31 -6z"/>
<path d="M25286 18053 c-4 -5 -13 -8 -19 -8 -7 0 -13 -4 -13 -10 -1 -5 -5 -20
-9 -33 -7 -20 -9 -21 -20 -6 -10 14 -13 15 -21 3 -5 -8 -9 -18 -9 -23 0 -5 -6
-11 -14 -14 -8 -3 -11 0 -7 7 11 17 0 13 -15 -6 -12 -15 -12 -16 1 -8 8 4 5
-2 -7 -14 -12 -11 -29 -21 -36 -21 -8 0 -33 -19 -56 -42 -31 -30 -39 -43 -29
-49 9 -6 5 -9 -12 -10 -17 -1 -19 -3 -7 -6 10 -3 17 -14 17 -30 0 -20 3 -23
13 -14 8 6 17 8 20 4 4 -3 7 2 7 12 0 14 3 15 15 5 13 -11 14 -10 9 4 -3 9 -1
16 6 16 6 0 9 8 7 18 -4 11 7 27 31 47 20 17 32 24 27 16 -6 -11 -5 -12 6 -5
8 5 19 9 24 9 6 0 9 8 7 18 -2 9 2 17 8 17 5 0 10 -4 10 -9 0 -5 12 -8 26 -8
18 0 22 3 15 10 -8 8 -6 17 7 31 9 11 11 16 5 12 -24 -13 -13 4 20 34 29 26
31 30 16 45 -8 8 -19 12 -23 8z"/>
<path d="M24960 17775 c-7 -9 -19 -14 -26 -11 -7 3 -18 -2 -24 -10 -7 -8 -9
-14 -5 -14 4 0 2 -7 -5 -15 -7 -9 -19 -14 -26 -11 -7 3 -24 -10 -39 -27 -14
-18 -28 -31 -31 -29 -2 1 -10 -2 -17 -8 -6 -6 -24 -20 -40 -31 -15 -12 -24
-26 -20 -32 3 -7 2 -9 -2 -4 -8 7 -45 -20 -45 -33 0 -5 7 -11 16 -14 12 -5 14
-1 9 17 -5 20 -5 20 9 -3 8 -14 12 -28 10 -32 -9 -14 12 -16 36 -2 l25 15 -25
-6 c-21 -5 -22 -4 -7 5 10 6 30 13 45 15 15 1 26 8 24 14 -4 20 19 53 34 47 8
-3 13 0 11 7 -1 7 4 11 11 9 7 -1 17 10 22 24 6 16 16 24 24 21 8 -3 23 4 34
16 20 21 22 25 22 48 0 7 11 4 28 -6 l27 -18 -20 24 c-11 13 -26 28 -33 32 -7
5 -10 12 -7 18 10 15 -1 10 -15 -6z"/>
<path d="M24579 17615 c-3 -2 -21 -5 -41 -7 -20 -1 -36 -6 -35 -11 1 -5 -4
-12 -12 -15 -10 -3 -11 0 -5 9 7 12 5 12 -9 0 -18 -14 -22 -22 -9 -20 21 4 31
-3 25 -16 -3 -10 -1 -15 7 -13 7 2 15 -4 17 -12 4 -13 3 -13 -7 0 -10 13 -11
12 -6 -3 5 -15 2 -17 -14 -12 -12 4 -20 2 -20 -5 0 -7 -15 -10 -45 -7 -30 3
-43 2 -38 -6 4 -6 0 -8 -10 -4 -11 4 -15 1 -12 -13 2 -12 -1 -17 -8 -14 -8 3
-13 -6 -15 -20 -1 -14 -2 -29 -3 -33 -1 -4 -1 -19 0 -32 1 -18 4 -21 14 -12 8
6 18 7 22 3 5 -4 5 -2 2 4 -4 7 0 17 8 24 13 11 14 10 9 -6 -4 -10 7 -1 25 20
24 30 29 42 19 49 -9 6 -6 7 9 4 16 -3 33 8 68 44 26 27 52 49 58 49 7 0 4 5
-5 11 -22 12 -24 31 -3 23 8 -4 15 -1 15 6 0 6 5 8 12 4 7 -4 8 -3 4 4 -8 13
-10 14 -17 7z"/>
<path d="M24641 17519 c-13 -5 -35 -21 -50 -37 -15 -15 -40 -36 -55 -47 -15
-11 -43 -35 -62 -53 -19 -19 -34 -30 -34 -26 0 4 -9 -1 -20 -11 -11 -10 -18
-20 -15 -23 3 -3 -1 -12 -7 -21 -7 -9 -8 -13 -4 -9 10 9 36 -9 36 -24 0 -6 -8
-4 -17 3 -16 13 -17 12 -4 -3 19 -25 27 -23 83 23 27 23 51 39 54 36 3 -2 -14
-19 -38 -36 -23 -17 -38 -31 -33 -31 4 0 27 16 51 35 30 25 41 41 37 52 -5 13
-1 15 23 10 16 -3 23 -4 17 -1 -17 8 -16 24 1 24 20 0 82 80 69 88 -5 4 -9 19
-9 35 1 15 2 27 1 26 0 0 -11 -5 -24 -10z"/>
<path d="M24340 17271 c0 -5 -21 -23 -47 -40 -27 -17 -45 -31 -42 -31 11 0
-73 -80 -85 -81 -6 0 -2 -4 9 -9 17 -7 17 -9 3 -9 -10 -1 -18 -6 -18 -12 0 -5
-4 -7 -10 -4 -6 4 -7 -2 -1 -18 9 -23 8 -24 -14 -13 -13 6 -19 14 -13 17 7 4
7 9 0 13 -16 9 -24 -11 -13 -31 5 -10 18 -26 29 -36 17 -15 22 -16 45 -4 15 8
24 17 21 20 -4 3 -17 -1 -29 -9 -14 -9 -26 -11 -29 -6 -3 6 5 13 18 16 14 3
38 18 55 32 17 14 31 21 31 16 0 -6 -5 -12 -11 -14 -7 -2 -4 -10 7 -18 11 -9
15 -10 10 -2 -5 8 -1 12 11 13 10 0 13 3 6 6 -7 2 -13 11 -13 19 0 9 5 12 10
9 6 -3 10 -1 10 5 0 6 6 8 13 4 6 -4 9 -3 4 1 -8 9 21 45 36 45 6 0 2 -7 -9
-15 -10 -8 -14 -15 -8 -15 16 0 33 21 28 35 -7 17 43 55 62 48 13 -5 13 -7 2
-14 -7 -5 -8 -9 -2 -9 24 0 22 14 -6 43 -17 17 -30 34 -30 38 0 4 -7 9 -15 13
-8 3 -15 2 -15 -3z"/>
<path d="M24040 17020 c0 -6 -8 -14 -17 -17 -24 -9 -67 -53 -77 -78 -5 -13
-10 -15 -13 -8 -3 9 -14 4 -32 -15 -37 -36 -45 -63 -27 -88 14 -18 16 -18 46
-1 18 9 36 15 41 11 14 -8 0 -26 -14 -18 -7 4 -9 4 -5 -1 4 -4 3 -14 -3 -22
-6 -7 -7 -13 -2 -13 11 0 63 80 63 98 0 7 4 10 10 7 5 -3 21 12 35 35 14 22
30 40 36 40 5 0 7 -6 4 -12 -4 -7 1 -4 9 6 9 11 21 23 26 26 6 4 1 14 -12 26
-16 13 -19 14 -10 2 7 -9 9 -19 4 -22 -5 -3 -14 5 -20 19 -8 18 -8 25 1 29 7
2 0 5 -15 5 -16 1 -28 -4 -28 -9z"/>
<path d="M23391 16698 c-24 -24 -47 -43 -50 -43 -3 0 -16 -9 -28 -20 -87 -78
-120 -105 -128 -105 -3 0 -16 -9 -28 -20 -12 -11 -56 -48 -96 -82 -72 -60 -74
-63 -47 -66 15 -2 35 3 45 12 24 21 37 20 20 -1 -13 -16 -12 -17 3 -4 10 7 16
17 13 21 -7 11 20 31 29 22 4 -4 6 -1 4 7 -1 7 3 16 11 19 9 3 11 0 6 -8 -5
-9 -4 -11 4 -6 6 4 9 11 6 16 -9 15 37 70 57 70 10 0 18 5 18 11 0 5 -5 7 -11
3 -7 -4 -10 -1 -7 6 2 8 20 19 39 26 19 7 30 13 25 13 -5 1 1 13 15 27 19 20
31 25 56 21 21 -4 36 -1 44 9 8 10 8 14 0 14 -6 0 -11 -5 -11 -11 0 -5 -5 -7
-11 -4 -6 5 -4 12 8 20 10 7 22 11 27 8 5 -4 6 -2 3 4 -8 12 31 46 43 38 6 -4
10 0 11 7 0 7 4 3 9 -9 5 -13 15 -23 22 -23 9 0 9 3 -2 10 -8 5 -11 10 -6 10
5 0 3 7 -4 15 -7 8 -16 12 -21 9 -5 -3 -9 2 -9 10 0 25 -12 19 -59 -26z"/>
<path d="M21306 16643 c-14 -15 -21 -30 -16 -33 5 -3 11 -17 12 -30 2 -14 9
-31 17 -39 11 -13 14 -12 23 2 13 24 31 21 23 -3 -3 -11 -2 -20 2 -20 5 0 10
-16 11 -36 3 -46 18 -74 38 -74 8 0 13 -4 9 -9 -6 -10 21 -41 36 -41 16 0 9
47 -11 73 -11 14 -20 28 -20 31 0 4 -10 20 -22 37 -16 21 -21 41 -19 69 1 24
-2 40 -8 40 -6 0 -11 -8 -11 -17 -1 -16 -2 -16 -11 1 -8 13 -8 20 -1 25 15 9
3 51 -14 51 -7 0 -24 -12 -38 -27z"/>
<path d="M21210 16430 c0 -5 5 -10 11 -10 12 0 92 -81 116 -117 11 -17 25 -23
50 -23 19 0 32 -4 29 -8 -3 -5 11 -14 30 -21 18 -7 34 -16 34 -21 0 -15 69
-80 85 -80 8 0 15 -8 15 -18 0 -11 14 -27 35 -38 24 -12 31 -21 22 -26 -7 -5
0 -6 16 -2 21 5 27 3 27 -11 0 -12 5 -15 20 -10 11 4 20 2 20 -4 0 -14 33 -1
44 18 19 32 12 54 -27 90 -22 20 -46 35 -54 35 -7 -1 -13 5 -13 13 0 9 -6 12
-18 9 -13 -4 -29 4 -51 24 -25 24 -35 28 -50 21 -14 -8 -23 -6 -37 11 -11 11
-30 28 -44 37 -14 9 -25 22 -25 29 0 7 -13 21 -30 30 -16 9 -34 22 -40 28 -31
34 -76 54 -119 54 -25 0 -46 -4 -46 -10z"/>
<path d="M21017 16410 c-60 -11 -69 -18 -30 -26 18 -4 36 -17 47 -35 9 -16 14
-29 10 -29 -4 0 5 -12 20 -26 14 -15 26 -33 26 -40 0 -8 5 -14 10 -14 6 0 10
-13 10 -29 0 -30 18 -41 68 -41 13 0 21 -4 17 -9 -3 -6 4 -19 16 -29 11 -11
23 -38 26 -61 5 -38 8 -41 37 -40 17 1 23 3 14 6 -20 5 -23 29 -8 69 7 18 7
30 0 40 -8 9 -8 19 1 35 9 17 9 24 0 27 -6 2 -11 8 -11 14 0 6 -16 31 -36 54
-25 31 -43 44 -61 44 -21 0 -24 -4 -20 -21 6 -21 5 -21 -11 -3 -21 23 -52 89
-52 109 0 16 -2 16 -73 5z"/>
<path d="M20607 16293 c-4 -3 -7 -15 -7 -25 0 -21 -20 -24 -38 -6 -10 10 -17
7 -34 -10 -19 -19 -21 -25 -10 -42 6 -11 12 -29 12 -40 0 -25 19 -25 68 0 42
22 67 19 83 -12 10 -18 8 -19 -25 -17 -48 5 -52 -4 -14 -32 18 -13 40 -32 50
-41 27 -27 41 -22 36 12 -4 24 -1 30 11 28 9 -2 15 -11 15 -21 -1 -9 2 -14 7
-11 14 8 10 44 -5 50 -8 3 -16 18 -19 34 -4 17 -18 35 -36 46 -16 10 -28 21
-25 26 6 9 -14 50 -30 60 -14 10 -31 10 -39 1z"/>
<path d="M23035 16178 c-15 -13 -37 -32 -49 -44 -11 -12 -31 -26 -43 -33 -13
-6 -28 -21 -34 -32 -8 -15 -8 -19 0 -15 6 4 11 0 11 -8 0 -9 5 -16 10 -16 6 0
10 4 10 9 0 6 12 6 30 1 35 -10 40 -3 8 10 -13 5 -16 9 -8 9 8 0 22 -4 30 -9
12 -8 13 -13 3 -30 -7 -11 -14 -28 -14 -37 -1 -10 -5 -4 -9 12 -7 29 -8 29 -9
-9 -1 -39 -1 -39 19 -21 11 10 23 16 26 12 7 -7 64 50 64 64 0 6 5 9 11 7 10
-3 79 57 79 68 0 2 -9 8 -21 14 -16 9 -26 8 -45 -5 -25 -16 -30 -11 -15 14 5
7 13 11 19 7 17 -10 19 17 3 36 -21 24 -44 23 -76 -4z"/>
<path d="M20404 16119 c-10 -11 -26 -18 -36 -16 -20 6 -42 -10 -51 -35 -5 -14
0 -16 31 -13 20 3 29 2 20 -1 -15 -5 -13 -10 16 -37 18 -18 35 -38 38 -46 4
-13 11 -13 51 -2 27 8 47 20 47 27 0 8 7 14 15 14 8 0 15 -4 15 -8 0 -5 23
-10 50 -11 39 -1 50 2 50 14 0 9 -12 18 -30 22 -20 4 -36 16 -46 34 -8 16 -17
29 -20 29 -3 0 -3 -4 0 -9 7 -10 -17 -21 -45 -21 -18 0 -23 8 -20 40 1 8 -11
21 -26 28 -35 16 -37 16 -59 -9z"/>
<path d="M22362 16099 c-5 -11 -12 -21 -17 -21 -6 0 -9 -4 -8 -8 1 -4 -3 -7
-10 -6 -7 0 -31 -14 -53 -32 -21 -17 -72 -57 -112 -88 -55 -42 -71 -59 -62
-68 8 -8 15 -7 24 6 12 17 14 17 32 -3 10 -11 26 -18 36 -16 11 3 15 1 12 -5
-4 -6 -1 -9 5 -7 7 3 11 7 9 11 -2 3 6 15 16 27 19 21 19 22 0 36 -13 11 -14
14 -4 13 8 -2 21 -11 28 -21 9 -12 21 -16 34 -11 15 4 19 2 16 -7 -3 -8 -17
-14 -33 -14 -19 0 -29 -6 -31 -17 -1 -10 1 -17 4 -17 22 3 32 -2 26 -13 -6 -9
-3 -9 9 0 9 8 15 18 14 22 -1 5 6 15 15 22 16 12 16 15 -3 38 -11 14 -18 21
-17 15 2 -5 0 -11 -4 -12 -21 -7 -27 0 -23 28 3 26 2 29 -11 18 -13 -11 -14
-9 -3 14 13 28 59 65 59 47 0 -5 5 -9 12 -7 6 1 13 -7 15 -18 3 -16 2 -17 -6
-5 -9 12 -11 11 -11 -7 0 -24 24 -22 34 3 3 7 12 11 19 8 8 -3 17 1 20 9 4 10
-2 14 -16 13 -39 -2 -47 16 -21 47 13 16 24 33 24 38 0 16 -10 10 -18 -12z"/>
<path d="M20202 16043 c-6 -2 -9 -10 -5 -16 4 -7 8 -18 10 -26 1 -8 9 -18 17
-23 9 -5 16 -17 16 -26 0 -15 2 -15 10 -2 7 11 10 4 10 -27 0 -45 -12 -54 -39
-28 -9 7 -31 27 -48 43 -18 16 -33 34 -33 39 0 13 -50 47 -58 39 -3 -3 -2 -6
2 -6 5 0 1 -12 -9 -26 -19 -29 -13 -94 8 -94 7 0 20 -9 30 -20 11 -13 13 -20
5 -20 -7 0 -2 -7 10 -16 12 -8 22 -20 22 -26 0 -16 50 -59 87 -75 19 -7 37
-20 40 -29 3 -8 12 -13 19 -10 8 3 14 -1 14 -9 0 -8 7 -15 15 -15 18 0 19 19
3 57 -6 15 -11 31 -10 34 0 3 -10 18 -24 34 -26 30 -22 43 16 50 16 3 28 -2
37 -15 8 -11 19 -17 25 -14 10 6 24 9 67 13 16 1 -137 151 -154 151 -6 0 -16
9 -23 20 -7 12 -16 18 -21 15 -5 -2 -14 1 -20 9 -9 11 -9 15 1 19 7 3 9 5 3 5
-5 0 -16 -2 -23 -5z"/>
<path d="M22849 16021 c-67 -54 -84 -69 -119 -102 -34 -33 -35 -37 -19 -48 12
-7 27 -8 43 -1 37 14 42 30 6 20 -19 -5 -28 -5 -25 1 4 5 14 9 24 9 10 0 28 9
41 20 12 11 26 17 31 15 4 -3 11 0 15 6 5 8 3 9 -6 4 -9 -5 -11 -4 -6 3 4 7
13 12 21 12 8 0 17 4 20 10 3 6 -1 7 -12 4 -17 -5 -17 -5 0 6 21 13 52 -4 40
-23 -3 -6 -1 -7 5 -3 7 4 12 1 12 -7 0 -13 -33 -31 -52 -28 -5 1 -8 -4 -8 -10
0 -5 -4 -7 -10 -4 -6 4 -7 -1 -3 -11 5 -14 3 -16 -11 -11 -9 4 -15 3 -12 -2 3
-5 -2 -15 -11 -22 -15 -12 -16 -12 -10 4 3 9 3 17 -2 17 -5 0 -11 -13 -14 -30
-4 -16 -11 -30 -17 -30 -6 0 -8 5 -4 12 4 7 3 8 -5 4 -8 -6 -5 -15 13 -33 l26
-25 28 28 c15 16 45 43 66 59 74 57 75 62 30 97 -11 9 -28 31 -36 48 l-15 30
-24 -19z"/>
<path d="M20921 15991 c-7 -5 -11 -13 -7 -19 3 -6 2 -22 -4 -37 -6 -15 -6 -24
-1 -20 17 10 24 -18 8 -30 -15 -11 -14 -15 12 -38 16 -14 33 -22 37 -19 4 4 4
-1 1 -10 -4 -12 7 -31 38 -63 25 -25 49 -45 54 -45 5 0 14 -7 21 -15 15 -18
20 -18 40 -5 13 9 13 11 0 20 -8 5 -19 10 -25 10 -5 0 -3 -4 5 -10 8 -5 11
-12 7 -16 -12 -12 -38 18 -32 37 11 33 -16 88 -43 91 -18 2 -27 13 -37 40 -6
20 -19 44 -28 53 -9 8 -14 22 -10 30 3 9 0 21 -6 29 -6 7 -8 16 -4 19 9 10
-10 8 -26 -2z"/>
<path d="M22289 15797 c-40 -34 -85 -71 -98 -82 -14 -11 -36 -32 -50 -46 -15
-14 -46 -39 -70 -55 -32 -20 -40 -30 -28 -32 10 -2 14 -8 11 -13 -3 -6 0 -10
7 -8 28 3 38 -1 33 -15 -3 -7 2 -20 10 -29 8 -8 14 -16 13 -18 -1 -2 0 -3 2
-2 2 2 9 -1 16 -7 12 -10 39 5 104 61 l42 37 -27 28 c-32 35 -58 73 -53 78 2
2 27 20 56 39 49 33 53 34 59 15 3 -11 3 -22 0 -25 -3 -4 -6 -1 -6 5 0 25 -16
10 -27 -25 -14 -46 -1 -72 26 -51 14 12 14 11 3 -4 -34 -43 0 -33 65 19 67 53
89 83 62 83 -5 0 -7 5 -4 10 3 6 1 10 -4 10 -6 0 -11 6 -11 14 0 7 -8 20 -17
27 -11 10 -14 10 -9 2 4 -7 2 -13 -3 -13 -6 0 -11 8 -11 18 -1 45 -16 41 -91
-21z"/>
<path d="M21710 15814 c-25 -20 -59 -49 -75 -65 -17 -16 -35 -29 -40 -29 -6 0
-30 -18 -54 -40 -24 -22 -47 -40 -51 -40 -4 0 -10 -6 -13 -13 -3 -9 3 -13 17
-13 12 1 20 -4 19 -11 -2 -7 3 -12 10 -10 6 1 11 -5 9 -13 -3 -12 -1 -13 10
-2 11 11 10 14 -1 21 -17 11 1 23 22 15 10 -4 15 2 15 21 0 15 6 34 15 42 14
14 18 14 39 -2 l23 -17 -23 5 c-15 3 -22 1 -19 -6 4 -12 45 -16 50 -5 1 3 -10
20 -25 36 -22 25 -24 33 -14 41 8 6 22 8 31 4 14 -5 16 -3 10 7 -5 9 -4 11 4
6 6 -4 9 -11 6 -16 -3 -4 1 -13 9 -19 10 -9 15 -8 20 4 4 11 2 14 -7 9 -8 -5
-8 -2 2 9 7 9 18 14 25 10 6 -4 4 1 -4 11 -13 17 -11 21 22 51 20 19 34 36 30
39 -9 10 -15 7 -62 -30z"/>
<path d="M21804 15662 c-38 -32 -89 -73 -114 -92 -25 -19 -65 -51 -90 -72 -25
-20 -116 -93 -203 -162 -86 -68 -178 -142 -205 -165 -59 -50 -177 -146 -228
-186 -62 -49 -108 -89 -117 -102 -4 -7 -13 -13 -18 -13 -12 0 -282 -209 -413
-319 -49 -42 -102 -85 -117 -96 -16 -11 -62 -47 -105 -79 -74 -58 -76 -60 -70
-95 3 -20 6 -44 6 -53 0 -10 5 -18 11 -18 7 0 9 10 4 27 -5 22 -1 31 26 53 18
16 39 26 49 23 10 -3 21 0 24 6 4 6 0 11 -10 11 -23 0 -10 12 41 39 22 12 36
21 32 21 -5 0 10 18 33 40 23 22 45 40 49 40 13 0 51 -37 51 -49 0 -7 5 -9 10
-6 6 3 10 0 10 -8 0 -8 7 -20 15 -27 16 -13 46 4 121 69 22 20 65 57 96 83
l56 48 -26 28 c-15 16 -34 41 -42 56 -14 26 -13 29 19 57 19 16 42 29 51 29
10 0 20 7 24 15 3 8 10 15 15 15 6 0 8 -6 5 -14 -3 -8 0 -17 7 -21 9 -6 10 0
7 20 -5 23 2 35 37 71 24 23 56 49 71 57 16 8 49 34 74 56 24 23 54 44 67 47
13 4 23 12 23 20 0 8 4 14 10 14 5 0 22 12 39 28 68 64 90 82 99 82 5 0 16
-27 24 -59 16 -63 11 -81 -24 -81 -10 0 -18 -4 -18 -10 0 -5 4 -10 10 -10 16
0 108 68 212 158 l96 83 -21 22 c-73 76 -91 107 -64 107 15 0 97 -87 97 -102
0 -5 5 -8 11 -6 17 6 118 92 118 101 1 5 -3 5 -9 2 -5 -3 -10 -2 -10 3 0 5
-16 30 -35 55 -19 25 -35 51 -35 56 0 23 29 9 64 -29 20 -22 36 -34 36 -26 0
8 14 28 30 46 26 28 35 32 65 27 40 -7 40 -5 -12 59 -28 35 -31 43 -19 53 12
10 21 5 52 -28 20 -23 42 -41 50 -41 8 0 11 -6 7 -16 -9 -23 19 -6 80 49 l49
43 -47 62 c-26 34 -50 62 -54 62 -4 0 -38 -26 -77 -58z"/>
<path d="M21221 15595 c-1 -5 -14 -17 -29 -26 -31 -18 -63 -76 -66 -120 -3
-41 -10 -43 -44 -14 -31 26 -48 33 -37 15 3 -5 0 -10 -7 -11 -7 0 -3 -5 10
-11 24 -12 28 -28 10 -46 -31 -31 58 11 105 49 110 90 109 88 88 118 -10 14
-21 33 -24 41 -3 8 -6 11 -6 5z"/>
<path d="M21314 15502 c-66 -53 -137 -110 -159 -127 -80 -63 -296 -233 -430
-340 -77 -61 -198 -156 -268 -211 -71 -54 -159 -124 -196 -154 -37 -31 -84
-69 -106 -85 -22 -17 -54 -45 -71 -62 -17 -18 -40 -33 -50 -34 -91 -5 -156 7
-217 37 -27 14 -60 24 -75 22 l-27 -4 30 -13 c47 -19 187 -92 217 -112 32 -23
90 -26 82 -5 -8 20 14 30 31 16 11 -9 15 -9 15 -1 0 6 7 11 16 11 14 0 14 3 4
15 -9 10 -9 15 -1 15 6 0 11 6 11 13 0 11 69 66 87 69 4 1 17 13 28 27 48 63
74 67 75 14 0 -13 6 -23 13 -23 8 0 7 -3 -3 -10 -12 -8 -12 -10 4 -16 20 -8
32 0 208 144 111 90 126 106 118 123 -6 10 -20 24 -33 30 -12 6 -24 13 -26 15
-6 5 50 64 60 64 4 0 23 14 41 30 18 17 37 30 43 30 6 0 21 10 32 23 38 41 68
64 91 71 12 4 22 14 22 22 0 8 5 14 10 14 6 0 18 8 29 19 28 28 78 50 89 39 6
-6 13 -5 18 3 4 7 3 14 -4 17 -7 2 5 19 26 39 50 47 92 77 92 64 0 -13 48 -61
61 -61 9 0 140 101 177 137 11 11 10 18 -7 41 -11 16 -27 35 -36 42 -8 7 -15
20 -15 30 0 28 35 14 73 -31 l34 -39 42 31 c30 21 40 34 33 42 -5 7 -6 21 -2
32 5 14 -1 30 -19 52 -14 18 -30 33 -36 32 -5 0 -64 -44 -131 -97z"/>
<path d="M21965 15533 c-16 -14 -45 -39 -64 -55 -18 -16 -32 -31 -30 -33 2 -1
25 0 50 4 l47 7 -11 -30 c-11 -28 -12 -29 -15 -8 -4 24 -18 30 -24 10 -5 -15
26 -71 50 -90 15 -11 15 -10 0 8 -23 27 -23 42 0 21 17 -15 21 -15 58 10 21
15 46 36 55 47 15 18 15 22 -3 53 -11 18 -22 33 -25 33 -2 0 -1 -4 2 -10 3 -5
1 -10 -4 -10 -6 0 -11 7 -11 15 0 15 -30 55 -40 55 -3 0 -18 -12 -35 -27z"/>
<path d="M21816 15399 c-16 -18 -32 -34 -35 -34 -4 0 -20 -10 -36 -22 -23 -17
-26 -22 -12 -23 10 0 15 -4 12 -10 -4 -6 1 -7 11 -3 13 5 15 2 9 -16 -5 -18
-2 -24 14 -28 12 -3 21 -10 21 -15 0 -5 -5 -6 -12 -2 -7 4 -8 3 -4 -5 4 -6 12
-9 17 -6 5 4 9 2 9 -4 0 -22 62 4 86 37 36 48 36 72 3 90 -16 10 -29 21 -29
25 0 5 6 5 13 1 8 -5 8 -2 -2 9 -14 18 -22 22 -20 10 5 -28 -5 -31 -10 -4 l-6
35 -29 -35z"/>
<path d="M22103 15393 c-17 -16 -41 -36 -54 -46 -13 -9 -35 -26 -49 -36 l-25
-19 27 -11 c19 -7 35 -7 50 0 21 9 21 9 -4 4 -15 -3 -30 0 -33 5 -4 7 11 10
43 8 49 -3 49 -3 34 -25 -14 -23 -40 -33 -26 -11 4 7 3 8 -4 4 -17 -10 -15
-46 3 -52 8 -4 15 -16 15 -28 0 -15 3 -17 9 -8 4 8 10 12 12 11 5 -4 52 36 89
75 26 27 26 30 13 57 -8 16 -21 29 -28 29 -16 0 -25 12 -30 41 -6 32 -9 32
-42 2z"/>
<path d="M20075 15390 c-12 -20 6 -48 74 -114 38 -36 64 -66 58 -67 -7 0 0 -5
16 -11 15 -5 27 -15 27 -21 0 -7 9 -18 20 -25 12 -7 18 -17 14 -23 -3 -6 3
-13 15 -16 12 -3 21 -9 21 -14 0 -5 12 -16 26 -25 22 -15 27 -15 34 -4 5 9 4
20 -3 29 -7 8 -11 16 -9 18 7 10 0 23 -13 23 -8 0 -15 4 -15 9 0 4 -35 44 -77
89 -50 52 -89 83 -108 88 -37 8 -62 33 -57 57 4 18 -13 24 -23 7z"/>
<path d="M21641 15264 c-81 -61 -85 -69 -31 -65 10 0 11 -1 3 -5 -15 -7 -17
-30 -3 -39 6 -4 7 1 4 12 -3 10 4 2 17 -17 13 -19 22 -38 21 -42 -1 -5 6 -8
16 -8 14 0 15 -2 2 -10 -8 -5 -10 -10 -3 -10 10 0 60 38 112 87 l23 21 -31 23
c-17 12 -31 28 -31 35 0 7 -5 16 -12 20 -7 5 -8 3 -3 -7 8 -12 6 -12 -8 0 -11
8 -15 21 -12 32 4 11 4 19 2 19 -3 0 -32 -21 -66 -46z"/>
<path d="M21956 15268 c-19 -11 -47 -34 -92 -75 -24 -22 -22 -27 15 -48 9 -5
12 -4 8 2 -10 15 61 73 80 66 12 -5 14 -3 8 7 -6 10 -4 12 9 7 10 -4 19 -7 21
-7 2 0 1 -9 -2 -20 -5 -18 -21 -25 -46 -21 -5 1 -6 -3 -3 -7 3 -5 -3 -17 -14
-27 -13 -11 -20 -14 -20 -6 0 7 -5 9 -11 6 -6 -4 -8 -13 -5 -21 3 -8 1 -14 -4
-14 -5 0 2 -12 15 -26 26 -28 65 -26 65 2 0 8 3 13 8 11 4 -3 25 13 47 34 29
29 35 39 23 39 -10 0 -18 6 -18 13 -1 15 -46 67 -59 67 -6 0 -8 7 -5 15 7 18
5 18 -20 3z"/>
<path d="M21434 15098 c-60 -49 -123 -103 -140 -121 -36 -38 -69 -66 -132
-112 -26 -18 -55 -42 -64 -52 -9 -10 -31 -29 -49 -43 -18 -14 -53 -43 -79 -65
-26 -22 -67 -56 -91 -75 -24 -19 -54 -45 -67 -57 -13 -13 -28 -23 -35 -23 -7
0 -23 -10 -37 -23 -14 -12 -34 -29 -46 -37 -11 -8 -43 -33 -70 -55 -44 -36
-79 -68 -199 -178 -22 -20 -43 -37 -47 -37 -4 0 -30 -19 -57 -42 -28 -24 -62
-52 -77 -63 -46 -34 -126 -116 -120 -122 3 -4 17 -1 31 5 14 7 37 12 51 12 13
0 27 7 31 16 11 29 76 94 95 94 10 0 18 4 18 9 0 5 9 11 20 14 12 3 20 14 20
25 0 12 14 30 33 43 17 13 34 26 37 30 5 7 23 5 61 -6 l24 -6 -23 18 -22 18
29 11 c24 10 31 9 45 -7 9 -11 16 -26 16 -34 0 -8 6 -14 13 -12 6 1 11 -6 11
-15 -2 -16 1 -16 25 -4 14 8 39 28 55 45 l30 31 -22 23 c-12 13 -22 29 -22 35
0 21 28 13 48 -13 l20 -25 49 39 c111 91 139 120 124 130 -8 5 -30 7 -49 4
-29 -5 -38 -2 -53 18 -10 13 -19 27 -19 30 0 14 34 19 43 7 6 -9 7 -8 3 5 -3
9 -1 17 4 17 6 0 10 7 10 15 0 8 12 21 28 29 15 8 36 24 47 36 11 12 31 28 45
35 28 14 90 9 90 -8 0 -7 5 -6 13 2 10 11 10 14 0 18 -14 5 -18 73 -5 73 9 0
48 30 101 76 20 17 65 55 101 83 60 49 67 52 105 45 47 -7 55 -11 55 -26 0 -6
-11 -8 -26 -5 -22 4 -24 2 -12 -9 30 -30 56 -20 146 56 51 43 89 82 90 94 0
11 -12 32 -28 48 -17 15 -30 30 -30 33 0 3 -8 13 -18 23 -18 18 -22 16 -128
-70z"/>
<path d="M19778 15148 c-21 -11 -38 -24 -38 -29 0 -5 -7 -9 -16 -9 -12 0 -8
-8 15 -30 17 -17 31 -37 31 -46 0 -14 3 -14 15 -4 8 7 15 24 15 37 0 22 3 24
31 18 18 -4 49 -25 70 -48 38 -39 43 -49 40 -74 -1 -8 5 -10 14 -7 10 4 15 0
15 -10 0 -9 7 -16 15 -16 17 0 13 15 -19 78 -11 23 -24 42 -28 42 -5 0 -8 9
-8 20 0 11 -4 20 -9 20 -5 0 -13 10 -17 23 -18 59 -61 71 -126 35z"/>
<path d="M21788 15129 c-10 -5 -34 -25 -54 -43 -33 -30 -35 -35 -23 -55 8 -11
17 -21 22 -21 4 0 5 5 1 12 -4 7 -3 8 4 4 6 -4 8 -14 5 -23 -4 -11 4 -25 23
-41 16 -13 22 -21 14 -16 -13 7 -13 5 -2 -9 12 -14 16 -15 29 -2 8 8 17 15 21
15 4 0 25 17 48 38 29 27 37 41 30 49 -23 23 -46 54 -46 62 0 7 -44 42 -52 41
-2 0 -11 -5 -20 -11z"/>
<path d="M20360 15053 c-25 -5 -47 -21 -137 -100 -44 -38 -53 -51 -53 -79 0
-19 -4 -34 -10 -34 -16 0 -12 -50 5 -56 8 -4 15 -13 15 -21 0 -9 12 -26 27
-39 31 -26 42 -23 101 30 21 18 69 58 108 87 l71 55 -34 43 c-18 24 -33 52
-33 62 0 12 -7 19 -20 19 -11 0 -20 5 -20 11 0 5 5 7 10 4 6 -3 10 1 10 9 0 9
-3 15 -7 15 -5 -1 -19 -4 -33 -6z"/>
<path d="M21661 15019 c-27 -11 -69 -46 -181 -153 -41 -39 -100 -90 -130 -114
-30 -23 -85 -68 -121 -100 -175 -151 -247 -210 -270 -222 -13 -7 -40 -27 -60
-44 -20 -17 -78 -65 -129 -106 -51 -41 -109 -93 -129 -116 -20 -22 -56 -56
-81 -75 -25 -19 -45 -38 -45 -42 0 -4 -20 -21 -45 -36 -60 -38 -177 -147 -168
-157 10 -9 78 27 78 41 0 6 3 6 8 -1 12 -18 69 -25 82 -9 9 10 7 15 -9 20 -12
3 -21 13 -21 20 0 14 86 105 99 105 3 0 25 18 49 40 38 37 94 57 76 28 -5 -7
-2 -9 9 -5 11 4 18 -1 22 -14 6 -17 9 -18 23 -7 13 11 14 11 7 -1 -6 -11 -4
-13 8 -8 16 6 16 4 0 -21 -10 -17 -11 -22 -3 -14 8 6 21 12 30 12 9 0 35 16
58 36 l42 36 -46 53 c-25 30 -43 59 -39 65 8 13 35 13 35 -1 0 -16 62 -89 75
-89 6 0 38 24 70 53 l59 53 -33 41 -33 41 17 36 c11 23 24 36 36 36 11 0 19 5
19 10 0 6 6 10 14 10 8 0 20 16 26 35 11 34 45 63 116 103 12 7 44 34 71 61
26 27 65 58 86 70 l37 21 1 -23 c1 -12 1 -26 0 -31 -1 -4 3 -14 9 -21 8 -10 4
-18 -15 -33 -14 -11 -25 -23 -25 -27 0 -4 6 -2 14 4 9 8 16 8 20 2 8 -12 36
-3 36 11 0 5 -4 6 -10 3 -5 -3 -10 -1 -10 4 0 6 7 11 15 11 17 0 20 17 4 22
-13 4 -31 92 -23 113 4 8 11 15 17 15 6 0 22 11 36 24 20 19 31 22 49 15 13
-5 22 -17 22 -29 0 -11 5 -20 11 -20 6 0 9 6 6 14 -8 20 35 29 67 15 29 -13
35 -10 122 70 l60 54 -21 22 c-38 41 -53 63 -47 70 4 4 0 5 -8 3 -9 -2 -14 4
-14 15 1 9 1 17 0 16 0 0 -12 -5 -25 -10z"/>
<path d="M21589 14692 c-35 -26 -79 -63 -208 -177 -178 -157 -219 -197 -215
-209 3 -9 24 5 58 40 29 30 58 54 64 54 7 0 12 5 12 10 0 17 18 11 39 -12 11
-11 18 -26 14 -31 -3 -6 -1 -7 6 -3 6 4 32 -6 57 -23 49 -34 61 -36 84 -20 13
9 12 10 -2 5 -14 -4 -18 0 -18 19 0 14 -5 25 -11 25 -6 0 -9 7 -5 15 3 8 1 15
-4 15 -6 0 -10 -5 -10 -11 0 -8 -5 -7 -15 1 -9 7 -14 18 -12 24 10 30 -46 40
-80 14 -7 -5 -14 -5 -18 2 -3 5 0 10 9 10 8 0 32 17 54 38 56 53 71 59 122 55
57 -5 84 -23 106 -68 15 -33 16 -79 4 -194 0 -2 -7 -1 -15 3 -8 3 -15 2 -15
-2 0 -16 32 -52 46 -52 8 0 13 -3 12 -7 -4 -16 26 -119 43 -147 11 -19 16 -40
12 -58 -5 -24 -3 -27 11 -22 9 4 16 3 15 -2 -4 -25 4 -34 32 -34 19 0 28 4 24
11 -4 6 -13 8 -21 5 -7 -3 -16 -1 -19 4 -3 4 0 10 6 12 9 3 7 11 -4 29 -8 13
-18 44 -22 68 -7 47 -24 81 -40 81 -5 0 -3 5 5 10 10 6 11 10 3 10 -21 0 -15
17 7 23 14 4 25 -2 35 -16 8 -12 27 -30 43 -39 27 -16 31 -16 42 -3 11 13 10
19 -3 33 -47 51 -56 62 -49 62 4 0 -1 5 -10 11 -9 5 -15 16 -12 23 3 8 -4 19
-16 26 -18 9 -19 14 -9 26 10 13 10 17 -2 25 -12 8 -12 10 1 19 11 7 12 10 2
10 -17 0 -51 40 -52 60 0 8 -11 38 -25 65 -13 28 -25 56 -25 63 0 7 -4 11 -9
8 -5 -3 -12 2 -16 12 -6 16 -7 16 -21 -2 -14 -19 -14 -19 -14 2 0 12 -5 22
-11 22 -21 0 41 42 79 53 25 7 31 12 19 15 -11 2 -16 10 -13 18 9 24 -8 23
-45 -4z"/>
<path d="M21026 14215 c-37 -20 -124 -96 -258 -227 -60 -58 -117 -110 -126
-114 -16 -6 -16 -7 1 -11 20 -5 47 13 47 31 0 24 86 47 100 27 14 -21 69 -43
86 -36 11 4 25 9 31 9 7 1 14 6 15 11 2 11 2 12 85 83 34 28 67 52 73 52 6 0
8 4 5 10 -3 5 3 19 14 31 20 21 20 22 1 59 -10 20 -25 42 -34 49 -8 7 -12 19
-9 27 6 17 5 17 -31 -1z"/>
<path d="M19713 14210 c-39 -3 -75 -8 -78 -12 -4 -4 10 -15 31 -24 74 -32 149
-69 174 -85 31 -21 209 -83 216 -76 3 3 -5 20 -17 37 -23 30 -23 32 -6 61 21
37 21 49 3 49 -9 0 -12 7 -9 21 5 18 3 20 -17 14 -15 -5 -25 -2 -31 6 -9 15
-126 19 -266 9z"/>
<path d="M20754 13216 c-8 -20 5 -39 22 -32 9 3 14 -1 14 -12 0 -10 -17 -25
-40 -36 -22 -11 -40 -23 -40 -28 0 -4 -5 -8 -11 -8 -7 0 -9 11 -5 30 4 22 2
30 -9 30 -8 0 -15 5 -15 11 0 7 -11 9 -29 6 -15 -3 -33 -1 -38 4 -8 8 -13 7
-18 -2 -5 -7 1 -20 16 -32 13 -10 24 -23 24 -28 0 -4 5 -13 12 -20 10 -10 16
-9 28 1 13 10 15 9 15 -6 1 -11 2 -48 4 -84 1 -36 -2 -71 -7 -78 -5 -6 -7 -26
-3 -42 5 -25 2 -30 -14 -30 -22 0 -25 -16 -10 -55 8 -21 13 -25 24 -16 7 6 16
8 19 4 4 -3 7 -1 7 5 0 6 13 9 33 6 26 -3 41 4 79 36 61 53 128 155 128 196 0
42 -38 95 -78 108 -18 6 -39 23 -45 36 -8 15 -20 24 -31 22 -10 -2 -15 1 -12
7 4 5 2 12 -4 16 -6 3 -13 -1 -16 -9z"/>
<path d="M20361 13106 c-14 -36 -2 -107 18 -104 10 2 16 -4 17 -17 1 -11 2
-22 4 -25 1 -3 4 -23 6 -45 2 -22 8 -41 13 -43 5 -2 8 -9 5 -17 -7 -17 23 -33
70 -39 l35 -5 -14 32 c-7 18 -22 36 -32 42 -10 5 -20 13 -23 16 -3 3 -13 8
-22 12 -11 4 -18 17 -18 32 0 21 5 25 28 25 26 0 62 15 52 22 -26 16 -52 28
-65 28 -8 0 -15 5 -15 10 0 6 -7 10 -15 10 -9 0 -12 6 -9 15 4 8 1 15 -6 15
-6 0 -8 5 -4 11 3 6 0 15 -7 20 -10 6 -11 9 -1 9 6 0 12 5 12 10 0 19 -21 10
-29 -14z"/>
<path d="M19075 12952 c-38 -32 -90 -72 -115 -89 -62 -43 -109 -93 -87 -93 9
0 39 -20 67 -45 28 -25 53 -45 56 -45 3 0 19 8 35 17 25 15 28 21 23 50 -11
59 30 80 94 47 30 -15 34 -14 64 7 18 12 45 34 59 47 l25 25 -24 24 c-13 13
-27 21 -33 18 -5 -4 -14 5 -21 19 -6 14 -14 26 -18 26 -11 0 -127 -77 -134
-89 -4 -6 -16 -11 -27 -11 -29 0 -16 15 54 61 67 45 89 67 81 80 -10 18 -30 8
-99 -49z"/>
<path d="M20028 12929 c-35 -13 -90 -99 -88 -136 4 -52 0 -73 -12 -70 -22 4
-20 -52 2 -98 12 -25 25 -43 30 -40 4 3 13 -1 19 -9 14 -17 48 -10 75 16 26
24 30 23 43 -12 18 -47 37 -38 29 14 -6 36 -4 45 11 50 13 6 14 9 4 15 -10 6
-5 19 19 53 68 96 55 178 -33 216 -33 14 -62 14 -99 1z"/>
<path d="M20910 12715 c0 -14 -5 -34 -12 -45 -9 -15 -9 -24 1 -44 8 -13 11
-33 9 -44 -4 -12 2 -26 15 -37 20 -18 20 -18 -9 -30 -30 -13 -25 -19 21 -27
11 -2 20 -11 19 -19 -1 -11 10 -16 35 -17 20 -2 44 -5 53 -8 12 -3 18 2 20 18
4 27 -12 78 -25 78 -4 0 -6 4 -3 9 3 5 -3 19 -13 32 -41 53 -91 129 -91 138 0
6 -4 13 -10 16 -6 4 -10 -5 -10 -20z"/>
<path d="M19765 12553 c-48 -63 -73 -92 -77 -88 -2 2 -5 -13 -6 -34 -2 -22 2
-42 7 -46 6 -3 8 -12 5 -20 -3 -7 4 -18 16 -25 21 -11 22 -10 18 27 -2 31 0
38 14 37 10 -1 20 8 24 20 4 11 17 33 30 49 20 24 22 31 12 60 -16 47 -21 50
-43 20z"/>
<path d="M19570 12173 c0 -3 7 -14 16 -24 9 -10 17 -29 18 -43 0 -14 3 -26 6
-26 3 0 3 -22 2 -50 l-4 -50 35 0 c25 0 37 5 40 18 4 16 5 16 6 0 1 -23 30
-23 38 -1 4 9 -1 29 -10 45 -9 17 -17 36 -17 44 0 8 -7 14 -15 14 -9 0 -19 8
-22 17 -14 37 -93 84 -93 56z"/>
</g>
</svg>
