<?xml version="1.0" standalone="no"?>
<!DOCTYPE svg PUBLIC "-//W3C//DTD SVG 20010904//EN"
 "http://www.w3.org/TR/2001/REC-SVG-20010904/DTD/svg10.dtd">
<svg version="1.0" xmlns="http://www.w3.org/2000/svg"
 width="1631.000000pt" height="2777.000000pt" viewBox="0 0 1631.000000 2777.000000"
 preserveAspectRatio="xMidYMid meet">
<metadata>
Created by potrace 1.13, written by Peter Selinger 2001-2015
</metadata>
<g transform="translate(0.000000,2777.000000) scale(0.100000,-0.100000)"
fill="#000000" stroke="none">
<path d="M7170 26205 c-52 -13 -109 -24 -126 -25 -34 0 -156 -40 -218 -72
-124 -63 -304 -221 -346 -305 -18 -35 -26 -70 -30 -127 -5 -75 -7 -80 -35 -97
-16 -10 -39 -18 -50 -18 -26 -2 -260 -227 -270 -261 -4 -14 -15 -43 -25 -65
-62 -142 -77 -261 -60 -470 6 -70 7 -160 3 -216 -5 -53 -5 -111 -1 -130 7 -37
-2 -49 -38 -49 -11 0 -30 -10 -42 -23 -28 -30 -28 -70 -2 -247 12 -74 27 -178
35 -230 29 -189 70 -277 150 -314 19 -9 35 -18 35 -20 0 -1 4 -27 10 -57 5
-30 12 -74 15 -99 3 -25 11 -63 17 -85 5 -22 12 -47 13 -55 27 -121 97 -317
129 -360 13 -18 34 -55 53 -91 16 -33 46 -281 40 -332 -8 -56 -45 -107 -80
-107 -44 0 -97 -33 -163 -102 -44 -45 -84 -75 -145 -106 -88 -45 -100 -51
-244 -130 -49 -27 -135 -69 -190 -93 -55 -24 -129 -60 -165 -80 -174 -97 -268
-147 -300 -159 -34 -13 -66 -26 -164 -69 -27 -11 -54 -21 -61 -21 -7 0 -56
-14 -110 -31 -82 -27 -100 -37 -118 -65 -12 -18 -34 -39 -48 -48 -37 -22 -131
-125 -181 -199 -23 -34 -72 -103 -109 -152 -111 -150 -212 -325 -274 -475 -65
-158 -101 -287 -176 -630 -34 -157 -52 -225 -65 -245 -8 -12 -14 -27 -12 -31
4 -16 -24 -118 -40 -146 -12 -21 -13 -30 -3 -41 14 -18 7 -53 -25 -124 -13
-28 -24 -56 -24 -61 0 -6 -9 -27 -19 -49 -67 -136 -124 -260 -124 -270 0 -7
-4 -13 -9 -13 -4 0 -8 -4 -8 -10 0 -5 -19 -42 -43 -82 -41 -71 -147 -281 -147
-293 0 -4 -11 -31 -25 -61 -14 -30 -25 -56 -25 -59 0 -2 -45 -97 -101 -212
-200 -414 -219 -456 -219 -476 0 -9 -4 -18 -9 -21 -15 -10 -55 -227 -60 -326
-12 -242 -10 -345 8 -470 25 -170 47 -283 60 -307 6 -10 24 -58 41 -108 17
-49 38 -100 45 -112 8 -12 31 -71 51 -132 19 -61 46 -132 58 -158 13 -27 31
-72 41 -102 9 -29 24 -65 31 -80 8 -14 14 -32 14 -39 0 -7 12 -33 26 -58 34
-58 33 -96 -5 -229 -141 -495 -156 -1035 -45 -1649 14 -72 14 -95 4 -125 -7
-21 -10 -61 -7 -90 4 -45 11 -59 46 -95 23 -23 41 -47 41 -54 0 -19 74 -239
105 -311 54 -129 148 -251 254 -332 35 -27 72 -49 82 -49 10 0 21 -5 24 -10 3
-5 17 -10 30 -10 13 0 25 -5 27 -11 2 -5 27 -11 56 -11 28 -1 50 -3 48 -5 -2
-2 11 -20 29 -39 31 -32 65 -45 65 -24 0 6 27 10 61 10 50 0 59 -2 50 -13 -8
-11 -5 -17 13 -27 24 -12 36 -37 36 -73 0 -11 15 -44 34 -75 l34 -57 -10 -335
c-6 -228 -6 -493 1 -830 6 -272 10 -580 11 -685 0 -104 5 -247 12 -317 10
-108 9 -141 -4 -225 -13 -79 -13 -105 -4 -138 15 -51 -3 -273 -27 -327 -23
-50 -27 -112 -12 -183 8 -37 11 -97 7 -160 -5 -94 -7 -102 -41 -149 -34 -48
-36 -55 -36 -131 -1 -52 -9 -106 -23 -156 -80 -275 -91 -783 -26 -1289 14
-107 29 -285 34 -395 6 -110 14 -218 19 -240 28 -122 32 -167 32 -345 0 -111
6 -242 14 -304 15 -114 51 -273 66 -292 5 -6 27 -68 49 -138 31 -95 39 -135
34 -161 -3 -19 -10 -35 -14 -35 -4 0 -13 -20 -20 -45 -25 -88 15 -441 53 -480
11 -10 17 -29 15 -44 -3 -23 -9 -27 -64 -37 -34 -6 -79 -18 -100 -26 -21 -9
-59 -19 -84 -23 -67 -10 -80 -15 -80 -31 0 -15 11 -14 105 11 28 8 70 16 95
19 25 3 54 8 63 12 11 4 17 1 17 -7 0 -14 -58 -59 -76 -59 -15 0 -190 -107
-262 -160 -103 -75 -118 -143 -41 -183 44 -23 87 -17 126 20 48 45 85 74 90
70 12 -12 -106 -215 -164 -280 -17 -19 -49 -47 -71 -61 -22 -14 -55 -44 -74
-66 -18 -23 -45 -56 -59 -73 -38 -47 -166 -282 -222 -407 -8 -19 -27 -62 -42
-95 -37 -83 -43 -104 -65 -233 -23 -129 -25 -214 -8 -262 19 -57 65 -115 113
-145 25 -16 45 -33 45 -38 0 -4 3 -6 8 -4 4 3 25 -4 47 -15 61 -30 266 -39
404 -16 108 18 197 43 206 59 4 5 13 9 22 9 44 0 287 137 335 189 21 22 41 41
45 41 15 0 93 95 114 137 19 39 24 71 29 178 5 90 11 139 23 161 9 17 50 54
94 84 43 29 95 68 115 87 21 18 50 36 65 39 36 9 140 80 158 108 8 11 29 29
48 39 19 11 40 30 46 43 22 50 8 358 -18 373 -10 7 -11 28 -6 92 5 59 2 120
-10 204 -19 132 -21 122 40 235 13 25 38 80 55 123 27 68 30 85 24 140 -4 42
-1 89 10 143 23 111 29 227 16 304 -8 51 -7 86 5 165 25 164 30 461 11 685 -9
107 -21 222 -27 256 -9 52 -7 73 11 150 63 259 96 539 110 953 6 163 15 359
20 436 5 77 10 157 10 177 0 30 7 44 35 70 34 31 36 35 34 93 -1 35 6 91 16
129 15 54 22 67 42 72 31 8 43 33 37 75 -5 28 6 59 59 169 35 75 85 196 110
270 50 149 142 479 176 635 13 55 33 141 47 192 13 50 27 118 30 150 4 37 18
78 37 113 17 30 34 78 38 108 4 29 20 76 35 105 37 71 131 314 159 414 13 46
35 107 49 137 14 29 30 75 36 101 6 26 21 71 34 99 13 28 31 78 40 111 9 33
32 103 50 155 38 111 62 180 119 345 48 142 72 194 101 217 45 37 70 17 105
-85 11 -31 22 -76 24 -100 3 -25 12 -59 21 -75 9 -17 16 -40 16 -51 0 -11 7
-41 16 -67 22 -66 26 -81 33 -150 4 -43 20 -88 52 -155 26 -52 67 -155 93
-229 25 -74 71 -207 101 -295 31 -88 68 -194 82 -235 14 -41 45 -124 68 -185
46 -117 107 -284 145 -400 13 -38 26 -72 30 -75 8 -7 68 -207 90 -300 10 -41
23 -124 29 -185 15 -132 47 -321 67 -392 8 -28 26 -100 39 -160 69 -315 103
-409 193 -539 27 -38 32 -54 27 -78 -15 -71 -17 -109 -7 -130 6 -11 20 -41 31
-67 19 -44 76 -105 154 -163 20 -16 37 -33 37 -39 0 -15 -40 -96 -51 -103 -5
-3 -9 -26 -9 -51 0 -41 6 -55 48 -107 44 -57 47 -64 45 -116 -30 -1046 -31
-1010 27 -1425 16 -115 36 -277 45 -360 8 -82 22 -175 30 -205 18 -66 35 -269
35 -435 1 -97 -3 -131 -20 -180 -24 -68 -41 -321 -45 -682 l-2 -202 -31 -36
c-18 -19 -34 -48 -38 -63 -3 -15 -10 -40 -16 -55 -8 -20 -8 -48 0 -95 6 -37
14 -96 17 -132 9 -91 13 -100 48 -116 18 -8 39 -18 47 -24 8 -5 27 -11 42 -14
26 -6 26 -7 11 -36 -8 -17 -19 -56 -24 -88 -5 -31 -14 -88 -21 -127 -6 -38
-12 -106 -12 -150 -1 -59 -5 -84 -17 -96 -13 -13 -16 -44 -18 -166 -1 -83 3
-161 8 -174 5 -13 12 -41 16 -61 4 -24 20 -52 46 -80 22 -24 47 -54 56 -68 8
-14 30 -36 49 -49 19 -13 34 -27 34 -32 0 -5 7 -9 16 -9 17 0 104 -84 104
-101 0 -5 19 -18 42 -30 64 -32 79 -56 105 -164 10 -43 14 -107 12 -225 -3
-187 2 -228 40 -283 14 -21 34 -53 43 -71 22 -39 87 -106 102 -106 7 0 27 -16
45 -37 44 -49 104 -86 176 -106 33 -9 61 -21 63 -27 6 -18 90 -70 112 -70 11
0 34 -7 51 -15 50 -26 129 -37 269 -36 132 0 201 13 236 42 7 6 18 8 23 5 5
-4 18 7 28 24 10 17 28 33 40 36 13 4 23 10 23 15 0 5 6 9 13 9 8 0 22 9 32
20 10 11 20 18 23 15 12 -12 62 31 62 52 0 13 7 26 16 30 8 3 13 12 10 19 -3
7 -1 16 3 19 13 7 20 55 9 61 -5 3 -5 11 1 18 6 7 7 26 2 47 -5 20 -5 56 -2
80 5 38 6 87 2 152 -1 9 -8 17 -18 17 -9 0 -14 -3 -10 -6 3 -3 -3 -21 -14 -41
-11 -19 -21 -44 -23 -56 -6 -41 -26 -30 -26 15 0 23 -3 81 -6 127 -5 64 -3 85
7 92 19 12 21 166 2 185 -8 8 -10 14 -4 14 12 0 -6 58 -25 81 -8 8 -14 22 -14
31 0 8 -3 18 -7 22 -4 3 -8 13 -9 20 -1 7 -10 26 -20 42 -11 15 -18 35 -16 44
1 10 -11 32 -28 50 -16 17 -30 37 -30 44 -1 26 -101 170 -134 192 -20 14 -36
31 -36 39 0 7 -3 15 -7 17 -14 6 -82 108 -149 226 -26 45 -52 82 -56 82 -5 0
-7 4 -3 10 3 5 -6 32 -20 59 -14 28 -25 54 -25 59 0 10 -34 87 -50 112 -5 8
-23 44 -40 80 -32 69 -38 110 -17 110 29 0 176 -109 271 -200 56 -53 111 -102
123 -109 65 -34 5 59 -85 129 -29 23 -57 51 -63 61 -5 11 -46 44 -89 75 -81
56 -91 74 -42 74 15 0 39 8 53 18 15 9 44 29 66 44 28 18 42 36 47 58 11 56 7
79 -15 91 -21 11 -95 8 -136 -6 -31 -10 -39 14 -19 57 31 67 46 122 46 173 0
52 -2 55 -51 97 -47 41 -51 47 -44 76 9 43 39 79 86 102 53 28 63 58 94 268
14 97 30 200 35 227 18 87 19 95 29 173 23 184 33 448 26 685 -4 133 -8 250
-7 260 0 9 -4 17 -10 17 -7 0 -7 4 0 13 5 6 12 53 15 102 2 50 12 135 21 190
9 55 21 127 26 160 41 288 39 269 61 520 11 131 8 673 -5 693 -8 13 -17 140
-16 223 1 51 -3 68 -14 72 -12 5 -14 18 -11 54 2 34 -1 53 -12 65 -8 9 -12 22
-8 28 4 6 2 16 -3 23 -5 7 -12 50 -15 96 -5 60 -12 90 -24 104 -15 16 -18 38
-18 140 0 87 -4 122 -13 125 -6 2 -12 10 -12 18 0 9 -4 13 -9 10 -15 -10 -29
17 -41 79 -15 76 -15 68 9 150 18 58 19 74 9 102 -7 18 -18 33 -25 33 -7 0
-13 7 -13 15 0 8 -8 15 -18 15 -16 0 -18 8 -14 82 2 52 -1 90 -9 105 -10 18
-10 37 1 92 12 65 12 72 -9 115 -21 46 -21 54 -27 819 -7 997 -8 1067 -29
1225 -9 73 -15 154 -12 180 2 26 0 184 -6 352 l-11 305 28 42 c31 46 30 74 -3
122 -12 18 -22 65 -30 145 -7 66 -17 130 -22 143 -5 13 -9 61 -9 106 0 93 -24
307 -39 352 -5 17 -15 66 -22 110 -6 44 -19 121 -29 170 -49 243 -74 380 -85
460 -12 89 -24 244 -24 317 -1 54 -5 79 -15 85 -15 9 -38 355 -32 493 1 41 -1
86 -6 98 -36 101 -51 320 -26 365 17 30 16 330 0 510 -14 140 -9 249 19 452
23 165 -14 651 -57 753 -8 19 -14 45 -14 58 0 13 -8 25 -18 28 -14 5 -18 17
-19 54 0 26 -8 64 -17 83 -25 52 -36 99 -25 99 6 0 30 -14 55 -31 42 -28 95
-55 260 -128 99 -44 175 -43 259 4 68 38 115 61 197 100 31 14 73 42 92 61 31
31 66 106 66 142 0 29 88 127 173 191 64 49 123 130 133 182 4 19 10 39 14 44
15 20 40 110 40 141 0 18 4 34 9 36 13 5 -9 139 -24 144 -7 3 -11 13 -8 23 5
21 -29 91 -90 183 -20 31 -40 38 -30 11 4 -10 2 -14 -5 -9 -6 3 -14 1 -18 -5
-4 -7 -3 -9 3 -6 5 4 16 -4 23 -18 13 -24 8 -55 -9 -55 -13 0 -39 58 -43 95
-3 42 -17 58 -34 44 -8 -6 -14 -18 -14 -25 0 -8 -5 -14 -11 -14 -6 0 -8 7 -5
16 4 9 0 21 -8 28 -13 9 -11 20 14 73 32 69 40 139 27 236 -6 40 -5 57 3 57 6
0 13 -8 16 -17 3 -10 12 -30 19 -44 21 -39 24 -97 8 -139 -11 -27 -12 -43 -5
-56 8 -13 12 -2 22 56 10 62 10 91 -5 199 -14 99 -16 154 -10 261 4 74 8 153
9 175 1 22 5 65 9 95 4 30 9 89 11 130 3 41 17 145 31 230 56 329 58 657 5
805 -11 33 -31 100 -44 148 l-23 88 231 231 c209 209 353 343 469 437 23 18
87 55 142 81 106 51 149 59 405 75 170 10 185 14 280 71 114 69 131 73 158 39
l21 -26 45 26 c24 14 50 32 56 40 7 8 18 15 25 15 8 0 16 6 18 13 9 21 27 -15
20 -40 -3 -16 -1 -23 8 -23 11 0 11 -2 1 -8 -14 -9 -6 -42 10 -42 5 0 6 5 3
10 -3 6 2 10 12 11 50 3 57 5 61 17 3 9 -3 12 -14 10 -20 -3 -21 2 -9 41 5 16
4 21 -4 17 -15 -10 -13 15 3 37 10 13 11 26 3 56 -8 30 -8 43 3 55 15 19 223
146 238 146 6 0 19 -11 30 -25 11 -14 25 -25 32 -25 11 0 67 35 80 50 10 12
62 30 84 30 15 0 36 14 56 36 26 30 31 43 28 76 -3 39 -2 40 53 71 31 18 85
49 121 70 36 20 69 37 75 37 5 0 15 -11 21 -25 16 -35 35 -32 118 20 78 49 94
54 89 28 -2 -10 -6 -40 -10 -68 -5 -48 -5 -49 11 -27 9 13 14 26 11 29 -3 3
-2 16 3 28 6 16 5 25 -3 29 -9 3 -9 5 1 5 6 1 12 9 12 18 0 10 12 27 28 39 21
17 27 31 27 60 l0 37 159 86 c87 47 163 93 168 101 12 19 -59 177 -83 185 -23
8 -47 84 -30 95 10 6 10 13 -4 34 -14 21 -17 41 -13 102 6 85 -12 148 -50 184
-12 12 -22 28 -22 36 0 22 -58 104 -74 104 -19 0 -136 60 -136 70 0 5 -9 12
-20 15 -11 3 -20 12 -20 20 0 7 -7 16 -16 19 -8 3 -24 26 -35 51 -11 25 -24
45 -28 45 -5 0 -31 -16 -57 -35 -27 -19 -75 -52 -107 -73 -32 -20 -72 -47 -90
-59 -18 -12 -63 -43 -102 -69 -38 -26 -74 -53 -78 -61 -11 -17 -34 -17 -44 2
-8 13 -13 12 -43 -3 -29 -14 -36 -23 -38 -52 -3 -33 -11 -41 -170 -147 -92
-61 -183 -119 -202 -129 -19 -9 -39 -23 -43 -30 -7 -12 -12 -11 -30 1 -20 13
-26 12 -55 -5 -24 -15 -32 -27 -32 -48 0 -21 -10 -35 -37 -56 -58 -42 -213
-139 -263 -165 -25 -13 -55 -32 -67 -44 -13 -11 -24 -19 -26 -16 -1 2 -10 20
-19 39 l-17 35 1 -43 c1 -48 -9 -65 -23 -39 -9 15 -13 16 -39 2 -36 -18 -58
-54 -41 -65 16 -10 8 -16 -181 -131 -90 -55 -171 -110 -180 -122 -30 -37 -111
-142 -136 -174 -19 -26 -144 -119 -210 -158 -9 -6 -40 -25 -68 -44 -45 -30
-51 -37 -48 -65 1 -17 32 -89 67 -161 103 -208 137 -281 137 -293 0 -17 -37
-33 -67 -30 -20 2 -28 -2 -28 -13 0 -15 -108 -126 -346 -356 -46 -44 -151
-149 -234 -233 -82 -84 -170 -169 -195 -189 -25 -20 -74 -67 -110 -105 -60
-63 -100 -95 -100 -81 0 4 36 44 80 90 44 46 80 88 80 94 0 5 6 11 14 13 23 5
376 354 376 371 0 10 7 17 16 17 10 0 106 88 215 196 l197 196 -65 132 c-36
72 -75 151 -86 176 -11 25 -26 57 -34 72 -7 14 -13 33 -13 42 0 9 -3 16 -6 16
-12 0 -72 -55 -260 -239 -331 -324 -401 -391 -406 -391 -3 0 -21 15 -40 34
-27 26 -47 36 -84 41 -27 4 -98 27 -159 52 -60 25 -148 58 -194 74 -46 16 -91
35 -100 42 -9 8 -25 19 -37 25 -33 17 -170 52 -205 52 -22 0 -32 5 -36 20 -3
11 -14 20 -24 20 -11 0 -19 4 -19 8 0 4 -20 13 -44 21 -74 22 -352 165 -479
247 -37 24 -70 44 -72 44 -8 0 -100 64 -134 93 -26 22 -40 28 -62 23 -21 -4
-31 0 -43 19 -9 13 -16 33 -16 44 0 46 -36 76 -105 90 -21 5 -36 17 -48 41
-19 35 -19 112 -2 430 2 31 31 148 69 273 36 119 66 227 66 240 0 14 13 30 34
45 18 12 40 39 49 60 20 48 54 166 63 217 6 43 19 88 41 149 8 22 19 65 24 95
5 31 19 95 31 142 l22 86 -23 32 c-17 23 -29 31 -43 28 -18 -5 -19 -2 -14 41
15 115 24 166 36 212 24 93 50 331 48 438 -1 62 -5 118 -9 124 -4 6 -1 18 7
26 10 9 14 32 13 66 -1 28 4 67 10 85 9 31 8 38 -11 58 -18 20 -19 23 -5 23 9
0 17 2 17 4 0 3 -22 40 -50 83 -27 43 -57 94 -67 113 -10 19 -31 47 -48 63
-25 23 -28 29 -15 37 13 8 10 14 -15 35 -16 13 -34 25 -40 25 -5 0 -23 11 -38
24 -24 20 -26 24 -13 35 8 7 20 10 25 7 5 -4 12 -2 15 3 8 13 -49 87 -87 113
-74 50 -137 100 -137 109 0 5 -11 14 -24 19 -14 5 -55 27 -92 50 -37 22 -87
45 -113 52 -25 6 -53 16 -61 23 -42 36 -113 47 -315 50 -184 3 -208 2 -295
-20z m1234 -6973 c-203 -202 -435 -430 -515 -507 -79 -77 -224 -218 -321 -312
-97 -95 -181 -173 -187 -173 -6 0 -11 7 -11 15 0 8 6 15 14 15 18 0 176 149
176 166 0 7 15 21 33 33 27 16 74 63 185 182 7 8 57 55 111 104 54 50 99 98
100 107 1 10 7 15 14 13 15 -6 227 206 227 228 0 9 9 17 20 19 27 4 230 207
230 229 0 11 7 19 15 19 8 0 70 52 138 115 245 230 133 106 -229 -253z m-3449
-468 c8 -20 15 -55 15 -78 0 -22 9 -70 20 -104 26 -83 25 -91 -10 -132 -38
-44 -37 -60 1 -138 33 -69 34 -118 3 -181 -10 -19 -15 -57 -15 -100 l0 -70
-36 -18 c-55 -27 -60 -42 -34 -105 l22 -54 -20 -45 c-34 -75 -51 -158 -61
-284 -6 -66 -13 -141 -16 -167 -5 -45 -4 -48 17 -48 12 0 20 -2 18 -5 -3 -2
-44 1 -91 7 -90 12 -145 7 -297 -29 -125 -29 -293 -122 -414 -230 -48 -43 -57
-42 -46 6 5 21 13 100 19 175 18 238 66 374 214 611 18 28 49 84 71 125 21 41
48 91 60 110 12 19 25 43 28 53 13 36 113 174 247 342 142 178 214 277 246
335 22 40 35 60 40 60 2 0 11 -16 19 -36z m1399 -186 c33 -17 66 -36 74 -44 7
-8 26 -21 40 -29 36 -19 71 -58 115 -130 49 -81 55 -111 29 -136 -27 -25 -27
-25 -42 14 -19 50 -70 148 -102 194 -31 46 -128 127 -186 155 -23 11 -27 15
-12 12 14 -4 52 -20 84 -36z m3159 -49 c12 -6 32 -21 44 -32 20 -18 30 -19
109 -13 73 6 86 5 81 -7 -3 -8 -1 -19 5 -25 6 -6 0 -15 -21 -25 -39 -20 -130
-16 -162 6 -13 9 -31 17 -39 17 -20 0 -52 34 -74 77 l-16 33 26 -10 c14 -6 35
-15 47 -21z m-3513 -254 c13 -14 20 -25 15 -25 -5 0 -4 -5 3 -12 24 -24 7
-137 -33 -222 -28 -58 -120 -153 -157 -161 -59 -13 -93 65 -69 160 9 35 10 36
9 10 0 -49 1 -55 15 -55 21 0 77 -30 77 -41 0 -21 30 -6 56 29 15 20 31 39 34
42 14 10 18 50 6 50 -8 0 -11 19 -8 65 4 56 2 66 -14 71 -35 13 -45 25 -33 41
19 23 2 26 -20 4 -12 -12 -25 -21 -31 -21 -5 0 -7 -7 -3 -15 3 -9 -2 -21 -11
-28 -16 -12 -16 -14 3 -31 30 -27 26 -46 -8 -46 -17 0 -33 5 -36 10 -4 6 -29
10 -56 9 -58 -2 -74 9 -65 45 7 29 50 46 69 27 26 -26 61 -11 102 44 59 80
111 97 155 50z m-254 -772 c9 -20 14 -47 11 -61 -2 -13 2 -37 10 -54 9 -17 13
-42 9 -59 -3 -16 -2 -29 3 -29 9 0 25 -57 22 -78 -1 -8 4 -28 13 -45 8 -18 24
-68 36 -112 11 -44 23 -87 27 -95 3 -8 5 -21 4 -27 -1 -7 3 -13 9 -13 5 0 10
-12 10 -26 0 -31 17 -64 32 -64 7 0 25 12 40 27 40 38 35 14 -7 -32 -21 -22
-33 -45 -30 -53 4 -11 15 -6 46 24 84 81 129 128 129 135 0 4 8 9 18 12 9 2
26 8 37 13 19 8 19 7 2 -19 -9 -14 -17 -31 -17 -36 0 -5 -5 -22 -12 -38 -6
-15 -11 -31 -10 -35 1 -4 -2 -18 -7 -30 -5 -13 -12 -70 -16 -128 -8 -123 -37
-218 -93 -300 -20 -30 -41 -63 -47 -72 -5 -10 -35 -57 -65 -105 -30 -48 -63
-102 -72 -120 -10 -18 -37 -63 -61 -100 -24 -37 -46 -75 -50 -83 -4 -8 -11
-22 -17 -30 -30 -45 -142 -248 -146 -267 -4 -13 -10 -23 -15 -23 -5 0 -9 -5
-9 -11 0 -6 -9 -22 -20 -36 -11 -14 -20 -32 -20 -40 0 -8 -10 -29 -22 -46 -13
-17 -37 -59 -54 -92 -31 -61 -63 -119 -104 -190 -13 -22 -41 -74 -63 -115 -22
-41 -51 -92 -63 -112 -13 -21 -24 -42 -24 -48 0 -5 -4 -10 -9 -10 -5 0 -13
-10 -17 -22 -4 -13 -9 -25 -13 -28 -3 -3 -28 -49 -56 -103 -41 -79 -59 -105
-98 -132 -60 -45 -96 -46 -131 -4 -18 21 -26 42 -26 67 0 20 -3 54 -6 75 -7
38 10 54 19 20 4 -15 6 -15 12 5 4 12 12 22 19 22 12 1 56 86 56 108 0 6 4 12
9 12 5 0 13 30 17 68 4 40 10 60 13 49 6 -17 8 -16 19 7 9 21 9 24 -3 20 -8
-3 -22 1 -30 10 -15 15 -15 16 4 16 12 0 21 5 21 11 0 6 -7 8 -16 5 -18 -7
-66 22 -58 35 3 5 10 7 15 3 6 -3 13 3 16 15 3 12 9 21 14 21 5 0 9 7 9 15 0
8 -7 15 -15 15 -8 0 -15 5 -15 10 0 6 7 10 15 10 8 0 15 9 15 20 0 10 8 24 18
30 15 9 14 10 -5 5 -27 -7 -31 10 -7 23 12 7 15 17 10 36 -6 24 -10 26 -41 20
-29 -5 -34 -4 -29 9 3 8 16 18 30 21 23 6 29 23 27 74 -1 7 5 11 12 8 9 -3 12
0 8 10 -6 16 62 104 81 104 6 0 12 8 13 18 1 9 5 29 8 44 l7 28 -33 -17 c-31
-15 -69 -45 -108 -84 -19 -19 -48 -30 -54 -21 -2 4 -2 1 0 -6 3 -14 -45 -61
-62 -61 -5 0 -2 6 8 13 18 14 26 63 14 83 -4 6 1 17 11 26 9 9 31 29 47 44 17
16 40 47 52 69 21 38 21 43 9 95 -21 82 -46 171 -51 179 -2 4 -7 20 -9 36 -3
16 -12 58 -20 94 -8 36 -19 90 -26 120 -6 30 -16 71 -20 90 -10 37 -4 80 11
80 4 0 11 -17 14 -37 3 -21 15 -76 25 -123 11 -47 20 -96 20 -107 0 -12 4 -24
9 -28 5 -3 15 -31 21 -63 6 -31 18 -72 27 -91 8 -18 17 -48 20 -65 3 -17 9
-32 14 -34 5 -2 9 -8 9 -14 0 -17 32 -78 41 -78 5 0 9 9 9 21 0 19 63 89 81
89 5 0 9 4 9 10 0 9 38 56 148 179 80 90 85 98 78 132 -7 39 21 79 86 121 69
44 72 53 44 145 -13 43 -34 114 -46 158 -11 44 -25 94 -30 110 -25 84 -42 197
-31 208 11 11 12 10 17 -33 3 -24 54 -218 66 -250 3 -8 14 -51 23 -95 10 -44
21 -84 24 -90 3 -5 13 -35 21 -65 9 -32 21 -56 30 -58 8 -1 48 27 88 64 65 60
72 63 72 41 0 -28 22 -41 39 -24 16 16 14 57 -4 57 -24 0 -19 8 46 73 83 83
109 120 105 143 -5 23 -34 124 -74 259 -27 90 -52 186 -65 255 -3 14 -12 52
-21 85 -8 33 -15 72 -16 86 0 55 -44 47 -119 -23 l-51 -48 -21 21 -20 20 75
76 c60 61 76 72 76 55 0 -27 15 -36 30 -17 7 9 10 27 6 45 -8 42 12 38 30 -7z
m661 -335 c-45 -57 -85 -129 -81 -151 1 -9 -2 -15 -7 -11 -5 3 -10 -4 -10 -15
-2 -37 -4 -42 -14 -49 -13 -9 -18 -42 -7 -42 18 0 20 -27 6 -91 -33 -154 -12
-317 58 -451 10 -21 19 -41 20 -45 2 -22 12 -31 41 -38 21 -5 26 -9 15 -12
-23 -6 -80 22 -110 55 -35 38 -72 107 -94 178 -22 73 -26 287 -5 349 21 63
101 225 122 248 10 11 19 24 19 29 0 9 69 88 77 88 2 0 -11 -19 -30 -42z m215
-917 c24 -10 50 -26 57 -35 29 -35 12 -121 -34 -172 -13 -15 -35 7 -36 38 l-2
23 -4 -22 c-2 -13 -8 -23 -13 -23 -5 0 -12 -10 -16 -22 -8 -27 -33 -58 -47
-58 -6 0 -3 8 5 18 25 29 65 125 72 173 6 38 3 50 -14 72 -25 32 -24 32 32 8z
m-1122 -1106 c0 -14 3 -24 8 -24 31 5 34 -3 11 -27 l-24 -27 29 19 c28 18 29
18 23 -1 -20 -68 -20 -74 6 -81 21 -5 26 -13 29 -42 3 -40 -16 -90 -37 -99 -8
-2 -23 0 -34 7 -16 8 -21 8 -21 -1 0 -8 -5 -7 -16 2 -9 7 -28 15 -43 16 -69 8
-73 11 -68 51 3 20 11 54 19 75 10 30 17 37 33 33 22 -6 40 3 40 19 0 21 30
105 37 105 4 0 8 -11 8 -25z m-39 -300 c12 -4 18 -13 15 -23 -46 -169 -160
-502 -213 -622 -9 -19 -24 -53 -33 -75 -61 -137 -102 -216 -115 -221 -8 -4
-15 -18 -15 -33 0 -20 -2 -23 -10 -11 -11 17 -15 14 -25 -20 -7 -22 -6 -23 9
-11 11 9 16 10 16 2 0 -6 -12 -16 -26 -21 -22 -9 -25 -15 -22 -40 3 -17 1 -30
-4 -30 -4 0 -8 8 -8 18 0 15 -2 15 -11 2 -9 -12 -10 -12 -5 3 9 27 -3 40 -20
22 -9 -8 -12 -20 -8 -26 4 -8 3 -9 -4 -5 -7 4 -12 1 -12 -7 0 -16 -47 -63 -56
-54 -3 3 3 11 14 18 11 7 18 19 15 26 -3 7 0 13 6 13 6 0 11 6 11 13 0 8 9 22
20 32 11 10 20 22 20 28 0 5 20 51 44 101 24 50 50 106 57 124 8 17 17 32 20
32 4 0 9 14 13 32 3 17 17 54 30 82 13 28 36 85 51 126 15 41 31 86 37 100 22
52 27 66 42 113 9 26 32 103 51 170 20 67 38 130 41 140 5 17 25 18 75 2z
m-1168 -9832 c-24 -63 -110 -177 -165 -218 -65 -49 -62 -48 -107 -39 -26 5
-31 11 -31 34 0 15 10 42 23 61 23 35 124 108 212 153 58 31 77 33 68 9z
m5587 -982 c0 -30 -56 -108 -82 -115 -36 -9 -161 -7 -178 4 -12 8 -12 10 3 16
9 3 17 14 17 24 0 10 7 23 15 30 12 10 16 9 21 -4 8 -22 24 -20 24 2 0 40 41
59 128 61 45 1 52 -1 52 -18z"/>
</g>
</svg>
