<?xml version="1.0" standalone="no"?>
<!DOCTYPE svg PUBLIC "-//W3C//DTD SVG 20010904//EN"
 "http://www.w3.org/TR/2001/REC-SVG-20010904/DTD/svg10.dtd">
<svg version="1.0" xmlns="http://www.w3.org/2000/svg"
 width="1204.000000pt" height="1200.000000pt" viewBox="0 0 1204.000000 1200.000000"
 preserveAspectRatio="xMidYMid meet">
<metadata>
Created by potrace 1.13, written by Peter Selinger 2001-2015
</metadata>
<g transform="translate(0.000000,1200.000000) scale(0.100000,-0.100000)"
fill="#000000" stroke="none">
<path d="M9601 11496 c-14 -8 -30 -12 -37 -9 -24 9 -94 -18 -110 -42 -29 -45
-13 -57 63 -50 94 9 103 13 103 41 0 20 5 24 30 24 17 0 48 -9 70 -20 46 -24
83 -26 99 -6 10 12 8 19 -9 36 -11 11 -32 25 -46 30 -37 14 -135 12 -163 -4z"/>
<path d="M8840 11406 c-6 -8 -30 -16 -53 -18 -48 -4 -60 -23 -20 -32 15 -4 51
-16 80 -28 49 -20 53 -20 78 -4 36 23 47 56 27 79 -19 21 -94 23 -112 3z"/>
<path d="M9270 11410 c-8 -5 -31 -10 -51 -10 -32 0 -70 -23 -57 -35 11 -12
153 -65 172 -65 31 0 66 28 66 53 0 43 -90 83 -130 57z"/>
<path d="M9990 11405 c-8 -10 -31 -15 -66 -15 -43 0 -55 -4 -64 -20 -8 -14 -8
-26 0 -41 11 -19 17 -20 98 -14 118 8 161 8 198 0 41 -9 52 9 27 43 -37 50
-165 81 -193 47z"/>
<path d="M9667 11359 c-9 -5 -21 -8 -26 -5 -13 8 -69 -13 -75 -29 -6 -16 37
-45 104 -70 76 -29 105 -30 130 -5 29 29 23 48 -28 87 -45 34 -74 40 -105 22z"/>
<path d="M9027 11333 c-62 -44 -65 -110 -4 -99 17 3 62 11 100 17 37 7 67 17
67 22 0 17 -84 86 -105 87 -11 0 -37 -12 -58 -27z"/>
<path d="M9460 11303 c-52 -19 -68 -81 -27 -107 19 -13 30 -13 60 -4 29 9 46
9 71 0 18 -7 40 -12 50 -12 30 0 11 -24 -27 -35 -20 -6 -44 -17 -52 -26 -15
-15 -10 -20 58 -63 87 -54 131 -60 165 -23 12 13 22 30 22 38 0 22 -81 95
-112 103 -16 3 -28 11 -28 16 0 6 -25 35 -56 65 -55 54 -80 64 -124 48z"/>
<path d="M10374 11254 c-18 -12 -29 -13 -69 -2 -43 12 -48 11 -61 -7 -15 -20
-10 -54 10 -68 6 -4 34 -6 62 -3 36 3 58 0 73 -10 17 -12 25 -13 43 -2 13 7
32 13 43 13 33 0 30 39 -5 69 -35 29 -65 32 -96 10z"/>
<path d="M9985 11244 c-29 -29 -15 -56 40 -75 28 -10 67 -27 88 -37 73 -39
110 3 60 66 -17 21 -41 43 -54 49 -35 18 -114 16 -134 -3z"/>
<path d="M8808 11230 c-9 -14 -24 -20 -49 -20 -37 0 -64 -20 -57 -41 5 -15
107 -58 140 -59 30 0 83 40 91 70 3 14 -4 27 -25 45 -36 31 -83 33 -100 5z"/>
<path d="M9228 11220 c-9 -15 -24 -20 -53 -20 -41 0 -65 -13 -65 -35 0 -16
141 -85 173 -85 28 0 87 54 87 81 0 9 -16 31 -35 48 -42 37 -88 41 -107 11z"/>
<path d="M9836 11199 c-28 -22 -34 -55 -13 -83 10 -13 29 -19 73 -21 58 -2
124 -26 124 -44 0 -12 -27 -21 -44 -15 -21 8 -56 -14 -56 -34 0 -16 120 -115
155 -128 18 -7 81 30 89 53 7 18 -29 78 -85 138 -138 148 -146 155 -182 155
-20 0 -45 -9 -61 -21z"/>
<path d="M8372 11175 c-9 -18 -19 -25 -41 -25 -16 0 -37 -8 -47 -17 -16 -16
-12 -18 56 -39 79 -24 96 -22 124 18 33 47 9 87 -50 88 -23 0 -34 -6 -42 -25z"/>
<path d="M8557 11139 c-52 -39 -74 -113 -41 -140 13 -10 20 -10 44 5 16 9 59
22 96 29 37 7 69 17 71 23 2 6 -12 21 -32 32 -25 16 -35 28 -35 47 0 22 -4 25
-37 25 -22 -1 -50 -9 -66 -21z"/>
<path d="M8972 11130 c-45 -32 -52 -57 -31 -104 16 -34 33 -39 76 -21 38 16
148 21 157 6 11 -16 -20 -41 -59 -47 -43 -6 -65 -19 -65 -38 0 -16 141 -106
167 -106 12 0 37 14 55 30 18 17 36 30 40 30 5 0 8 11 8 25 0 31 -50 89 -92
106 -46 18 -138 98 -138 119 0 17 -26 30 -61 30 -9 0 -35 -14 -57 -30z"/>
<path d="M9420 11097 c-82 -44 -90 -58 -60 -118 21 -40 23 -41 58 -34 58 13
122 9 139 -8 22 -21 8 -37 -33 -37 -21 0 -42 -8 -55 -21 l-22 -22 58 -51 c31
-28 71 -59 88 -68 29 -17 32 -17 66 4 50 30 71 49 71 65 0 19 -42 84 -74 113
-94 87 -146 142 -146 155 0 15 -29 35 -52 35 -7 0 -24 -6 -38 -13z"/>
<path d="M10362 11099 c-12 -5 -22 -12 -22 -16 0 -18 33 -54 63 -69 18 -9 45
-28 61 -41 60 -50 98 -6 52 61 -47 70 -91 88 -154 65z"/>
<path d="M8154 11090 c-12 -4 -35 -28 -53 -52 -35 -47 -39 -90 -8 -96 19 -4
136 53 149 72 7 11 -18 67 -36 78 -14 10 -25 9 -52 -2z"/>
<path d="M10210 11062 c-18 -15 -22 -25 -16 -46 11 -44 50 -76 91 -76 42 0 98
-26 92 -43 -2 -7 -17 -14 -33 -15 -36 -5 -55 -19 -47 -37 2 -8 34 -39 70 -70
53 -45 72 -55 96 -53 16 2 35 10 40 20 15 22 -9 91 -49 144 -18 23 -35 50 -38
60 -8 23 -52 74 -63 74 -5 0 -20 14 -35 30 -31 35 -74 40 -108 12z"/>
<path d="M10584 11066 c-8 -21 22 -83 44 -90 11 -4 39 0 62 8 23 8 57 12 76 9
30 -5 34 -3 34 15 0 27 -64 77 -86 68 -10 -4 -14 -13 -11 -26 8 -32 -10 -33
-43 0 -32 32 -67 39 -76 16z"/>
<path d="M7283 11057 c-4 -8 -20 -21 -34 -30 -14 -10 -32 -28 -39 -42 -7 -14
-21 -25 -30 -25 -10 0 -34 -20 -54 -45 -25 -30 -32 -45 -23 -45 9 0 17 5 19
10 2 6 19 -1 38 -15 39 -29 62 -32 80 -10 15 18 1 40 -31 50 -10 4 -19 14 -19
23 0 14 7 17 39 14 37 -4 41 -2 60 36 11 23 25 43 31 47 5 3 10 15 10 26 0 22
-34 27 -47 6z"/>
<path d="M8748 11013 c-11 -22 -22 -29 -56 -34 -88 -12 -82 -40 20 -92 67 -34
108 -41 108 -17 0 4 16 22 35 41 39 38 42 54 17 85 -41 51 -104 59 -124 17z"/>
<path d="M8317 10970 c-16 -16 -38 -30 -49 -30 -50 0 -79 -43 -35 -55 12 -3
43 -15 69 -27 25 -11 53 -18 61 -15 25 10 79 96 72 116 -6 19 -45 41 -73 41
-9 0 -30 -13 -45 -30z"/>
<path d="M9786 10981 c-47 -31 -50 -45 -21 -102 l27 -51 45 6 c45 6 123 -8
123 -22 -1 -20 -21 -33 -61 -40 -65 -11 -63 -32 12 -100 34 -31 68 -61 76 -65
17 -10 102 29 111 51 8 21 -45 118 -85 157 -18 18 -33 37 -33 43 0 6 -20 31
-45 55 -25 25 -45 52 -45 60 0 32 -61 36 -104 8z"/>
<path d="M8502 10927 c-12 -13 -22 -27 -22 -31 0 -5 -11 -21 -25 -38 -32 -38
-31 -56 3 -96 l27 -32 50 25 c28 14 72 28 98 31 l49 7 -4 -28 c-3 -24 -10 -31
-57 -46 -29 -9 -57 -23 -61 -29 -5 -8 -20 -10 -42 -6 -40 7 -46 3 -112 -76
-55 -66 -56 -85 -7 -132 l30 -29 59 26 c33 15 74 27 91 27 43 0 41 30 -5 68
-28 23 -35 35 -32 57 2 16 8 30 14 32 6 2 41 -17 77 -42 78 -53 101 -56 122
-16 8 16 26 38 40 49 15 12 25 30 25 45 0 32 -58 84 -104 93 -21 4 -38 13 -41
24 -3 10 -21 28 -40 39 -28 16 -35 27 -35 51 0 24 -6 33 -26 40 -37 15 -48 13
-72 -13z"/>
<path d="M8917 10898 c-20 -18 -43 -39 -52 -46 -22 -19 -18 -44 15 -90 l30
-41 41 14 c42 15 135 23 145 12 3 -3 3 -14 0 -25 -5 -14 -22 -24 -56 -32 -26
-6 -57 -21 -67 -32 -17 -20 -17 -21 1 -32 11 -6 46 -35 78 -63 34 -31 67 -53
81 -53 32 0 131 94 123 116 -18 46 -71 114 -100 125 -17 7 -53 35 -80 61 -38
38 -47 53 -44 73 5 22 0 26 -31 35 -48 13 -43 14 -84 -22z"/>
<path d="M8118 10899 c-16 -9 -75 -86 -97 -126 -14 -28 -6 -47 25 -62 21 -9
30 -7 61 14 20 13 61 30 90 36 29 7 53 16 53 20 0 4 -15 17 -34 29 -26 15 -36
29 -38 52 -3 34 -33 52 -60 37z"/>
<path d="M10555 10870 c-9 -28 12 -88 35 -100 10 -6 30 -10 45 -10 14 0 40 -7
56 -16 17 -8 33 -13 36 -10 15 14 -17 67 -65 109 -57 51 -96 61 -107 27z"/>
<path d="M9349 10852 c-28 -9 -79 -66 -79 -89 0 -27 39 -100 57 -107 6 -3 27
-1 45 5 40 11 98 12 116 1 22 -15 1 -41 -42 -53 -46 -12 -66 -26 -66 -44 0 -7
27 -41 60 -77 61 -67 104 -89 125 -63 5 8 26 22 45 33 20 11 36 28 38 40 4 25
-58 136 -93 167 -57 52 -108 118 -114 147 -6 28 -12 34 -42 39 -19 3 -42 3
-50 1z"/>
<path d="M10153 10830 c-18 -11 -33 -28 -33 -38 0 -21 37 -102 48 -103 4 0 30
-2 58 -2 83 -3 124 -56 43 -57 -14 0 -34 -6 -44 -14 -18 -13 -18 -14 0 -42 42
-65 108 -134 129 -134 31 0 86 37 86 58 0 57 -72 204 -130 267 -21 22 -43 50
-49 63 -15 28 -63 30 -108 2z"/>
<path d="M7692 10762 c-31 -29 -72 -101 -72 -126 0 -29 38 -27 99 6 46 25 61
38 61 55 0 12 -4 25 -10 28 -5 3 -10 17 -10 30 0 12 -7 26 -16 29 -21 8 -18 9
-52 -22z"/>
<path d="M8262 10746 c-15 -34 -106 -79 -161 -80 l-45 -1 -53 -84 c-48 -77
-52 -87 -39 -105 25 -39 60 -43 114 -13 28 15 66 27 86 27 32 0 35 -2 27 -22
-8 -25 -101 -76 -139 -77 -38 -1 -58 -17 -101 -83 -22 -35 -49 -74 -58 -87
-17 -23 -17 -24 21 -57 47 -41 68 -42 108 -9 19 16 42 25 64 25 30 0 34 3 34
28 0 17 -11 37 -29 54 -35 33 -43 61 -26 85 12 16 16 16 40 3 15 -8 43 -29 62
-48 44 -41 70 -39 96 8 10 19 30 46 43 61 46 49 28 86 -57 114 -32 11 -53 24
-56 36 -3 10 -20 27 -39 38 -34 21 -44 50 -25 79 7 11 17 10 52 -8 24 -13 56
-32 71 -43 23 -17 32 -19 53 -9 14 6 25 16 25 21 0 6 14 26 31 45 38 44 35 73
-10 103 -44 30 -75 30 -89 -1z"/>
<path d="M9745 10731 c-6 -5 -26 -18 -45 -28 -44 -25 -49 -55 -18 -114 l24
-44 64 3 c48 3 70 -1 85 -12 20 -16 20 -16 1 -31 -11 -8 -32 -15 -46 -15 -15
0 -35 -9 -45 -20 -18 -20 -18 -21 2 -43 11 -12 37 -48 57 -79 28 -46 41 -58
62 -58 38 0 114 48 114 72 0 46 -53 163 -104 231 -30 40 -63 88 -73 107 -20
36 -58 51 -78 31z"/>
<path d="M10646 10693 c-16 -16 0 -44 63 -110 38 -40 73 -73 79 -73 5 0 15 7
22 15 10 12 10 26 -3 71 -26 90 -37 101 -101 102 -30 0 -57 -2 -60 -5z"/>
<path d="M7820 10640 c-28 -27 -55 -50 -60 -50 -23 0 -8 -28 20 -39 17 -6 43
-16 60 -22 40 -15 54 -8 90 48 46 74 37 113 -27 113 -26 0 -43 -10 -83 -50z"/>
<path d="M10513 10665 c-28 -12 -33 -19 -33 -47 0 -51 19 -107 40 -118 10 -5
34 -10 53 -10 39 0 84 -30 73 -48 -4 -7 -22 -12 -40 -12 -18 0 -40 -6 -51 -13
-17 -13 -14 -19 44 -95 64 -83 81 -93 121 -72 36 19 40 42 19 120 -27 102 -59
168 -103 212 -20 20 -36 45 -36 56 0 41 -33 51 -87 27z"/>
<path d="M8822 10600 c-62 -59 -65 -81 -20 -145 34 -48 55 -55 98 -30 34 19
99 19 106 0 8 -21 -12 -42 -47 -50 -16 -4 -43 -18 -60 -32 -30 -25 -32 -26
-59 -10 -30 18 -60 14 -60 -8 0 -11 -40 -50 -98 -97 -9 -6 -12 -21 -9 -38 7
-32 66 -130 79 -130 5 0 26 9 48 20 47 24 88 26 96 5 9 -22 -14 -45 -66 -67
-56 -24 -64 -37 -40 -63 10 -11 28 -42 40 -70 24 -57 47 -85 67 -85 8 0 31 18
52 40 38 40 91 56 91 27 0 -20 -50 -63 -92 -80 -46 -19 -49 -38 -24 -139 17
-70 22 -78 43 -78 13 0 41 9 63 20 43 22 70 18 70 -10 0 -21 -49 -65 -82 -75
-13 -4 -31 -14 -40 -22 -16 -14 -16 -18 7 -62 14 -25 25 -61 25 -78 0 -31 28
-73 49 -73 5 0 16 11 25 25 21 32 72 58 99 51 44 -11 61 41 33 100 -8 16 -17
49 -21 72 -4 24 -22 70 -41 103 -38 69 -54 118 -54 173 0 44 -110 278 -140
299 -30 21 -100 129 -100 154 0 14 5 33 10 44 15 28 43 10 81 -50 16 -27 43
-55 61 -64 27 -13 32 -21 33 -54 1 -21 15 -65 31 -98 33 -66 39 -68 111 -41
47 17 73 13 73 -14 0 -23 -26 -44 -74 -61 -55 -20 -66 -49 -32 -89 14 -17 26
-38 26 -46 0 -25 29 -73 52 -85 19 -10 25 -8 47 19 20 24 37 32 76 38 28 4 45
9 38 11 -9 3 -9 9 -1 22 18 30 -33 160 -114 285 -23 35 -33 65 -36 104 -4 47
-8 56 -36 73 -37 23 -46 24 -46 5 0 -28 -91 -98 -108 -82 -2 3 1 19 8 35 8 20
27 37 57 51 49 23 49 22 13 104 -11 23 -36 54 -59 71 -22 17 -41 33 -41 37 0
5 -16 26 -36 48 -27 30 -38 52 -41 84 -4 34 -10 46 -27 50 -40 11 -52 6 -104
-44z"/>
<path d="M10072 10572 c-18 -9 -35 -26 -39 -39 -7 -30 1 -84 19 -120 13 -26
17 -28 80 -28 77 0 106 -16 73 -41 -11 -8 -37 -19 -58 -25 -45 -12 -55 -31
-33 -62 9 -12 31 -45 50 -73 19 -29 40 -55 46 -59 19 -12 89 16 111 44 13 16
18 33 14 46 -4 11 -13 46 -21 79 -18 72 -54 144 -94 189 -17 19 -37 51 -45 71
-12 29 -20 36 -43 35 -15 0 -42 -8 -60 -17z"/>
<path d="M7296 10549 c-14 -11 -35 -38 -46 -59 -25 -49 -41 -54 -62 -18 -15
23 -25 28 -56 28 -59 0 -78 -34 -50 -95 14 -30 37 -32 97 -5 24 11 50 20 57
20 17 0 110 46 118 58 5 8 -15 76 -26 87 -3 3 -17 -4 -32 -16z"/>
<path d="M7649 10548 c-35 -39 -90 -141 -87 -162 5 -33 48 -32 104 3 66 43
127 40 96 -4 -16 -24 -72 -55 -99 -55 -37 -1 -79 -39 -103 -96 -11 -25 -29
-57 -40 -71 -50 -64 9 -98 93 -53 37 20 97 27 97 12 0 -14 -32 -39 -70 -54
-51 -22 -97 -64 -137 -127 -19 -31 -46 -66 -59 -79 -29 -28 -30 -36 -4 -62 24
-24 60 -26 103 -3 18 9 48 19 67 22 30 5 35 10 38 37 2 22 -5 40 -22 62 -15
16 -26 40 -26 51 0 42 41 36 103 -15 32 -27 51 -30 67 -11 24 28 90 135 90
145 0 22 -44 52 -76 52 -45 0 -64 9 -64 31 0 10 -13 28 -30 41 -32 23 -39 58
-17 77 10 8 29 3 76 -21 75 -38 82 -35 129 46 46 79 40 103 -28 112 -35 5 -64
17 -95 41 -38 29 -45 39 -45 68 0 29 -4 35 -20 35 -12 0 -30 -10 -41 -22z"/>
<path d="M9259 10554 c-8 -9 -30 -27 -50 -40 -20 -12 -39 -31 -41 -42 -7 -24
39 -139 57 -146 8 -3 31 2 51 10 50 21 109 15 109 -11 0 -15 -14 -25 -54 -41
-69 -28 -81 -47 -49 -82 13 -15 37 -47 52 -70 15 -24 41 -51 57 -60 23 -13 28
-22 23 -37 -17 -48 7 -192 33 -202 8 -3 38 4 68 15 59 23 85 20 85 -8 0 -22
-25 -43 -81 -68 -58 -25 -64 -34 -43 -73 8 -17 22 -53 30 -80 10 -33 24 -55
42 -66 15 -9 28 -18 30 -19 2 -1 -6 -19 -17 -40 -21 -38 -30 -150 -15 -188 8
-20 50 -20 84 -1 33 19 69 19 77 -1 8 -22 -33 -61 -99 -92 -61 -28 -66 -37
-44 -80 7 -15 16 -43 20 -63 4 -21 16 -49 27 -63 l20 -26 -24 -32 c-20 -27
-25 -49 -31 -127 -3 -52 -7 -96 -9 -97 -2 -2 -12 -1 -24 2 -30 8 -34 38 -17
117 9 38 14 87 11 110 -3 23 -10 77 -15 120 -5 43 -12 80 -15 84 -4 3 0 18 8
34 20 38 19 62 -5 115 -15 31 -20 61 -18 103 1 35 -3 65 -10 74 -20 24 -52
127 -52 168 0 48 -15 89 -33 89 -8 0 -28 -13 -45 -30 -17 -16 -46 -36 -65 -43
-58 -25 -68 -78 -37 -189 9 -32 15 -38 38 -38 15 0 36 7 46 15 26 19 65 19 73
0 7 -20 -20 -49 -84 -91 -29 -19 -53 -36 -53 -39 0 -3 6 -18 14 -33 8 -15 17
-49 21 -75 5 -30 15 -53 27 -62 18 -12 26 -11 67 13 44 24 81 26 81 4 0 -11
-67 -48 -102 -56 -42 -10 -55 -41 -61 -143 -5 -105 1 -112 65 -73 46 28 78 27
78 -3 0 -31 -55 -83 -105 -99 -44 -15 -43 -9 -29 -125 4 -35 13 -68 20 -74 12
-10 73 0 168 28 10 3 27 25 37 49 14 31 26 44 40 44 11 0 37 12 59 26 22 15
46 24 55 20 41 -15 -10 -87 -90 -125 -62 -29 -68 -41 -60 -110 4 -33 12 -64
18 -69 22 -17 100 -21 132 -8 36 15 85 61 85 79 0 7 32 27 71 45 56 26 74 30
85 21 8 -6 14 -15 14 -19 0 -21 -58 -74 -110 -100 -61 -31 -70 -45 -70 -112 0
-28 8 -47 32 -73 26 -30 29 -38 17 -46 -8 -5 -19 -9 -25 -9 -17 0 -42 -32 -50
-65 -14 -61 -63 -145 -84 -145 -32 0 -24 46 24 136 37 68 44 91 49 158 l6 78
-32 13 c-21 9 -39 10 -55 4 -13 -5 -36 -9 -51 -9 -38 0 -67 -35 -80 -98 -11
-55 -36 -112 -54 -124 -15 -9 -37 2 -37 18 0 22 38 135 57 168 19 34 27 161
11 189 -7 13 -16 17 -31 13 -12 -4 -46 -11 -76 -16 -85 -15 -101 -30 -101 -96
0 -69 -22 -124 -49 -124 -10 0 -21 5 -23 12 -5 15 18 156 31 191 12 30 15 155
5 181 -8 20 -16 20 -67 -3 -23 -10 -56 -22 -73 -25 -55 -12 -69 -38 -69 -127
0 -61 -4 -82 -17 -96 -28 -27 -42 -2 -46 80 -2 40 -3 77 -3 82 1 29 21 202 25
212 3 6 -1 19 -8 28 -11 15 -17 13 -66 -20 -88 -59 -129 -36 -61 35 36 38 43
42 73 35 18 -3 45 -7 60 -7 32 -1 47 -32 57 -123 5 -51 9 -60 27 -63 12 -2 35
9 54 25 26 22 42 27 77 25 52 -2 69 11 78 60 6 30 3 37 -20 52 -26 17 -27 21
-22 82 2 36 -1 90 -9 126 -7 35 -13 94 -14 131 0 83 -13 92 -81 54 -26 -15
-56 -27 -67 -27 -14 0 -29 -14 -45 -41 -21 -35 -23 -46 -15 -76 10 -37 2 -129
-12 -138 -15 -9 -31 33 -37 93 -3 32 -11 64 -18 72 -7 8 -16 38 -20 65 -10 59
-10 213 -1 236 5 10 -5 28 -29 51 -30 29 -38 45 -44 93 -7 48 -14 62 -43 89
-49 43 -82 139 -75 216 5 55 4 56 -25 69 -25 12 -32 11 -39 0 -5 -8 -9 -19 -9
-24 0 -16 -71 -79 -102 -93 -21 -9 -28 -18 -28 -40 0 -32 58 -152 76 -159 7
-2 34 7 61 21 57 31 83 33 83 8 0 -45 -132 -119 -165 -92 -19 16 -31 7 -38
-30 -8 -38 -82 -110 -113 -110 -19 0 -24 5 -24 27 0 20 15 41 55 79 64 60 66
75 28 151 -25 48 -30 53 -61 53 -25 0 -40 -7 -54 -25 -24 -30 -120 -78 -140
-70 -10 4 -22 -5 -34 -24 -33 -52 -104 -121 -125 -121 -25 0 -35 25 -22 53 6
12 32 46 57 74 52 58 53 71 10 122 -16 19 -38 32 -64 36 -37 6 -40 9 -40 38 0
17 -12 48 -26 68 -18 26 -24 47 -22 70 4 43 28 48 59 13 51 -58 91 -94 104
-94 8 0 23 19 33 43 11 23 31 53 46 66 43 40 31 91 -31 133 -40 26 -71 23 -83
-7 -11 -28 -78 -64 -118 -65 -38 0 -59 -17 -102 -79 -22 -33 -53 -69 -70 -81
-16 -12 -30 -28 -30 -36 0 -19 85 -104 104 -104 9 0 30 9 48 20 61 37 99 18
51 -26 -15 -14 -40 -28 -56 -31 -25 -5 -147 -124 -147 -144 0 -4 -16 -13 -35
-19 -19 -6 -35 -15 -35 -18 0 -4 12 -40 27 -79 26 -66 31 -73 61 -79 23 -5 38
-2 51 10 10 9 23 16 29 16 20 0 42 31 42 61 0 16 -9 47 -20 69 -24 46 -25 60
-7 85 22 29 62 13 81 -34 8 -22 24 -48 34 -58 11 -10 38 -61 62 -113 23 -52
46 -99 51 -104 9 -10 100 26 132 53 21 18 22 47 1 97 -18 42 -15 127 4 146 17
17 56 -24 71 -75 7 -23 21 -58 32 -77 10 -19 25 -67 33 -107 14 -71 46 -133
69 -133 7 0 26 9 42 20 32 21 70 26 80 10 9 -15 -24 -59 -57 -76 -16 -9 -45
-14 -64 -12 -30 2 -36 -2 -63 -42 -52 -78 -98 -115 -138 -111 -36 3 7 84 67
126 43 30 52 64 28 108 -6 12 -14 36 -18 52 -5 24 -13 32 -43 39 -36 9 -39 8
-67 -26 -16 -19 -44 -41 -62 -49 -18 -7 -64 -46 -103 -86 -39 -40 -76 -73 -82
-73 -7 0 -17 9 -23 20 -13 25 -2 49 51 107 46 50 48 71 14 128 -21 37 -30 43
-67 48 -36 5 -47 2 -79 -24 -97 -76 -299 -321 -299 -362 0 -49 53 -117 91
-117 11 0 15 -7 13 -25 -3 -28 35 -105 52 -105 6 0 21 -11 33 -24 13 -13 35
-27 49 -31 37 -9 41 -21 26 -71 -12 -41 -12 -45 4 -50 27 -9 96 -46 111 -59
17 -16 6 -35 -20 -35 -20 0 -26 -15 -9 -25 5 -3 17 -21 26 -40 22 -46 30 -44
26 5 -5 47 2 51 22 13 10 -21 11 -32 3 -45 -18 -28 19 -80 150 -208 111 -109
165 -147 149 -105 -8 21 7 19 40 -7 15 -13 48 -25 73 -28 l46 -5 3 -47 c3 -44
6 -50 46 -73 23 -14 55 -25 70 -25 17 0 29 -7 32 -17 3 -10 10 -25 15 -33 5
-8 15 -27 22 -43 12 -29 24 -35 83 -42 44 -6 43 -6 49 -34 5 -28 14 -41 26
-41 6 0 24 -13 41 -30 19 -19 40 -30 58 -30 30 0 46 -14 52 -45 2 -12 13 -21
27 -23 14 -2 33 -15 44 -28 26 -34 100 -34 146 0 17 13 53 29 78 36 26 6 67
23 91 37 77 45 42 3 -49 -60 -80 -54 -87 -57 -113 -46 -31 15 -54 1 -40 -24
16 -27 98 -87 120 -87 12 0 35 7 50 15 16 8 37 15 47 15 10 0 32 7 49 16 28
14 130 45 135 40 7 -6 -103 -77 -134 -86 -21 -6 -47 -17 -57 -25 -25 -19 -11
-36 51 -65 65 -31 96 -29 143 8 38 31 92 43 104 23 3 -5 -14 -21 -39 -35 -49
-29 -73 -62 -57 -78 6 -6 32 -13 59 -16 33 -3 58 -13 81 -33 24 -21 43 -29 70
-29 46 1 58 10 109 85 63 94 75 121 67 160 -6 31 -4 35 22 40 34 8 104 35 121
48 7 5 9 22 6 42 -5 32 0 40 66 108 63 65 73 81 83 130 17 82 5 111 -47 114
-47 3 -62 -7 -99 -65 -40 -64 -96 -122 -117 -122 -33 0 -21 32 39 108 56 70
92 150 92 206 0 31 -46 50 -101 43 -51 -7 -64 -18 -95 -81 -34 -71 -77 -121
-98 -113 -9 4 -16 10 -16 15 0 5 25 48 56 96 50 77 57 94 64 159 5 44 5 76 -1
82 -5 6 -28 15 -50 20 l-40 10 66 35 c37 19 76 47 87 63 11 15 29 27 41 27 12
0 37 9 56 21 38 23 61 19 61 -10 0 -28 -52 -76 -113 -105 -70 -33 -80 -45 -72
-93 12 -67 15 -72 51 -79 53 -10 97 3 139 41 29 27 36 38 27 47 -26 26 -4 103
49 163 14 17 17 39 15 140 l-2 120 -29 -2 c-133 -11 -158 -26 -166 -104 -7
-74 -32 -129 -58 -129 -46 0 -31 77 31 160 18 24 18 32 8 94 -7 37 -10 79 -7
93 3 15 -2 41 -10 58 -14 30 -14 36 6 80 16 37 20 59 15 100 -5 37 -1 68 10
103 17 50 17 54 -8 152 -13 56 -22 108 -20 115 5 13 -16 40 -37 47 -8 3 -6 13
7 33 35 53 15 243 -36 353 -17 37 -34 85 -37 108 -4 29 -11 44 -23 47 -22 6
-129 -46 -148 -71 -15 -19 -8 -141 9 -174 12 -21 45 -23 79 -3 33 19 69 19 77
-1 8 -22 -30 -59 -87 -83 -55 -24 -66 -42 -44 -76 9 -14 20 -44 26 -67 5 -24
21 -56 36 -71 l27 -28 -23 -42 c-17 -32 -22 -59 -22 -115 0 -82 11 -95 64 -72
50 21 81 18 84 -7 3 -24 -34 -56 -106 -92 -52 -26 -58 -40 -38 -80 9 -16 16
-42 16 -56 0 -49 16 -65 67 -65 38 0 44 -2 33 -14 -6 -8 -27 -20 -46 -26 -42
-14 -74 -58 -74 -102 0 -43 -28 -138 -40 -138 -5 0 -15 9 -23 21 -17 24 -10
64 22 128 17 33 21 54 17 85 -3 23 -9 72 -12 109 -8 82 -27 99 -86 74 -24 -10
-40 -12 -52 -5 -16 9 -16 11 1 24 10 7 33 14 51 14 24 0 42 9 64 30 27 28 29
34 23 73 -4 23 -7 81 -6 128 1 70 -3 100 -24 156 -14 39 -25 87 -25 107 0 23
-7 43 -21 57 -18 18 -19 24 -9 50 7 16 10 43 7 61 -10 71 -49 197 -82 265 -19
40 -35 76 -35 80 0 5 -5 24 -10 44 -8 30 -16 38 -40 41 -22 3 -35 -2 -50 -19
-21 -24 -55 -32 -48 -10 3 6 18 18 34 26 16 8 34 21 41 30 14 19 17 63 5 77
-5 5 -17 29 -26 53 -16 41 -50 93 -89 136 -25 27 -53 83 -62 123 -10 49 -67
70 -96 36z m-572 -1081 c8 -33 23 -70 34 -82 18 -19 19 -25 8 -62 -9 -30 -10
-48 -1 -72 6 -18 16 -51 22 -74 12 -50 25 -53 80 -22 42 24 70 20 70 -9 0 -24
-36 -57 -85 -78 -27 -11 -40 -13 -43 -5 -7 21 -35 42 -48 37 -9 -3 -17 7 -23
32 -5 20 -14 55 -20 78 -6 22 -20 49 -31 59 -11 10 -20 28 -20 41 0 13 -6 48
-14 77 -10 40 -12 67 -5 98 16 73 16 73 41 57 15 -10 26 -34 35 -75z m-796
-233 c21 -28 79 -221 79 -262 0 -32 -9 -58 -20 -58 -5 0 -18 21 -30 46 -16 32
-32 49 -52 56 -28 10 -30 13 -24 49 4 26 0 57 -15 98 -16 48 -18 64 -9 81 15
27 47 23 71 -10z m302 -58 c9 -10 21 -51 27 -92 6 -41 15 -100 21 -131 5 -30
9 -69 9 -87 0 -18 10 -42 23 -58 23 -26 25 -27 48 -11 28 20 49 22 49 5 0 -17
-119 -124 -184 -165 -104 -68 -119 -23 -25 70 68 67 71 81 32 163 -15 32 -24
40 -51 42 -27 3 -35 -2 -50 -27 -9 -17 -27 -36 -39 -42 -12 -6 -36 -29 -53
-50 -25 -32 -37 -39 -65 -39 -44 0 -44 13 -5 71 16 24 30 50 30 57 0 8 16 12
44 12 51 0 108 31 126 69 7 17 9 54 4 113 -5 64 -3 92 6 103 16 20 33 19 53
-3z m311 -78 c3 -9 6 -36 6 -60 0 -25 7 -60 15 -79 12 -31 12 -38 -3 -64 -15
-26 -15 -32 -2 -57 10 -17 14 -50 13 -90 -1 -35 2 -66 8 -69 5 -4 26 3 45 14
44 26 74 27 74 3 0 -24 -36 -56 -79 -71 -19 -6 -35 -10 -36 -9 -1 2 -7 11 -12
22 -8 15 -11 10 -17 -31 l-6 -49 -74 -36 c-41 -20 -77 -34 -80 -31 -26 26 44
116 101 130 29 6 39 14 41 31 2 13 -1 29 -7 35 -5 7 -15 35 -21 62 -6 27 -20
58 -31 68 -22 21 -23 24 -8 65 7 22 8 46 1 78 -9 39 -7 56 10 100 21 55 49 72
62 38z m214 -54 c12 -12 22 -25 22 -30 0 -6 6 -10 14 -10 24 0 46 -42 46 -87
0 -23 5 -53 11 -67 9 -19 8 -29 -5 -48 -13 -19 -15 -38 -10 -108 6 -89 -6
-129 -34 -111 -32 20 -48 242 -27 372 10 63 -8 68 -71 18 -30 -24 -60 -39 -76
-39 -34 0 -35 10 -4 58 21 34 45 52 86 65 24 8 25 8 48 -13z m-184 -537 c6
-23 0 -198 -9 -245 -7 -37 -39 -77 -49 -60 -17 28 0 259 22 300 15 26 29 28
36 5z m230 1 c10 -4 16 -18 16 -41 0 -19 4 -42 9 -51 12 -24 -25 -258 -50
-309 -39 -81 -65 -44 -49 69 15 105 28 154 50 190 23 37 26 68 8 68 -7 0 -40
-11 -73 -24 -84 -35 -97 -22 -43 40 44 50 95 72 132 58z m414 -45 c5 -27 -36
-66 -87 -85 -60 -21 -70 -42 -69 -136 2 -62 4 -68 22 -68 12 0 39 11 61 25 31
19 54 24 103 25 34 0 61 3 60 8 -7 20 28 73 63 96 44 30 67 33 75 11 10 -26
-24 -64 -85 -94 -57 -29 -58 -31 -70 -88 -19 -89 -14 -107 32 -111 57 -5 161
33 194 71 69 78 143 109 151 64 5 -24 -60 -82 -113 -103 -48 -18 -85 -72 -85
-122 0 -38 26 -66 54 -57 12 3 44 10 71 15 73 12 102 26 121 55 39 60 139 105
151 68 7 -21 -77 -102 -119 -115 -29 -8 -47 -23 -65 -51 -35 -56 -35 -59 -10
-91 l24 -29 62 13 c35 7 77 23 94 35 18 11 56 38 84 58 63 44 93 48 93 13 0
-28 -48 -70 -125 -109 -73 -37 -103 -97 -72 -148 10 -18 9 -23 -3 -27 -8 -3
-26 -18 -40 -34 -54 -62 -146 -148 -157 -148 -33 0 -9 49 56 119 43 45 75 89
84 115 15 43 9 79 -15 88 -13 6 -106 -5 -111 -13 -27 -39 -94 -123 -121 -151
-38 -41 -53 -47 -62 -23 -6 15 14 48 84 134 24 30 54 76 68 102 20 41 22 52
12 74 -11 25 -14 26 -77 19 -84 -8 -96 -15 -119 -67 -25 -54 -84 -117 -111
-117 -15 0 -19 4 -14 18 9 25 74 132 99 163 11 15 27 47 34 73 18 66 6 77 -79
75 -36 -1 -74 -6 -83 -11 -9 -4 -31 -37 -48 -72 -35 -75 -86 -134 -101 -119
-14 14 52 186 89 232 36 45 46 82 28 106 -13 19 -10 19 -141 -1 -52 -8 -63
-18 -75 -68 -22 -84 -73 -160 -94 -139 -21 21 25 186 86 305 15 31 25 59 21
61 -5 3 -35 -4 -68 -14 -33 -11 -71 -18 -84 -17 -23 3 -22 5 18 46 39 40 44
42 98 42 57 0 93 18 93 46 0 7 14 27 31 44 34 34 81 39 87 9z m956 -754 c9
-24 -34 -63 -113 -103 -41 -20 -84 -49 -94 -64 -19 -26 -19 -28 -2 -54 17 -27
17 -28 -6 -46 -13 -10 -28 -23 -34 -29 -57 -62 -118 -119 -135 -124 -51 -16
-35 28 32 92 73 70 109 128 97 160 -21 55 -25 51 149 144 81 43 97 46 106 24z"/>
<path d="M8600 10468 c-11 -23 -25 -35 -49 -41 -18 -4 -44 -15 -56 -23 -12 -8
-37 -13 -55 -12 -26 2 -37 -4 -54 -26 -11 -16 -43 -51 -70 -78 -55 -55 -55
-64 4 -132 37 -41 47 -43 92 -16 18 11 52 22 75 26 24 3 43 11 43 16 0 14 -20
50 -47 82 -30 36 -28 80 3 84 15 2 38 -13 72 -47 60 -60 93 -67 116 -23 8 15
30 41 50 58 32 29 35 35 25 60 -19 55 -78 105 -122 104 -7 0 -19 -15 -27 -32z"/>
<path d="M10937 10458 c-15 -12 -13 -17 18 -58 19 -25 47 -62 61 -82 28 -40
60 -50 71 -22 9 25 -35 152 -57 164 -26 14 -73 13 -93 -2z"/>
<path d="M9635 10440 c-3 -5 -24 -19 -45 -30 -52 -26 -58 -57 -26 -140 27 -72
24 -71 134 -54 87 13 78 -31 -15 -72 -30 -13 -53 -30 -53 -39 0 -19 69 -147
88 -162 22 -18 52 -16 98 6 54 26 67 44 61 83 -10 62 -45 179 -61 201 -49 67
-71 108 -87 157 -16 52 -19 55 -52 58 -19 2 -38 -2 -42 -8z"/>
<path d="M10810 10436 c-24 -30 6 -156 38 -156 32 0 80 -21 87 -37 7 -21 -11
-33 -52 -33 -43 0 -49 -14 -20 -52 13 -18 37 -57 52 -85 32 -59 57 -73 86 -47
17 15 18 26 13 83 -4 36 -15 82 -25 101 -9 19 -20 47 -23 62 -3 14 -21 47 -40
71 -19 25 -36 58 -38 74 -2 23 -8 29 -34 31 -19 2 -36 -3 -44 -12z"/>
<path d="M10411 10380 l-43 -20 7 -58 c10 -86 24 -102 89 -102 90 0 102 -50
16 -65 -58 -10 -66 -26 -36 -73 13 -22 31 -56 40 -75 21 -51 45 -61 96 -41 22
9 45 24 50 34 14 26 -5 169 -30 225 -13 28 -38 70 -57 94 -19 26 -33 55 -33
72 0 25 -4 29 -27 29 -16 0 -48 -9 -72 -20z"/>
<path d="M7234 10315 c-55 -60 -74 -68 -74 -30 0 28 -35 68 -53 62 -39 -13
-28 -107 13 -107 23 0 24 -6 5 -40 -18 -31 -19 -72 -3 -88 19 -19 26 -15 53
28 27 42 111 104 158 116 40 9 42 21 8 60 -17 19 -31 39 -31 44 0 23 -29 6
-76 -45z"/>
<path d="M7423 10282 c-30 -16 -91 -66 -161 -132 -15 -14 -43 -38 -63 -53 -51
-39 -65 -76 -45 -116 20 -38 45 -40 76 -6 13 14 34 25 47 25 26 0 63 32 63 56
0 8 -13 20 -29 25 -38 14 -47 38 -22 62 18 18 24 19 80 8 34 -7 65 -9 71 -6
16 10 71 127 66 141 -7 19 -44 17 -83 -4z"/>
<path d="M9958 10254 c-57 -29 -66 -54 -48 -131 18 -72 38 -86 94 -67 22 8 51
12 64 9 45 -11 18 -52 -51 -76 -63 -22 -64 -29 -21 -124 22 -50 46 -87 56 -91
23 -7 126 44 133 66 3 9 1 57 -4 106 -8 81 -27 138 -62 194 -5 8 -23 43 -39
78 -35 72 -47 76 -122 36z"/>
<path d="M11082 10188 c-16 -16 -15 -96 1 -128 8 -15 30 -31 62 -42 28 -10 51
-18 53 -18 10 0 -2 56 -20 86 -12 20 -24 53 -27 73 -5 29 -11 37 -31 39 -14 2
-31 -3 -38 -10z"/>
<path d="M10736 10180 c-40 -12 -46 -25 -46 -107 0 -77 13 -98 56 -87 27 7 74
-12 74 -30 0 -17 -30 -36 -57 -36 -11 0 -27 -6 -36 -12 -16 -12 -16 -16 7 -58
13 -25 29 -62 36 -83 16 -51 49 -64 99 -40 33 16 36 22 39 65 5 79 -32 232
-73 302 -14 24 -25 55 -25 69 0 30 -18 33 -74 17z"/>
<path d="M8515 10132 c-22 -36 -114 -81 -144 -70 -23 8 -51 1 -51 -14 0 -22
-64 -100 -101 -124 -33 -20 -39 -29 -34 -47 11 -37 74 -127 90 -127 8 0 31 11
51 25 20 14 50 25 65 25 25 0 29 4 29 26 0 14 -10 40 -22 57 -26 36 -31 108
-10 129 14 13 37 -8 100 -91 29 -38 55 -40 70 -5 7 14 32 44 57 66 50 46 54
63 25 101 -11 14 -20 30 -20 35 0 15 -22 29 -57 36 -27 6 -33 4 -48 -22z"/>
<path d="M10286 10080 c-22 -10 -43 -26 -49 -35 -5 -10 -6 -50 -2 -96 8 -90 4
-88 97 -74 40 6 49 4 54 -10 9 -22 -20 -48 -78 -69 -27 -10 -48 -24 -48 -32 0
-8 11 -35 24 -61 14 -27 29 -60 35 -76 15 -39 51 -50 98 -31 54 23 62 39 63
126 0 102 -15 169 -56 245 -19 34 -34 71 -34 82 0 55 -33 64 -104 31z"/>
<path d="M7369 10018 c-114 -71 -169 -125 -169 -167 0 -16 13 -54 29 -84 16
-31 36 -80 45 -110 8 -29 26 -69 39 -88 13 -20 27 -49 31 -65 20 -77 61 -133
99 -134 16 0 18 -6 13 -37 -4 -26 -1 -47 10 -68 9 -16 30 -56 46 -88 39 -79
57 -76 117 24 25 41 61 95 79 119 39 53 39 63 6 112 -36 51 -63 50 -139 -7
-58 -43 -95 -57 -95 -34 0 11 29 40 94 96 43 36 42 58 0 104 -13 14 -24 37
-24 52 0 40 36 35 94 -13 27 -23 56 -40 64 -38 8 2 20 17 26 33 6 17 23 47 39
66 37 49 36 84 -5 109 -77 47 -137 18 -280 -132 -42 -45 -81 -77 -87 -74 -16
10 -14 49 4 72 30 40 16 76 -36 89 -41 10 -99 63 -99 90 0 33 11 37 58 18 49
-19 67 -14 76 24 4 15 18 45 32 66 48 73 8 111 -67 65z"/>
<path d="M11153 9963 c-59 -6 -69 -22 -37 -64 15 -19 37 -58 50 -87 44 -97 84
-81 84 35 0 74 -18 125 -44 121 -6 -1 -30 -3 -53 -5z"/>
<path d="M11000 9937 c-23 -12 -25 -19 -28 -91 -3 -87 5 -106 47 -106 15 0 36
-6 46 -14 27 -19 7 -42 -45 -50 -50 -8 -56 -19 -30 -60 11 -19 27 -57 36 -85
15 -50 15 -51 54 -51 53 0 63 20 57 123 -5 94 -17 149 -52 228 -14 31 -22 64
-19 73 7 18 -12 46 -30 46 -6 0 -22 -6 -36 -13z"/>
<path d="M11316 9913 c-3 -4 -6 -36 -6 -73 0 -73 16 -100 58 -100 26 0 28 18
10 85 -8 31 -9 48 -2 55 19 19 40 0 73 -70 51 -107 92 -91 60 24 -18 65 -46
85 -122 85 -36 0 -68 -3 -71 -6z"/>
<path d="M10591 9876 c-57 -20 -70 -45 -64 -123 7 -87 15 -97 73 -90 48 5 70
1 70 -13 0 -16 -54 -59 -81 -65 -45 -10 -51 -26 -29 -73 11 -23 20 -49 20 -59
0 -30 29 -63 56 -63 32 0 100 34 107 54 3 9 9 48 13 88 6 65 3 83 -22 153 -15
44 -33 89 -41 100 -7 11 -13 39 -13 62 0 40 -2 43 -27 42 -16 0 -43 -6 -62
-13z"/>
<path d="M10135 9740 c-75 -28 -88 -49 -83 -143 2 -52 8 -81 17 -86 8 -5 36
-2 68 7 104 29 91 -35 -17 -85 -63 -28 -69 -39 -46 -76 8 -12 17 -39 20 -60
13 -73 68 -97 133 -57 56 34 66 59 65 173 0 87 -4 112 -28 172 -15 39 -30 93
-33 120 -7 59 -19 64 -96 35z"/>
<path d="M11230 9668 c-32 -12 -30 -8 -40 -77 -12 -85 -6 -97 51 -116 27 -9
49 -20 49 -25 0 -24 -90 -52 -166 -50 -38 1 -54 -4 -68 -19 -16 -18 -45 -114
-46 -153 0 -25 28 -48 59 -48 16 0 34 -6 40 -14 14 -17 -5 -35 -63 -57 -23 -8
-40 -21 -38 -28 34 -159 33 -156 72 -159 45 -4 71 23 95 97 19 58 16 99 -21
278 -7 37 2 83 16 83 17 0 49 -62 56 -108 8 -56 44 -84 73 -58 30 27 46 173
24 218 -13 25 -24 104 -27 182 -2 55 -21 71 -66 54z"/>
<path d="M11322 9668 c-9 -9 -8 -16 3 -28 9 -9 26 -48 39 -86 20 -60 26 -69
47 -69 23 0 24 3 27 74 4 93 -11 121 -66 121 -21 0 -43 -5 -50 -12z"/>
<path d="M10825 9630 c-10 -11 -22 -42 -26 -68 -4 -26 -10 -56 -13 -67 -11
-36 19 -60 70 -57 78 3 71 -43 -11 -71 -45 -16 -47 -26 -26 -122 14 -61 43
-88 86 -80 50 8 75 46 77 118 4 113 -4 191 -23 242 -10 28 -19 67 -19 88 l0
37 -48 0 c-36 0 -54 -5 -67 -20z"/>
<path d="M11518 9608 c-40 -30 -51 -123 -18 -153 34 -30 52 -13 48 47 -3 51
-2 53 23 56 24 3 29 -2 40 -37 8 -23 19 -41 24 -41 18 1 9 80 -12 108 -23 31
-77 41 -105 20z"/>
<path d="M10399 9543 c-43 -18 -67 -55 -68 -108 0 -22 -5 -55 -10 -73 -9 -30
-8 -34 17 -43 20 -8 37 -6 69 6 47 18 73 15 73 -9 0 -21 -52 -61 -104 -81 -51
-20 -62 -37 -42 -68 8 -12 17 -40 21 -62 13 -74 46 -90 113 -56 63 32 73 51
80 143 8 117 6 144 -18 217 -11 35 -20 78 -20 95 0 56 -37 70 -111 39z"/>
<path d="M6829 9503 c-15 -28 -19 -120 -6 -165 11 -40 42 -54 73 -33 52 34 56
107 7 120 -35 8 -43 21 -43 68 0 44 -11 47 -31 10z"/>
<path d="M11398 9373 c-16 -19 -38 -97 -38 -137 0 -29 33 -56 71 -56 14 0 28
2 30 5 3 2 1 34 -5 70 -16 111 29 116 60 6 9 -31 21 -60 26 -66 25 -26 57 90
38 139 -12 32 -32 42 -106 50 -51 6 -63 4 -76 -11z"/>
<path d="M10658 9324 c-51 -16 -52 -18 -79 -138 -12 -55 -12 -59 7 -73 18 -13
59 -12 100 4 23 8 28 -26 8 -49 -11 -11 -39 -30 -64 -41 -25 -11 -50 -23 -56
-28 -14 -11 16 -133 38 -156 15 -14 21 -14 66 1 63 21 78 39 85 101 3 28 11
76 18 108 12 50 11 66 -4 125 -9 37 -17 88 -17 115 0 45 -1 47 -27 46 -16 -1
-49 -8 -75 -15z"/>
<path d="M6886 9211 c-32 -21 -66 -68 -66 -92 0 -9 12 -21 26 -28 22 -10 25
-16 20 -39 -18 -79 -18 -123 -2 -164 34 -91 94 -121 151 -77 26 21 27 24 20
98 -7 81 4 131 29 131 21 0 36 -31 36 -72 0 -19 7 -43 15 -54 8 -10 19 -35 25
-55 7 -26 22 -44 59 -67 101 -66 132 -20 56 82 -8 10 -31 22 -52 25 l-38 7 3
57 c2 44 -2 65 -17 91 -28 45 -55 68 -73 61 -9 -4 -40 -43 -69 -88 -29 -45
-58 -85 -63 -89 -16 -11 -46 11 -46 33 0 17 37 96 78 163 13 22 8 62 -10 83
-15 18 -49 16 -82 -6z"/>
<path d="M10162 9174 c-55 -27 -57 -30 -66 -119 -3 -27 -8 -60 -12 -72 -4 -15
0 -24 16 -33 17 -9 29 -8 61 9 47 25 68 26 76 5 8 -21 -49 -78 -102 -103 -65
-30 -69 -40 -50 -112 8 -35 23 -71 32 -81 14 -16 18 -16 44 -3 15 8 35 15 45
15 9 0 31 15 50 34 31 31 33 37 28 82 -4 38 1 62 19 108 l25 58 -19 67 c-10
36 -19 84 -19 106 0 72 -39 83 -128 39z"/>
<path d="M11320 9121 c-95 -7 -91 -3 -124 -108 -20 -64 -11 -89 37 -101 45
-12 40 -33 -13 -59 -38 -19 -55 -21 -108 -16 -71 7 -96 -7 -107 -59 -4 -17
-16 -51 -27 -76 l-21 -46 23 -18 c12 -10 35 -18 51 -18 18 0 29 -5 29 -14 0
-20 -44 -53 -80 -61 -40 -9 -45 -20 -42 -90 4 -71 19 -87 77 -83 43 3 40 -1
95 121 28 62 30 76 30 180 0 61 5 119 10 127 16 26 33 -5 38 -70 5 -65 23 -87
61 -75 18 5 51 60 51 84 0 6 10 31 22 55 21 44 21 47 6 140 -16 99 -14 146 7
146 22 0 35 -26 42 -79 7 -64 25 -90 49 -75 10 6 21 17 24 25 4 8 15 31 25 51
30 62 6 130 -44 126 -14 -1 -64 -4 -111 -7z"/>
<path d="M10893 9093 c-17 -2 -37 -11 -44 -20 -18 -20 -58 -163 -52 -180 3 -8
23 -13 53 -13 27 0 52 -4 55 -10 9 -15 -39 -58 -90 -80 -25 -11 -45 -21 -45
-22 0 -14 30 -141 34 -145 3 -3 23 -6 44 -7 51 -1 92 26 92 62 0 15 12 63 26
106 25 73 26 84 15 128 -12 45 -15 98 -9 158 3 27 -13 32 -79 23z"/>
<path d="M11528 9053 c-63 -72 -61 -173 2 -173 22 0 30 19 30 70 0 21 6 43 15
50 16 13 23 2 43 -65 6 -20 16 -31 31 -33 12 -2 25 -10 28 -18 9 -24 58 -17
72 10 18 32 7 46 -33 46 -31 0 -34 3 -40 41 -9 56 -44 89 -94 89 -25 0 -45 -6
-54 -17z"/>
<path d="M6680 9000 c0 -87 57 -171 99 -146 6 4 10 46 10 96 l0 88 -30 -16
c-29 -16 -31 -16 -49 6 -10 12 -21 22 -24 22 -3 0 -6 -22 -6 -50z"/>
<path d="M10422 8976 c-63 -27 -68 -34 -78 -100 -3 -28 -11 -58 -17 -67 -14
-22 -2 -49 22 -49 11 0 36 7 55 16 34 17 66 14 66 -5 0 -23 -64 -81 -108 -97
-69 -25 -72 -29 -63 -103 10 -80 22 -91 93 -80 68 11 93 36 90 88 -2 29 7 60
33 113 l36 73 -12 65 c-7 36 -13 88 -13 115 -1 46 -3 50 -26 52 -14 1 -49 -9
-78 -21z"/>
<path d="M7430 8836 c0 -9 4 -16 8 -16 5 0 16 -16 26 -36 34 -73 257 -375 411
-558 79 -94 298 -313 405 -404 47 -40 108 -95 137 -123 28 -27 57 -49 65 -49
7 0 34 -19 59 -43 58 -53 101 -78 117 -68 14 9 -36 68 -84 98 -16 10 -54 41
-84 68 -93 85 -501 497 -570 575 -36 40 -87 98 -115 129 -27 31 -59 67 -70 80
-11 13 -51 61 -90 106 -38 45 -99 118 -134 164 -70 89 -81 100 -81 77z"/>
<path d="M11359 8803 c-6 -16 -19 -46 -30 -68 -10 -22 -19 -49 -19 -61 0 -24
26 -50 55 -56 39 -7 21 -31 -35 -46 -30 -8 -62 -14 -70 -13 -8 0 -28 2 -45 3
-32 3 -34 0 -85 -113 -28 -63 -26 -78 15 -95 19 -8 35 -19 35 -25 0 -5 -24
-21 -54 -34 -30 -13 -57 -28 -60 -34 -4 -6 -21 0 -43 14 -55 38 -113 30 -113
-16 0 -9 -20 -47 -45 -84 -25 -36 -43 -71 -39 -76 3 -5 25 -9 50 -9 24 0 44
-3 44 -8 0 -22 -38 -55 -95 -82 l-64 -30 -33 20 c-53 32 -84 27 -107 -19 -28
-54 -114 -146 -129 -137 -21 13 -13 32 55 122 l66 89 5 78 c5 96 -2 107 -73
107 -57 0 -75 -13 -95 -65 -19 -50 -74 -124 -92 -125 -30 0 -21 37 29 113 45
68 48 76 55 161 6 76 5 93 -9 108 -22 24 -70 23 -113 -3 -41 -25 -50 -36 -50
-66 0 -13 -12 -47 -27 -77 -15 -31 -24 -59 -20 -63 4 -4 22 -1 40 6 18 7 44
16 60 18 22 4 27 2 27 -15 0 -29 -55 -79 -116 -107 -40 -18 -54 -31 -63 -56
-26 -75 -7 -102 69 -100 36 0 61 8 88 26 20 14 45 25 55 25 10 0 35 9 57 20
51 26 60 25 60 -4 0 -31 -67 -91 -119 -107 -22 -7 -48 -21 -58 -31 -20 -23
-22 -80 -4 -102 17 -21 80 -21 129 -1 20 9 47 13 59 10 12 -3 38 2 58 12 25
12 38 14 46 6 22 -22 -44 -86 -114 -110 -67 -23 -85 -65 -44 -103 20 -19 29
-21 105 -14 46 3 91 7 100 8 22 1 27 -28 7 -48 -9 -9 -41 -23 -71 -32 -41 -12
-58 -22 -69 -44 -16 -30 -21 -90 -7 -90 4 0 38 10 75 22 72 23 98 19 105 -16
6 -29 -18 -46 -62 -46 -23 0 -49 -6 -58 -12 -27 -23 -58 -76 -58 -101 0 -31
16 -44 59 -49 39 -4 63 -30 43 -50 -9 -9 -24 -10 -66 -1 -40 9 -64 9 -90 1
-20 -6 -39 -9 -42 -6 -3 4 13 37 35 74 69 115 48 179 -32 95 -30 -32 -108 -71
-142 -71 -14 0 60 76 95 98 76 50 123 168 82 205 -26 24 -55 15 -83 -25 -12
-16 -46 -45 -75 -64 -29 -19 -58 -43 -64 -54 -10 -18 -7 -22 19 -31 17 -6 31
-17 31 -24 0 -14 -78 -62 -117 -71 -30 -8 -65 -52 -61 -78 3 -19 10 -21 58
-20 30 1 66 5 80 8 16 5 32 2 44 -7 19 -14 19 -15 -7 -47 -32 -37 -34 -56 -8
-70 30 -16 66 -12 94 10 32 25 33 25 60 -4 22 -24 23 -24 113 -12 108 13 137
33 182 122 28 55 30 57 41 36 10 -18 8 -27 -9 -50 -24 -33 -18 -66 11 -57 10
4 26 2 34 -3 23 -12 -81 -77 -149 -93 -63 -14 -72 -21 -80 -59 -3 -17 -10 -30
-15 -30 -5 0 -22 -5 -38 -12 -15 -6 -35 -10 -43 -9 -8 0 -35 -16 -59 -38 -24
-22 -68 -51 -98 -66 -57 -28 -61 -45 -11 -45 24 0 41 10 73 43 43 46 87 67
137 67 90 0 367 190 368 253 0 9 5 17 12 17 23 0 209 208 219 245 12 41 -3 44
-68 14 -41 -19 -68 -39 -77 -57 -8 -16 -34 -45 -58 -65 -24 -20 -52 -46 -64
-57 -12 -11 -29 -20 -38 -20 -11 0 3 19 39 55 37 37 55 63 55 80 0 22 -4 25
-38 25 -34 0 -42 -5 -70 -45 -32 -45 -46 -54 -57 -35 -9 15 -58 12 -83 -6 -13
-9 -26 -13 -29 -10 -10 9 28 46 48 46 22 0 113 92 134 135 15 34 45 54 45 32
0 -7 17 -30 39 -51 43 -42 79 -46 95 -10 7 15 22 23 49 27 24 3 50 16 65 31
22 22 24 28 14 51 -17 36 -45 31 -82 -15 -34 -43 -46 -47 -76 -26 -19 14 -19
15 3 44 26 35 22 42 -23 42 -23 0 -38 -7 -52 -25 l-20 -26 -7 30 c-12 55 -31
59 -78 14 -49 -46 -90 -73 -112 -73 -29 0 -14 26 50 84 57 52 67 66 87 128
l23 70 -24 19 c-24 20 -71 26 -71 9 0 -15 -121 -140 -136 -140 -8 0 -14 9 -14
19 0 18 19 43 106 139 20 22 32 50 39 89 12 67 28 77 41 26 10 -44 48 -67 89
-57 27 7 29 10 39 54 3 14 32 68 65 120 45 71 60 104 61 132 0 46 17 91 30 83
6 -4 9 -30 8 -58 l-3 -52 38 -3 c36 -3 38 -1 56 41 11 25 33 64 50 87 28 38
30 47 30 131 0 90 12 134 34 126 7 -2 13 -29 15 -63 3 -55 12 -73 38 -74 21 0
49 35 83 103 31 61 33 73 25 105 -11 41 -4 186 9 199 12 12 37 -26 37 -56 0
-14 7 -37 15 -51 8 -14 19 -36 25 -50 6 -14 21 -35 32 -47 28 -30 44 -16 53
42 3 25 10 45 15 45 5 0 18 -12 30 -27 17 -22 21 -38 18 -77 -4 -58 12 -70 38
-31 15 22 16 32 6 59 -7 18 -12 53 -12 78 0 31 -6 50 -18 61 -26 23 -69 22
-82 -3 -19 -35 -29 -22 -23 30 6 50 6 50 -30 65 -21 9 -67 15 -107 15 -68 0
-71 -1 -81 -27z"/>
<path d="M6799 8761 c-29 -29 -38 -68 -20 -86 11 -12 61 -137 61 -154 0 -47
73 -111 126 -111 47 0 57 13 50 56 -18 111 -18 140 -2 153 22 19 46 -2 46 -41
0 -33 39 -104 83 -150 15 -16 27 -31 27 -34 0 -2 -16 -4 -35 -4 -26 0 -45 -9
-75 -36 -22 -20 -40 -42 -40 -49 0 -7 -9 -23 -19 -37 -11 -13 -23 -37 -27 -52
-8 -34 -39 -52 -61 -35 -12 10 -14 24 -8 59 16 99 12 131 -17 153 -24 18 -30
18 -57 7 -18 -7 -33 -22 -36 -34 -11 -52 -10 -60 10 -64 24 -5 35 -20 35 -47
0 -41 64 -147 102 -171 50 -32 102 -32 123 -1 14 22 13 28 -11 80 -29 64 -28
91 2 95 14 2 25 -6 34 -25 8 -15 26 -42 40 -59 14 -17 33 -45 42 -63 14 -25
23 -31 51 -31 18 0 38 -5 44 -11 18 -18 68 -1 112 38 23 19 41 43 41 52 0 10
-14 33 -30 51 -39 43 -39 87 0 82 13 -1 38 -18 56 -37 17 -19 41 -35 53 -35
13 0 26 -10 33 -26 11 -23 16 -25 47 -18 20 4 63 7 96 8 52 1 60 4 63 21 3 26
-54 95 -78 95 -11 0 -34 -13 -52 -29 -82 -71 -108 -37 -47 60 36 56 36 64 3
94 -41 38 -97 34 -153 -10 -25 -20 -55 -51 -68 -70 -13 -19 -27 -35 -32 -35
-4 0 -20 -22 -34 -48 -32 -58 -59 -85 -84 -80 -26 5 -28 58 -4 104 15 27 19
49 15 70 -5 30 -4 31 34 37 41 7 125 64 136 93 4 11 -1 28 -14 44 -36 45 -44
68 -30 85 17 20 32 19 64 -6 15 -12 30 -18 34 -14 11 10 -33 79 -61 95 -25 14
-28 13 -71 -29 -24 -24 -51 -60 -61 -80 -19 -41 -59 -75 -81 -67 -22 9 -17 51
16 116 17 33 30 66 30 74 0 21 -65 66 -97 66 -38 0 -93 -54 -148 -145 -42 -69
-69 -90 -87 -63 -11 17 -1 73 23 120 24 48 24 84 0 98 -33 17 -61 11 -92 -19z"/>
<path d="M10665 8775 c-5 -2 -22 -6 -38 -9 -38 -9 -67 -41 -67 -75 0 -15 -11
-49 -25 -75 -14 -26 -25 -51 -25 -56 0 -17 40 -21 69 -6 41 22 71 21 71 -2 0
-27 -50 -70 -106 -91 -60 -23 -75 -47 -62 -104 11 -54 40 -80 74 -67 14 6 39
10 55 10 52 0 71 16 63 55 -6 36 29 129 62 162 13 13 15 26 8 62 -5 25 -8 80
-9 121 l0 75 -30 2 c-16 1 -34 0 -40 -2z"/>
<path d="M6133 8623 c-33 -32 -94 -89 -136 -126 -42 -37 -95 -94 -119 -126
-24 -32 -58 -78 -75 -102 -40 -54 -96 -124 -132 -164 -14 -17 -55 -66 -91
-109 -36 -44 -81 -98 -101 -120 -19 -23 -46 -57 -59 -76 -13 -19 -42 -56 -64
-81 -23 -25 -63 -75 -91 -110 -27 -35 -58 -73 -69 -84 -10 -11 -35 -43 -57
-71 -21 -29 -59 -69 -84 -90 -45 -36 -111 -115 -165 -195 -21 -31 -125 -152
-373 -433 -29 -33 -61 -72 -72 -86 -11 -15 -40 -50 -65 -77 -25 -28 -90 -103
-145 -169 -55 -65 -186 -215 -290 -333 -105 -119 -215 -245 -245 -281 -30 -36
-89 -103 -131 -150 -42 -47 -136 -155 -210 -241 -74 -86 -188 -216 -254 -291
-66 -74 -185 -210 -265 -302 -80 -93 -154 -178 -165 -190 -11 -13 -47 -54 -80
-92 -84 -96 -183 -205 -210 -230 -12 -11 -46 -47 -75 -80 -61 -67 -212 -232
-315 -344 -38 -41 -99 -107 -134 -145 -35 -39 -116 -124 -180 -190 -65 -66
-216 -226 -336 -355 -120 -129 -234 -251 -254 -271 -20 -19 -85 -89 -146 -154
-60 -66 -142 -153 -181 -195 -38 -41 -97 -104 -129 -140 -33 -36 -110 -117
-171 -180 -229 -237 -286 -317 -320 -451 -22 -84 -11 -105 25 -48 15 25 31 57
34 71 4 15 33 58 64 95 32 37 62 74 68 81 33 42 356 382 423 445 23 22 42 45
42 51 0 5 46 57 103 115 286 293 340 349 370 383 18 21 41 46 51 55 11 10 48
47 83 83 35 36 68 70 73 75 18 18 74 78 124 132 27 29 55 53 62 53 8 0 14 7
14 15 0 9 11 21 25 27 14 6 25 17 25 25 0 7 5 13 10 13 6 0 10 6 10 13 0 16
163 187 178 187 7 0 12 4 12 9 0 5 17 26 37 48 21 21 51 55 66 76 15 20 34 37
42 37 8 0 20 9 27 19 25 35 112 135 149 171 20 19 55 53 77 74 23 22 42 44 42
49 0 6 18 28 40 51 68 69 130 138 130 145 0 3 9 12 20 19 11 6 40 39 64 73 24
33 59 72 78 85 18 13 40 37 48 52 17 30 27 43 123 142 34 36 71 83 82 103 11
20 26 39 35 42 8 3 35 32 60 64 25 32 61 68 80 81 36 23 81 77 113 135 12 22
28 36 47 40 27 6 60 42 60 65 0 13 71 82 78 76 2 -3 34 32 71 76 36 44 83 97
104 116 20 19 37 42 37 50 0 27 34 72 67 87 18 9 33 19 33 23 0 4 14 16 30 25
17 10 30 23 30 29 0 19 68 104 95 118 15 8 33 27 41 42 8 15 41 55 74 90 33
34 60 69 60 78 0 9 10 22 21 30 64 44 167 144 179 174 7 18 25 41 41 50 16 9
41 34 56 54 15 20 30 39 33 42 3 3 21 26 40 52 19 27 46 51 60 55 30 8 51 33
44 53 -3 8 -2 11 2 7 4 -4 15 7 25 23 11 17 23 30 29 30 5 0 10 4 10 9 0 6 20
30 44 55 24 24 52 61 61 81 10 19 26 40 36 46 11 5 19 16 19 23 0 7 14 23 30
36 20 15 34 38 41 67 20 76 31 59 54 -81 26 -166 85 -341 187 -556 126 -267
141 -301 136 -305 -3 -3 -19 0 -36 6 -34 12 -72 -1 -72 -25 0 -7 -11 -23 -25
-36 -14 -13 -25 -31 -25 -40 0 -18 -60 -80 -77 -80 -6 0 -22 -18 -37 -40 -14
-22 -32 -40 -39 -40 -7 0 -21 -13 -30 -30 -10 -16 -15 -30 -11 -30 4 0 -1 -6
-11 -14 -11 -8 -23 -12 -27 -10 -4 2 -25 -13 -47 -34 -27 -26 -41 -48 -41 -65
0 -27 -40 -67 -67 -67 -20 0 -100 -82 -113 -114 -5 -14 -16 -26 -23 -26 -7 0
-29 -13 -47 -30 -18 -16 -39 -30 -46 -30 -6 0 -19 -11 -27 -24 -9 -13 -22 -30
-30 -38 -8 -8 -22 -28 -31 -46 -9 -18 -22 -32 -29 -32 -16 0 -77 -61 -77 -77
0 -12 -126 -133 -139 -133 -5 0 -14 -12 -20 -27 -6 -16 -27 -39 -47 -52 -20
-14 -52 -44 -71 -68 -19 -23 -50 -52 -69 -63 -18 -12 -43 -39 -56 -61 -12 -21
-26 -39 -30 -39 -12 0 -77 -71 -83 -92 -3 -9 -26 -28 -50 -43 -46 -27 -87 -72
-91 -102 -2 -9 -10 -21 -20 -26 -9 -5 -22 -17 -30 -26 -7 -9 -24 -26 -36 -38
-62 -59 -247 -247 -311 -315 -39 -43 -83 -83 -96 -90 -14 -7 -34 -32 -45 -55
-29 -56 -55 -83 -81 -83 -22 0 -87 -67 -128 -132 -10 -16 -24 -28 -32 -28 -9
0 -20 -11 -25 -25 -6 -15 -25 -32 -48 -42 -24 -10 -52 -35 -73 -64 -19 -27
-41 -51 -49 -53 -8 -3 -33 -23 -55 -44 -22 -21 -57 -51 -78 -67 -21 -16 -47
-44 -57 -64 -18 -36 -47 -62 -127 -113 -23 -14 -53 -46 -67 -70 -24 -41 -100
-108 -138 -121 -10 -4 -18 -10 -18 -15 0 -5 -17 -21 -38 -35 -22 -14 -56 -50
-76 -81 -20 -31 -45 -60 -55 -65 -9 -6 -30 -28 -45 -50 -17 -23 -39 -42 -54
-46 -16 -3 -37 -21 -52 -43 -32 -48 -70 -87 -92 -95 -10 -3 -27 -21 -38 -39
-34 -58 -52 -78 -99 -112 -25 -19 -57 -52 -71 -74 -14 -22 -41 -48 -60 -58
-19 -11 -39 -28 -45 -40 -5 -11 -51 -60 -101 -110 -50 -49 -99 -103 -108 -120
-12 -20 -33 -36 -60 -46 -29 -10 -46 -24 -58 -48 -10 -18 -55 -69 -100 -112
-46 -44 -127 -121 -180 -173 -53 -52 -112 -101 -131 -109 -19 -8 -43 -28 -53
-45 -10 -17 -27 -34 -39 -37 -35 -11 -82 -52 -95 -84 -8 -19 -27 -38 -49 -48
-42 -20 -90 -105 -90 -162 -1 -86 82 -230 200 -349 67 -67 215 -188 284 -233
156 -99 398 -178 549 -178 69 0 196 26 261 53 73 30 209 120 289 191 73 63
166 144 327 281 51 44 114 98 139 121 25 22 77 67 115 99 39 32 90 76 115 99
25 23 72 64 105 91 33 28 143 124 246 215 102 91 250 221 329 290 80 69 167
146 195 171 27 25 86 77 130 115 45 38 171 148 281 244 256 224 362 315 739
625 86 72 192 159 234 194 42 35 144 119 226 185 83 66 206 167 275 224 69 57
170 140 224 185 55 45 125 105 156 132 31 28 85 73 121 102 190 152 260 209
395 323 300 253 400 336 684 560 46 36 90 72 100 80 70 60 269 220 335 269 44
33 118 90 165 126 47 37 135 104 195 150 183 138 258 196 310 240 28 23 69 55
92 71 131 92 283 217 332 274 31 36 80 89 109 119 80 84 72 101 -43 81 -90
-15 -318 6 -430 39 -324 96 -636 274 -930 532 -311 272 -313 274 -486 491 -52
65 -108 137 -125 160 -50 70 -164 257 -208 343 -36 69 -41 76 -44 52 -2 -16 5
-38 17 -53 12 -15 21 -38 21 -53 0 -14 7 -45 16 -68 9 -24 15 -45 13 -48 -12
-12 -46 9 -58 36 -13 31 -31 31 -31 -1 0 -10 11 -42 25 -72 38 -80 34 -114
-21 -179 -25 -30 -55 -62 -66 -71 -28 -25 -75 -23 -88 2 -6 11 -20 20 -30 20
-11 0 -20 4 -20 9 0 4 -10 23 -23 42 -12 19 -33 59 -47 89 -13 30 -31 66 -40
80 -22 34 -69 183 -79 249 -5 31 -5 68 1 88 5 18 7 37 4 42 -3 5 -1 34 6 65 9
48 17 61 47 83 20 14 48 43 63 64 30 43 70 59 100 40 18 -11 19 -9 16 31 -3
41 -2 43 23 40 l26 -2 7 122 c4 68 15 151 24 185 24 92 9 98 -65 26z m-353
-677 c1 -11 8 -39 16 -61 17 -43 29 -87 43 -150 5 -22 23 -78 41 -125 17 -47
34 -94 37 -105 3 -11 54 -120 114 -242 60 -121 109 -231 109 -242 0 -16 -6
-21 -27 -21 -39 0 -78 -22 -79 -45 -1 -11 -2 -24 -3 -30 -1 -5 -20 -18 -44
-28 -34 -14 -48 -27 -65 -62 -14 -30 -28 -45 -41 -45 -24 0 -35 -15 -50 -67
-9 -33 -20 -47 -52 -65 -28 -16 -42 -31 -46 -51 -4 -20 -15 -33 -36 -42 -17
-7 -35 -25 -43 -44 -8 -20 -18 -29 -27 -25 -9 3 -27 -10 -48 -35 -18 -23 -38
-41 -45 -41 -7 0 -16 -9 -19 -20 -4 -11 -18 -32 -33 -45 -14 -13 -23 -27 -19
-31 3 -4 -13 -16 -36 -28 -43 -22 -60 -57 -38 -79 16 -16 13 -37 -5 -37 -17 0
-34 15 -52 45 -10 17 -11 17 -12 3 0 -9 5 -20 10 -23 12 -7 14 -98 1 -93 -16
6 -98 114 -142 188 -96 160 -159 335 -189 532 -17 109 -18 127 -4 210 18 112
26 128 64 128 17 0 31 5 31 10 1 6 2 13 4 18 15 54 20 62 61 84 24 12 44 26
44 29 0 3 29 36 65 73 36 37 65 75 65 86 0 12 17 29 46 46 43 26 71 65 58 85
-3 5 3 9 13 9 25 0 73 56 73 85 0 16 7 25 25 29 14 4 25 12 25 20 0 7 23 37
50 67 28 30 50 57 50 61 0 3 13 9 29 13 23 5 31 13 36 38 13 64 16 69 31 56 8
-6 14 -21 14 -33z"/>
<path d="M6363 8624 c-45 -19 -51 -51 -23 -122 13 -31 37 -100 55 -152 32 -94
81 -202 131 -290 13 -25 40 -76 58 -115 18 -38 55 -104 82 -146 27 -42 66
-103 87 -135 63 -97 149 -216 205 -285 136 -163 500 -508 607 -574 17 -10 49
-34 71 -52 206 -163 757 -424 898 -425 31 0 60 -7 75 -18 34 -23 185 -45 253
-36 108 13 153 22 173 33 25 14 10 21 -55 25 -41 3 -45 5 -48 31 -2 18 -11 31
-27 37 -13 5 -26 18 -30 29 -16 51 -59 66 -76 27 -10 -21 -8 -29 10 -52 29
-37 15 -48 -51 -39 -29 3 -79 6 -110 6 -32 0 -58 4 -58 10 0 5 -12 21 -27 35
-24 22 -25 28 -15 45 18 28 6 56 -30 75 -44 23 -61 12 -55 -34 3 -20 8 -47 12
-59 6 -20 4 -23 -18 -23 -15 0 -41 13 -60 30 -19 17 -42 30 -51 30 -9 0 -32 7
-51 14 -38 16 -45 41 -19 60 14 11 11 17 -25 49 -65 59 -105 45 -99 -35 3 -37
0 -43 -17 -46 -14 -2 -26 8 -40 34 -14 27 -31 41 -60 51 -22 8 -47 21 -55 29
-13 14 -13 17 6 32 21 17 21 17 -24 69 -25 29 -51 53 -56 53 -6 0 -25 -16 -41
-36 l-31 -36 -37 23 c-21 13 -52 33 -70 44 -17 12 -33 31 -35 43 -3 19 1 22
33 22 l37 0 -31 35 c-17 20 -31 40 -31 45 0 16 -46 41 -64 34 -9 -4 -23 -19
-32 -35 -17 -34 -40 -38 -49 -9 -4 11 -23 29 -43 39 -51 26 -92 69 -92 97 0
28 30 33 50 9 15 -18 50 -20 50 -2 0 16 -53 102 -69 111 -6 4 -27 4 -46 0 -26
-4 -40 -15 -51 -35 -19 -38 -40 -37 -60 4 -9 17 -36 53 -60 79 -45 49 -64 92
-46 110 11 11 72 -25 72 -43 0 -5 9 -9 20 -9 24 0 24 7 4 76 -29 100 -96 107
-144 16 -19 -36 -31 -48 -52 -50 -31 -4 -43 22 -34 72 5 24 1 40 -14 59 -11
14 -20 38 -20 54 -1 15 -7 39 -15 53 -33 57 2 93 43 43 13 -15 31 -38 42 -50
27 -34 54 -31 46 5 -3 15 -9 53 -13 84 -3 32 -11 62 -18 68 -7 5 -33 13 -58
16 -43 6 -46 5 -61 -24 -9 -17 -16 -41 -16 -54 0 -34 -27 -68 -54 -68 -28 0
-37 17 -45 85 -6 47 -9 51 -49 71 -90 43 -133 108 -140 212 -2 34 -1 62 3 62
4 0 19 -9 33 -21 25 -19 27 -19 39 -3 17 23 17 69 1 81 -34 26 -51 23 -87 -15
-66 -70 -93 -59 -84 33 5 52 5 52 -42 91 -57 46 -69 72 -86 183 -12 78 -15 84
-41 93 -36 13 -43 43 -24 99 28 78 21 94 -31 73z"/>
<path d="M10801 8531 c-17 -4 -27 -18 -36 -47 -7 -23 -22 -59 -35 -82 -32 -57
-23 -76 35 -68 38 6 45 5 45 -10 0 -21 -66 -84 -89 -84 -33 0 -61 -42 -61 -93
0 -52 16 -67 70 -67 45 0 70 16 70 46 0 15 22 66 50 115 48 85 50 91 48 162 0
41 2 80 6 86 5 7 0 21 -10 32 -17 19 -49 23 -93 10z"/>
<path d="M11458 8510 c-10 -6 -18 -19 -18 -29 0 -9 -11 -27 -25 -39 -36 -32
-36 -98 1 -114 22 -11 28 -10 40 7 8 10 14 33 14 51 0 33 23 63 35 45 3 -6 9
-33 12 -61 5 -44 9 -51 32 -57 39 -9 51 -22 51 -57 0 -37 -31 -60 -97 -70
l-43 -6 0 49 c0 57 -9 62 -79 48 -31 -7 -50 -6 -68 4 -32 17 -50 5 -83 -54
-14 -25 -33 -60 -44 -78 l-19 -33 34 -28 c39 -33 34 -41 -35 -62 -44 -13 -50
-13 -81 6 -40 23 -49 20 -75 -32 -11 -21 -38 -60 -61 -86 -45 -52 -45 -53 15
-89 27 -16 10 -41 -40 -60 -53 -20 -77 -51 -72 -97 3 -33 3 -33 55 -33 50 1
51 0 68 -37 23 -52 47 -50 88 8 17 26 37 54 43 62 10 14 15 15 37 3 20 -11 28
-11 45 0 24 15 47 63 38 78 -4 6 -38 9 -79 8 -71 -2 -73 -3 -122 -50 -27 -25
-53 -47 -57 -47 -19 0 -4 31 41 87 60 74 81 113 81 150 1 15 7 42 15 58 14 29
14 29 12 -30 -2 -60 -2 -60 28 -63 19 -2 40 -15 56 -34 31 -37 51 -33 80 16
20 35 21 35 46 19 18 -12 23 -22 18 -37 -3 -12 -9 -38 -12 -58 -3 -21 -9 -38
-14 -38 -12 0 -47 -28 -91 -74 -26 -27 -43 -37 -57 -33 -11 3 -28 -1 -38 -8
-15 -11 -16 -17 -6 -32 6 -10 17 -17 23 -15 7 1 18 -2 26 -9 32 -27 140 77
159 153 5 17 17 30 36 37 20 7 35 22 45 48 9 21 25 57 35 80 10 23 19 46 19
50 0 4 18 27 40 51 36 38 40 47 40 93 0 42 6 59 41 108 57 81 79 190 42 207
-10 4 -21 7 -25 6 -4 -1 -2 12 3 28 9 25 7 34 -11 60 -12 16 -27 30 -33 31 -7
0 -30 2 -52 5 -22 2 -48 -1 -57 -6z m-95 -388 c9 -40 21 -79 27 -87 22 -26 48
-17 61 20 15 40 42 44 47 7 3 -19 -7 -36 -66 -112 -2 -3 -8 3 -13 13 -15 27
-92 23 -121 -6 -13 -12 -40 -33 -60 -46 -53 -32 -50 -7 7 60 33 39 45 61 45
85 0 34 24 135 36 155 10 17 20 -6 37 -89z"/>
<path d="M7506 8119 c-24 -15 -51 -38 -60 -51 -42 -59 -70 -106 -87 -145 -18
-43 -60 -80 -79 -68 -11 7 -12 76 -1 115 13 46 2 67 -45 85 -44 17 -45 17 -78
-9 -22 -16 -48 -55 -75 -111 -31 -65 -46 -85 -61 -85 -28 0 -38 33 -32 106 4
56 2 63 -19 78 -33 22 -56 20 -84 -9 -33 -32 -35 -82 -3 -81 16 1 27 -9 40
-36 10 -20 28 -48 40 -61 13 -14 31 -36 41 -51 10 -14 27 -26 37 -26 11 0 37
-7 59 -16 30 -12 44 -13 60 -4 29 15 26 44 -10 84 -23 27 -30 43 -27 68 2 26
7 33 23 31 11 -1 25 -10 30 -19 13 -23 51 -60 105 -101 35 -28 51 -33 95 -33
43 0 60 5 84 26 54 45 56 58 16 102 -36 40 -45 71 -22 73 27 3 51 -4 81 -22
17 -10 41 -19 54 -19 12 0 25 -7 28 -15 4 -8 24 -18 45 -21 21 -4 39 -10 39
-13 0 -4 -20 -12 -43 -18 -52 -14 -102 -61 -127 -119 -10 -23 -23 -45 -28 -48
-6 -3 -13 -20 -17 -37 -4 -17 -20 -46 -37 -65 -34 -38 -31 -64 5 -64 13 0 44
-3 69 -6 38 -5 48 -3 76 21 41 35 40 58 -3 91 -46 35 -49 74 -5 74 16 0 45 -7
64 -16 45 -22 62 -14 70 33 18 119 18 120 2 136 -23 22 -21 24 29 31 32 5 59
19 100 54 30 25 55 52 55 60 0 24 -19 50 -54 71 -51 32 -71 27 -107 -26 -39
-57 -70 -88 -109 -108 -27 -14 -29 -14 -35 5 -4 13 4 39 24 74 47 81 42 94
-37 106 -36 6 -49 3 -86 -21z"/>
<path d="M7952 7953 c-7 -3 -21 -22 -32 -44 -11 -21 -28 -43 -39 -48 -10 -6
-26 -26 -35 -45 -9 -19 -37 -58 -61 -87 -50 -58 -47 -69 18 -69 20 0 37 -4 37
-10 0 -8 -60 -30 -85 -30 -22 0 -58 -69 -107 -205 -6 -16 -17 -39 -25 -50 -20
-30 -16 -42 18 -54 49 -17 75 -13 108 15 40 33 40 66 1 94 -32 23 -40 57 -15
67 9 3 36 0 61 -7 31 -9 48 -10 55 -3 6 6 12 49 12 96 l2 85 33 18 c38 21 122
107 122 127 0 7 -16 21 -35 30 -41 19 -45 43 -11 59 55 24 33 83 -22 61z"/>
<path d="M8073 7754 c-18 -24 -33 -56 -33 -71 0 -17 -11 -36 -29 -52 -36 -31
-105 -161 -93 -173 4 -4 36 -4 70 0 67 9 103 34 144 100 25 40 19 58 -21 67
-21 4 -31 13 -31 25 0 26 16 34 80 40 66 6 75 24 35 75 -20 28 -33 35 -58 34
-26 0 -38 -9 -64 -45z"/>
<path d="M7276 7739 c-29 -23 -76 -117 -76 -152 0 -11 -10 -31 -22 -44 -21
-22 -21 -23 -3 -43 10 -11 26 -20 36 -20 10 0 30 -5 43 -12 22 -9 29 -8 46 7
27 24 25 38 -10 78 -59 67 -26 120 35 57 46 -48 62 -41 67 33 6 78 2 92 -28
106 -36 16 -58 14 -88 -10z"/>
<path d="M10283 7699 c-10 -11 -46 -49 -80 -83 -35 -34 -63 -65 -63 -70 0 -4
21 -6 47 -4 38 2 48 0 51 -14 4 -21 -59 -64 -124 -84 -26 -8 -56 -22 -67 -32
-28 -25 -57 -87 -57 -120 0 -23 -9 -35 -41 -57 -69 -48 -78 -88 -24 -111 19
-7 50 -14 70 -14 29 0 39 6 55 33 24 38 26 80 5 97 -8 7 -15 15 -15 19 0 3 31
19 68 34 99 42 109 51 92 82 -15 28 -17 26 74 99 125 101 158 171 108 229 -21
24 -78 22 -99 -4z"/>
<path d="M8231 7590 c-19 -31 -31 -64 -31 -85 0 -21 -7 -39 -17 -47 -10 -7
-35 -48 -57 -90 -55 -109 -82 -112 -88 -8 l-3 55 -65 -3 c-53 -3 -68 -8 -82
-25 -23 -29 -75 -197 -81 -262 -2 -18 5 -20 54 -23 44 -2 61 1 83 19 37 29 32
67 -11 94 -20 13 -32 28 -33 43 0 25 10 26 130 12 44 -5 99 -4 135 1 56 9 64
14 112 67 60 66 69 102 25 102 -16 0 -37 6 -48 14 -18 14 -18 16 -3 31 9 9 43
22 75 28 56 11 59 13 62 44 5 47 -34 83 -87 83 -36 0 -41 -4 -70 -50z"/>
<path d="M7422 7475 c-31 -26 -52 -76 -52 -123 0 -13 -7 -40 -16 -59 -23 -48
-7 -62 76 -65 61 -3 65 -2 68 20 3 17 -8 34 -38 62 -23 21 -40 45 -38 52 7 22
48 21 72 -1 12 -11 33 -22 46 -23 24 -3 25 -1 22 52 -5 83 -19 104 -68 108
-33 2 -48 -2 -72 -23z"/>
<path d="M8443 7475 c-49 -34 -83 -132 -52 -151 6 -4 -1 -16 -19 -33 -17 -14
-36 -44 -43 -66 -6 -22 -20 -57 -31 -77 l-18 -38 33 0 c54 0 135 28 148 51 6
12 27 38 46 60 43 48 39 69 -14 69 -45 0 -83 9 -83 20 0 11 79 47 124 57 57
12 66 32 33 82 -24 36 -32 41 -65 41 -21 0 -47 -7 -59 -15z"/>
<path d="M8650 7342 c-45 -22 -69 -80 -52 -125 10 -27 9 -33 -13 -55 -14 -14
-32 -50 -41 -81 -21 -74 -37 -91 -63 -67 -10 9 -22 33 -26 52 -8 44 -26 51
-64 25 -17 -12 -43 -26 -60 -32 -31 -11 -52 -47 -50 -89 1 -31 -17 -146 -25
-159 -12 -19 29 -31 70 -20 68 18 91 30 105 56 12 23 11 27 -10 44 -13 10 -31
19 -41 19 -30 0 -43 25 -24 45 13 13 30 16 75 12 32 -2 61 -2 64 1 3 4 17 8
32 10 14 2 43 12 64 23 21 10 43 19 49 19 17 0 109 103 110 122 0 23 -32 39
-71 36 -71 -6 -26 44 52 57 71 12 75 56 11 100 -44 30 -47 30 -92 7z"/>
<path d="M7628 7259 c-34 -13 -46 -49 -50 -158 l-3 -84 40 -14 c51 -18 85 -5
85 32 0 17 -9 29 -29 39 -28 15 -41 34 -41 62 0 18 39 18 64 -1 21 -16 52 -20
59 -7 9 13 -18 100 -37 121 -21 23 -45 25 -88 10z"/>
<path d="M8160 7229 c-19 -10 -43 -19 -52 -19 -28 0 -47 -41 -64 -136 -9 -49
-18 -101 -21 -116 l-5 -28 61 0 c53 0 66 4 87 25 34 35 28 64 -18 89 -21 11
-38 27 -38 37 0 19 41 30 82 22 15 -3 39 -2 54 1 24 6 25 9 11 24 -8 9 -18 33
-22 52 -15 80 -18 81 -75 49z"/>
<path d="M9047 7123 c-4 -3 -7 -21 -7 -40 0 -27 5 -35 26 -43 25 -10 25 -30
-1 -30 -21 0 -45 -41 -45 -77 0 -44 -20 -84 -39 -81 -9 2 -25 20 -36 41 -11
20 -24 37 -29 37 -5 0 -26 -15 -46 -32 -21 -18 -50 -43 -65 -56 -26 -22 -27
-26 -21 -85 3 -34 9 -77 12 -94 8 -41 -8 -43 -56 -8 -46 34 -72 31 -115 -9
l-36 -34 17 -39 c10 -21 18 -53 18 -70 l1 -33 55 0 c53 0 100 19 100 40 0 4
-19 15 -42 22 -53 18 -65 48 -18 48 17 0 47 7 67 15 19 8 47 15 60 15 33 0
120 57 126 82 10 38 -2 50 -47 44 -46 -7 -72 4 -63 27 3 9 27 17 64 22 75 9
114 28 155 75 18 20 43 40 55 44 25 8 73 61 73 80 0 20 -34 46 -61 48 -21 2
-24 6 -21 30 3 18 -2 36 -13 48 -18 20 -55 27 -68 13z"/>
<path d="M8805 7066 c-15 -15 -25 -41 -30 -74 -13 -93 -52 -109 -82 -32 -18
45 -40 51 -69 19 -10 -12 -36 -30 -56 -40 -21 -11 -38 -27 -39 -37 0 -9 0 -58
1 -109 1 -53 -3 -94 -9 -97 -6 -4 -30 11 -54 34 -51 46 -62 48 -112 19 -51
-30 -59 -50 -45 -112 17 -74 22 -81 66 -90 84 -17 116 25 49 64 -22 13 -35 29
-35 41 0 19 4 20 53 14 42 -6 56 -4 66 8 8 10 22 14 36 10 34 -9 120 24 135
51 18 34 7 52 -39 65 -66 17 -48 60 24 60 52 0 158 35 181 61 9 10 21 19 25
19 5 0 17 6 26 14 10 8 33 27 51 41 33 27 43 67 20 81 -6 4 -40 8 -76 10 -56
1 -68 -1 -87 -20z"/>
<path d="M7850 7056 c-26 -9 -38 -22 -47 -47 -16 -45 -16 -162 -1 -177 7 -7
35 -12 64 -12 69 0 76 19 24 62 -66 53 -50 91 26 62 64 -25 73 -11 37 62 -31
65 -45 71 -103 50z"/>
<path d="M9268 6953 c-1 -15 -1 -44 1 -63 1 -19 -5 -44 -13 -55 -15 -20 -16
-19 -50 18 -19 20 -39 37 -44 37 -5 0 -18 -12 -28 -27 -9 -15 -33 -42 -52 -60
-31 -30 -34 -36 -27 -70 4 -21 10 -42 15 -48 5 -5 11 -27 15 -47 8 -43 -3 -48
-51 -23 -43 22 -65 18 -101 -16 -40 -36 -41 -60 -8 -103 14 -18 25 -40 25 -48
0 -21 17 -27 65 -22 40 5 85 30 93 52 2 7 -9 15 -27 18 -17 4 -35 12 -41 19
-8 10 -4 15 18 20 17 3 38 15 48 26 9 10 27 19 40 19 12 0 42 15 66 33 34 26
43 39 43 63 0 28 -2 29 -45 30 -61 1 -70 2 -70 14 0 5 17 12 38 15 20 3 46 8
58 10 11 3 41 25 65 51 24 25 61 63 82 84 60 63 49 83 -50 94 l-63 7 -2 -28z"/>
<path d="M8093 6887 c-56 -21 -62 -37 -51 -151 4 -43 8 -50 37 -62 39 -17 97
-18 106 -3 4 6 -14 30 -40 54 -58 53 -53 69 19 61 80 -10 88 3 40 61 -44 52
-62 58 -111 40z"/>
<path d="M9563 6892 c-7 -4 -16 -20 -22 -35 -13 -35 -30 -34 -66 3 -16 17 -32
30 -35 30 -3 0 -28 -25 -55 -56 -58 -68 -61 -93 -19 -170 35 -64 26 -86 -24
-60 -17 9 -40 16 -51 16 -23 0 -61 -44 -61 -70 0 -10 25 -44 55 -75 53 -56 55
-57 87 -46 58 21 85 60 57 88 -15 15 6 45 49 69 44 23 103 98 95 120 -10 27
-43 37 -62 20 -21 -19 -75 -22 -69 -3 3 6 21 13 42 15 29 3 41 10 54 31 8 15
28 35 44 44 19 11 28 24 28 41 0 27 -28 49 -47 38z"/>
<path d="M9660 6847 c-19 -9 -26 -22 -28 -50 -3 -32 3 -44 37 -84 41 -45 51
-76 30 -88 -6 -4 -16 0 -22 8 -24 29 -58 28 -89 -4 -35 -35 -34 -68 3 -86 71
-34 60 -74 -15 -53 -24 7 -49 9 -55 5 -15 -8 -14 -38 1 -53 25 -25 108 -8 108
23 0 9 15 16 38 20 73 11 109 25 133 51 l24 26 -28 24 -28 24 38 38 c21 20 52
56 68 80 25 39 27 44 13 58 -14 14 -21 14 -68 0 -45 -13 -51 -14 -46 -1 8 23
-4 44 -35 60 -34 18 -47 18 -79 2z"/>
<path d="M9926 6757 c-9 -7 -20 -31 -23 -54 -5 -40 -5 -41 33 -53 22 -7 43
-19 47 -26 13 -22 55 -16 79 11 13 15 32 25 48 25 32 0 85 52 77 74 -9 23 -38
20 -77 -9 -41 -30 -55 -31 -73 -5 -7 11 -30 26 -50 35 -44 18 -39 18 -61 2z"/>
</g>
</svg>
