<?xml version="1.0" encoding="UTF-8" standalone="no"?>
<!-- Created with Inkscape (http://www.inkscape.org/) -->

<svg
   xmlns:dc="http://purl.org/dc/elements/1.1/"
   xmlns:cc="http://creativecommons.org/ns#"
   xmlns:rdf="http://www.w3.org/1999/02/22-rdf-syntax-ns#"
   xmlns:svg="http://www.w3.org/2000/svg"
   xmlns="http://www.w3.org/2000/svg"
   xmlns:sodipodi="http://sodipodi.sourceforge.net/DTD/sodipodi-0.dtd"
   xmlns:inkscape="http://www.inkscape.org/namespaces/inkscape"
   width="500mm"
   height="210mm"
   viewBox="0 0 500 210"
   id="svg3388"
   version="1.1"
   inkscape:version="0.91 r13725"
   sodipodi:docname="stage1.svg">
  <defs
     id="defs3390">
    <inkscape:perspective
       sodipodi:type="inkscape:persp3d"
       inkscape:vp_x="101.51155 : -95.207234 : 1"
       inkscape:vp_y="649.6202 : 0 : 0"
       inkscape:vp_z="159.56097 : 147.67565 : 1"
       inkscape:persp3d-origin="293.72975 : -175.81467 : 1"
       id="perspective3399" />
  </defs>
  <sodipodi:namedview
     inkscape:document-units="mm"
     pagecolor="#ffffff"
     bordercolor="#666666"
     borderopacity="1.0"
     inkscape:pageopacity="0.0"
     inkscape:pageshadow="2"
     inkscape:zoom="0.5578212"
     inkscape:cx="1072.8413"
     inkscape:cy="417.01581"
     inkscape:current-layer="layer1"
     id="namedview3392"
     showgrid="false"
     inkscape:window-width="1440"
     inkscape:window-height="789"
     inkscape:window-x="0"
     inkscape:window-y="1"
     inkscape:window-maximized="1" />
  <metadata
     id="metadata3394">
    <rdf:RDF>
      <cc:Work
         rdf:about="">
        <dc:format>image/svg+xml</dc:format>
        <dc:type
           rdf:resource="http://purl.org/dc/dcmitype/StillImage" />
        <dc:title />
      </cc:Work>
    </rdf:RDF>
  </metadata>
  <g
     inkscape:label="Layer 1"
     inkscape:groupmode="layer"
     id="layer1">
    <g
       id="g3513"
       style="fill:#ac9393"
       transform="matrix(1.6844975,0,0,1.0198751,1.3689949,-2.0073822)">
      <path
         d="m 102,101 106,0 90,72 -300,0 z"
         style="fill:#ac9393"
         id="path3551"
         inkscape:connector-curvature="0" />
    </g>


    <rect
       style="fill:#483737"
       id="rect3555"
       width="500"
       height="38"
       x="0.0"
       y="172" />



    <ellipse
       style="fill:#917c6f"
       id="path3667"
       cx="258.29642"
       cy="-116.60895"
       rx="53.662693"
       ry="7.5307541"
       transform="scale(1,-1)" />
    <ellipse
       style="fill:#917c6f"
       id="path3787"
       cx="152.79288"
       cy="139.92776"
       rx="47.558048"
       ry="7.336082" />
    <ellipse
       style="fill:#917c6f"
       id="path3789"
       cx="378.18768"
       cy="139.16885"
       rx="42.751648"
       ry="6.0712404" />
    <ellipse
       style="fill:#917c6f"
       id="path3791"
       cx="267.38757"
       cy="158.39445"
       rx="48.316952"
       ry="7.0831137" />
    <g
       id="layer1-0"
       inkscape:label="Layer 1"
       transform="matrix(0.09432828,0,0,0.11119602,223.69206,3.7572485)">
      <path
         id="path2558"
         d="m 302.07468,1018.9879 c -15.81897,-5.1904 -28.34737,-16.8655 -31.92586,-29.75162 -1.42594,-5.13478 -2.10543,-110.17978 -2.11301,-326.65896 l -0.0112,-319.09031 -8.01483,0 -8.01483,0 0,120.45053 c 0,118.07986 -0.0815,120.59391 -4.14303,127.73631 -5.26073,9.25131 -11.16854,13.58617 -22.73067,16.67855 -17.09376,4.5719 -35.7878,-4.15819 -42.50097,-19.84788 -4.3193,-10.09485 -4.038,-279.33842 0.30928,-296.02878 9.79916,-37.6215 41.53277,-68.44297 78.54331,-76.28567 19.49608,-4.1313 199.75046,-4.18226 219.18913,-0.062 19.80013,4.19692 36.80657,13.69012 51.85463,28.94588 15.47834,15.69199 22.70364,28.42132 28.09297,49.4934 3.75647,14.68761 3.96364,22.55346 3.96364,150.49169 0,116.94951 -0.41197,135.98001 -3.08199,142.37026 -4.15156,9.9361 -8.42366,14.40454 -17.95694,18.78224 -15.82006,7.2646 -35.92704,2.59108 -45.28163,-10.52495 l -4.81104,-6.74554 -0.54573,-122.72704 -0.54575,-122.72704 -7.97001,0 -7.97002,0 0,320.65745 c 0,351.50048 0.79525,328.16116 -11.62761,341.25028 -9.81312,10.3393 -19.82011,14.2505 -36.46136,14.2505 -16.64124,0 -26.64824,-3.9112 -36.46135,-14.2505 -12.18104,-12.83433 -11.62761,-2.8865 -11.62761,-209.00564 l 0,-188.41279 -8.01483,0 -8.01483,0 0,188.41279 c 0,153.54409 -0.50003,189.60605 -2.70192,194.86049 -4.03669,9.63295 -12.81825,19.13045 -22.03661,23.83335 -8.88472,4.5326 -29.05582,6.6393 -37.38936,3.905 z M 347.1449,193.72648 c -24.22231,-8.65142 -39.193,-21.98708 -49.78959,-44.35181 -5.8651,-12.37867 -6.28804,-14.75664 -6.28804,-35.35422 0,-20.841905 0.36411,-22.822531 6.47924,-35.244117 30.5436,-62.042861 118.72329,-62.194977 149.21506,-0.257406 6.31342,12.824377 6.60596,14.440919 6.60596,36.503383 0,21.21804 -0.45292,24.00705 -5.60092,34.49028 -8.64792,17.61029 -21.42101,30.45108 -38.86769,39.0737 -13.5458,6.69469 -16.9855,7.52828 -33.40502,8.0955 -13.77794,0.47595 -20.7882,-0.25485 -28.349,-2.95531 z"
         style="fill:#000000"
         inkscape:connector-curvature="0" />
    </g>
    <g
       id="layer1-4"
       inkscape:label="Layer 1"
       transform="matrix(0.08381673,0,0,0.13679874,121.35614,2.9339922)">
      <path
         id="path2558-8"
         d="m 302.07468,1018.9879 c -15.81897,-5.1904 -28.34737,-16.8655 -31.92586,-29.75162 -1.42594,-5.13478 -2.10543,-110.17978 -2.11301,-326.65896 l -0.0112,-319.09031 -8.01483,0 -8.01483,0 0,120.45053 c 0,118.07986 -0.0815,120.59391 -4.14303,127.73631 -5.26073,9.25131 -11.16854,13.58617 -22.73067,16.67855 -17.09376,4.5719 -35.7878,-4.15819 -42.50097,-19.84788 -4.3193,-10.09485 -4.038,-279.33842 0.30928,-296.02878 9.79916,-37.6215 41.53277,-68.44297 78.54331,-76.28567 19.49608,-4.1313 199.75046,-4.18226 219.18913,-0.062 19.80013,4.19692 36.80657,13.69012 51.85463,28.94588 15.47834,15.69199 22.70364,28.42132 28.09297,49.4934 3.75647,14.68761 3.96364,22.55346 3.96364,150.49169 0,116.94951 -0.41197,135.98001 -3.08199,142.37026 -4.15156,9.9361 -8.42366,14.40454 -17.95694,18.78224 -15.82006,7.2646 -35.92704,2.59108 -45.28163,-10.52495 l -4.81104,-6.74554 -0.54573,-122.72704 -0.54575,-122.72704 -7.97001,0 -7.97002,0 0,320.65745 c 0,351.50048 0.79525,328.16116 -11.62761,341.25028 -9.81312,10.3393 -19.82011,14.2505 -36.46136,14.2505 -16.64124,0 -26.64824,-3.9112 -36.46135,-14.2505 -12.18104,-12.83433 -11.62761,-2.8865 -11.62761,-209.00564 l 0,-188.41279 -8.01483,0 -8.01483,0 0,188.41279 c 0,153.54409 -0.50003,189.60605 -2.70192,194.86049 -4.03669,9.63295 -12.81825,19.13045 -22.03661,23.83335 -8.88472,4.5326 -29.05582,6.6393 -37.38936,3.905 z M 347.1449,193.72648 c -24.22231,-8.65142 -39.193,-21.98708 -49.78959,-44.35181 -5.8651,-12.37867 -6.28804,-14.75664 -6.28804,-35.35422 0,-20.841905 0.36411,-22.822531 6.47924,-35.244117 30.5436,-62.042861 118.72329,-62.194977 149.21506,-0.257406 6.31342,12.824377 6.60596,14.440919 6.60596,36.503383 0,21.21804 -0.45292,24.00705 -5.60092,34.49028 -8.64792,17.61029 -21.42101,30.45108 -38.86769,39.0737 -13.5458,6.69469 -16.9855,7.52828 -33.40502,8.0955 -13.77794,0.47595 -20.7882,-0.25485 -28.349,-2.95531 z"
         style="fill:#000000"
         inkscape:connector-curvature="0" />
    </g>
    <g
       id="layer1-41"
       inkscape:label="Layer 1"
       transform="matrix(0.09827011,0,0,0.13628669,342.38548,1.4326443)">
      <path
         id="path2558-2"
         d="m 302.07468,1018.9879 c -15.81897,-5.1904 -28.34737,-16.8655 -31.92586,-29.75162 -1.42594,-5.13478 -2.10543,-110.17978 -2.11301,-326.65896 l -0.0112,-319.09031 -8.01483,0 -8.01483,0 0,120.45053 c 0,118.07986 -0.0815,120.59391 -4.14303,127.73631 -5.26073,9.25131 -11.16854,13.58617 -22.73067,16.67855 -17.09376,4.5719 -35.7878,-4.15819 -42.50097,-19.84788 -4.3193,-10.09485 -4.038,-279.33842 0.30928,-296.02878 9.79916,-37.6215 41.53277,-68.44297 78.54331,-76.28567 19.49608,-4.1313 199.75046,-4.18226 219.18913,-0.062 19.80013,4.19692 36.80657,13.69012 51.85463,28.94588 15.47834,15.69199 22.70364,28.42132 28.09297,49.4934 3.75647,14.68761 3.96364,22.55346 3.96364,150.49169 0,116.94951 -0.41197,135.98001 -3.08199,142.37026 -4.15156,9.9361 -8.42366,14.40454 -17.95694,18.78224 -15.82006,7.2646 -35.92704,2.59108 -45.28163,-10.52495 l -4.81104,-6.74554 -0.54573,-122.72704 -0.54575,-122.72704 -7.97001,0 -7.97002,0 0,320.65745 c 0,351.50048 0.79525,328.16116 -11.62761,341.25028 -9.81312,10.3393 -19.82011,14.2505 -36.46136,14.2505 -16.64124,0 -26.64824,-3.9112 -36.46135,-14.2505 -12.18104,-12.83433 -11.62761,-2.8865 -11.62761,-209.00564 l 0,-188.41279 -8.01483,0 -8.01483,0 0,188.41279 c 0,153.54409 -0.50003,189.60605 -2.70192,194.86049 -4.03669,9.63295 -12.81825,19.13045 -22.03661,23.83335 -8.88472,4.5326 -29.05582,6.6393 -37.38936,3.905 z M 347.1449,193.72648 c -24.22231,-8.65142 -39.193,-21.98708 -49.78959,-44.35181 -5.8651,-12.37867 -6.28804,-14.75664 -6.28804,-35.35422 0,-20.841905 0.36411,-22.822531 6.47924,-35.244117 30.5436,-62.042861 118.72329,-62.194977 149.21506,-0.257406 6.31342,12.824377 6.60596,14.440919 6.60596,36.503383 0,21.21804 -0.45292,24.00705 -5.60092,34.49028 -8.64792,17.61029 -21.42101,30.45108 -38.86769,39.0737 -13.5458,6.69469 -16.9855,7.52828 -33.40502,8.0955 -13.77794,0.47595 -20.7882,-0.25485 -28.349,-2.95531 z"
         style="fill:#000000"
         inkscape:connector-curvature="0" />
    </g>
    <text
       xml:space="preserve"
       style="font-style:normal;font-weight:normal;font-size:11.28888893px;line-height:125%;font-family:sans-serif;letter-spacing:0px;word-spacing:0px;fill:#000000;fill-opacity:1;stroke:none;stroke-width:1px;stroke-linecap:butt;stroke-linejoin:miter;stroke-opacity:1"
       x="236.27243"
       y="149.2876"
       id="text3980"
       sodipodi:linespacing="125%"><tspan
         sodipodi:role="line"
         id="tspan3982"
         x="236.27243"
         y="149.2876"
         style="font-size:22.57777791px;-inkscape-font-specification:'.Beirut PUA Bold';font-family:'.Beirut PUA';font-weight:bold;font-style:normal;font-stretch:normal;font-variant:normal">YOU?</tspan></text>
  </g>
</svg>
